%TF.GenerationSoftware,KiCad,Pcbnew,8.0.7*%
%TF.CreationDate,2025-02-08T00:47:40+09:00*%
%TF.ProjectId,LINESensorV1,4c494e45-5365-46e7-936f-7256312e6b69,rev?*%
%TF.SameCoordinates,Original*%
%TF.FileFunction,Drillmap*%
%TF.FilePolarity,Positive*%
%FSLAX45Y45*%
G04 Gerber Fmt 4.5, Leading zero omitted, Abs format (unit mm)*
G04 Created by KiCad (PCBNEW 8.0.7) date 2025-02-08 00:47:40*
%MOMM*%
%LPD*%
G01*
G04 APERTURE LIST*
%ADD10C,0.050000*%
%ADD11C,0.200000*%
%ADD12C,0.320000*%
G04 APERTURE END LIST*
D10*
X21500000Y-5901000D02*
X21500000Y-6715000D01*
X12930081Y-14300007D02*
G75*
G02*
X20300566Y-6930033I8069919J-699993D01*
G01*
X27000000Y-15000000D02*
G75*
G02*
X15000000Y-15000000I-6000000J0D01*
G01*
X15000000Y-15000000D02*
G75*
G02*
X27000000Y-15000000I6000000J0D01*
G01*
X12930033Y-15699437D02*
G75*
G02*
X12715000Y-15501000I-15033J199437D01*
G01*
X20500000Y-5901000D02*
G75*
G02*
X21500000Y-5901000I500000J1000D01*
G01*
X21699441Y-6929951D02*
G75*
G02*
X29070000Y-14300000I-699441J-8070048D01*
G01*
X11900000Y-15500000D02*
G75*
G02*
X11900000Y-14500000I0J500000D01*
G01*
X20500000Y-5901000D02*
X20500000Y-6715000D01*
X29070000Y-14300000D02*
G75*
G02*
X29285562Y-14500000I15000J-200000D01*
G01*
X20300493Y-23070964D02*
G75*
G02*
X12929037Y-15699523I699507J8070964D01*
G01*
X21500000Y-6715000D02*
G75*
G02*
X21699440Y-6929958I0J-200000D01*
G01*
X30100000Y-15500000D02*
X29285562Y-15500000D01*
X21700000Y-23070000D02*
G75*
G02*
X21500000Y-23285562I-200000J-15000D01*
G01*
X29285562Y-15500000D02*
G75*
G02*
X29070000Y-15700000I-200562J0D01*
G01*
X20500000Y-23285000D02*
G75*
G02*
X20300493Y-23070964I0J200000D01*
G01*
X30100000Y-14500000D02*
X29285562Y-14500000D01*
X12715000Y-15501000D02*
X11900000Y-15500000D01*
X21500000Y-24100000D02*
G75*
G02*
X20500000Y-24100000I-500000J0D01*
G01*
X11900000Y-14500000D02*
X12714441Y-14499002D01*
X30100000Y-14500000D02*
G75*
G02*
X30100000Y-15500000I0J-500000D01*
G01*
X29070000Y-15700000D02*
G75*
G02*
X21700000Y-23070000I-8070000J700000D01*
G01*
X21500000Y-23285562D02*
X21500000Y-24100000D01*
X12714441Y-14499002D02*
G75*
G02*
X12930000Y-14300000I200559J-998D01*
G01*
X20500000Y-23285000D02*
X20500000Y-24100000D01*
X20300566Y-6930033D02*
G75*
G02*
X20500000Y-6715000I199434J15033D01*
G01*
D11*
D12*
X11840000Y-14840000D02*
X12160000Y-15160000D01*
X12160000Y-14840000D02*
X11840000Y-15160000D01*
X20840000Y-5840000D02*
X21160000Y-6160000D01*
X21160000Y-5840000D02*
X20840000Y-6160000D01*
X20840000Y-23840000D02*
X21160000Y-24160000D01*
X21160000Y-23840000D02*
X20840000Y-24160000D01*
X29840000Y-14840000D02*
X30160000Y-15160000D01*
X30160000Y-14840000D02*
X29840000Y-15160000D01*
D11*
X11658277Y-24913984D02*
X11658277Y-24713984D01*
X11658277Y-24713984D02*
X11705896Y-24713984D01*
X11705896Y-24713984D02*
X11734467Y-24723508D01*
X11734467Y-24723508D02*
X11753515Y-24742555D01*
X11753515Y-24742555D02*
X11763039Y-24761603D01*
X11763039Y-24761603D02*
X11772562Y-24799698D01*
X11772562Y-24799698D02*
X11772562Y-24828269D01*
X11772562Y-24828269D02*
X11763039Y-24866365D01*
X11763039Y-24866365D02*
X11753515Y-24885412D01*
X11753515Y-24885412D02*
X11734467Y-24904460D01*
X11734467Y-24904460D02*
X11705896Y-24913984D01*
X11705896Y-24913984D02*
X11658277Y-24913984D01*
X11858277Y-24913984D02*
X11858277Y-24780650D01*
X11858277Y-24818746D02*
X11867801Y-24799698D01*
X11867801Y-24799698D02*
X11877324Y-24790174D01*
X11877324Y-24790174D02*
X11896372Y-24780650D01*
X11896372Y-24780650D02*
X11915420Y-24780650D01*
X11982086Y-24913984D02*
X11982086Y-24780650D01*
X11982086Y-24713984D02*
X11972562Y-24723508D01*
X11972562Y-24723508D02*
X11982086Y-24733031D01*
X11982086Y-24733031D02*
X11991610Y-24723508D01*
X11991610Y-24723508D02*
X11982086Y-24713984D01*
X11982086Y-24713984D02*
X11982086Y-24733031D01*
X12105896Y-24913984D02*
X12086848Y-24904460D01*
X12086848Y-24904460D02*
X12077324Y-24885412D01*
X12077324Y-24885412D02*
X12077324Y-24713984D01*
X12210658Y-24913984D02*
X12191610Y-24904460D01*
X12191610Y-24904460D02*
X12182086Y-24885412D01*
X12182086Y-24885412D02*
X12182086Y-24713984D01*
X12439229Y-24913984D02*
X12439229Y-24713984D01*
X12439229Y-24713984D02*
X12505896Y-24856841D01*
X12505896Y-24856841D02*
X12572562Y-24713984D01*
X12572562Y-24713984D02*
X12572562Y-24913984D01*
X12753515Y-24913984D02*
X12753515Y-24809222D01*
X12753515Y-24809222D02*
X12743991Y-24790174D01*
X12743991Y-24790174D02*
X12724943Y-24780650D01*
X12724943Y-24780650D02*
X12686848Y-24780650D01*
X12686848Y-24780650D02*
X12667801Y-24790174D01*
X12753515Y-24904460D02*
X12734467Y-24913984D01*
X12734467Y-24913984D02*
X12686848Y-24913984D01*
X12686848Y-24913984D02*
X12667801Y-24904460D01*
X12667801Y-24904460D02*
X12658277Y-24885412D01*
X12658277Y-24885412D02*
X12658277Y-24866365D01*
X12658277Y-24866365D02*
X12667801Y-24847317D01*
X12667801Y-24847317D02*
X12686848Y-24837793D01*
X12686848Y-24837793D02*
X12734467Y-24837793D01*
X12734467Y-24837793D02*
X12753515Y-24828269D01*
X12848753Y-24780650D02*
X12848753Y-24980650D01*
X12848753Y-24790174D02*
X12867801Y-24780650D01*
X12867801Y-24780650D02*
X12905896Y-24780650D01*
X12905896Y-24780650D02*
X12924943Y-24790174D01*
X12924943Y-24790174D02*
X12934467Y-24799698D01*
X12934467Y-24799698D02*
X12943991Y-24818746D01*
X12943991Y-24818746D02*
X12943991Y-24875888D01*
X12943991Y-24875888D02*
X12934467Y-24894936D01*
X12934467Y-24894936D02*
X12924943Y-24904460D01*
X12924943Y-24904460D02*
X12905896Y-24913984D01*
X12905896Y-24913984D02*
X12867801Y-24913984D01*
X12867801Y-24913984D02*
X12848753Y-24904460D01*
X13029705Y-24894936D02*
X13039229Y-24904460D01*
X13039229Y-24904460D02*
X13029705Y-24913984D01*
X13029705Y-24913984D02*
X13020182Y-24904460D01*
X13020182Y-24904460D02*
X13029705Y-24894936D01*
X13029705Y-24894936D02*
X13029705Y-24913984D01*
X13029705Y-24790174D02*
X13039229Y-24799698D01*
X13039229Y-24799698D02*
X13029705Y-24809222D01*
X13029705Y-24809222D02*
X13020182Y-24799698D01*
X13020182Y-24799698D02*
X13029705Y-24790174D01*
X13029705Y-24790174D02*
X13029705Y-24809222D01*
X11197500Y-25142500D02*
X11397500Y-25342500D01*
X11397500Y-25142500D02*
X11197500Y-25342500D01*
X11639229Y-25133984D02*
X11763039Y-25133984D01*
X11763039Y-25133984D02*
X11696372Y-25210174D01*
X11696372Y-25210174D02*
X11724943Y-25210174D01*
X11724943Y-25210174D02*
X11743991Y-25219698D01*
X11743991Y-25219698D02*
X11753515Y-25229222D01*
X11753515Y-25229222D02*
X11763039Y-25248269D01*
X11763039Y-25248269D02*
X11763039Y-25295888D01*
X11763039Y-25295888D02*
X11753515Y-25314936D01*
X11753515Y-25314936D02*
X11743991Y-25324460D01*
X11743991Y-25324460D02*
X11724943Y-25333984D01*
X11724943Y-25333984D02*
X11667801Y-25333984D01*
X11667801Y-25333984D02*
X11648753Y-25324460D01*
X11648753Y-25324460D02*
X11639229Y-25314936D01*
X11848753Y-25314936D02*
X11858277Y-25324460D01*
X11858277Y-25324460D02*
X11848753Y-25333984D01*
X11848753Y-25333984D02*
X11839229Y-25324460D01*
X11839229Y-25324460D02*
X11848753Y-25314936D01*
X11848753Y-25314936D02*
X11848753Y-25333984D01*
X11934467Y-25153031D02*
X11943991Y-25143508D01*
X11943991Y-25143508D02*
X11963039Y-25133984D01*
X11963039Y-25133984D02*
X12010658Y-25133984D01*
X12010658Y-25133984D02*
X12029705Y-25143508D01*
X12029705Y-25143508D02*
X12039229Y-25153031D01*
X12039229Y-25153031D02*
X12048753Y-25172079D01*
X12048753Y-25172079D02*
X12048753Y-25191127D01*
X12048753Y-25191127D02*
X12039229Y-25219698D01*
X12039229Y-25219698D02*
X11924943Y-25333984D01*
X11924943Y-25333984D02*
X12048753Y-25333984D01*
X12172562Y-25133984D02*
X12191610Y-25133984D01*
X12191610Y-25133984D02*
X12210658Y-25143508D01*
X12210658Y-25143508D02*
X12220182Y-25153031D01*
X12220182Y-25153031D02*
X12229705Y-25172079D01*
X12229705Y-25172079D02*
X12239229Y-25210174D01*
X12239229Y-25210174D02*
X12239229Y-25257793D01*
X12239229Y-25257793D02*
X12229705Y-25295888D01*
X12229705Y-25295888D02*
X12220182Y-25314936D01*
X12220182Y-25314936D02*
X12210658Y-25324460D01*
X12210658Y-25324460D02*
X12191610Y-25333984D01*
X12191610Y-25333984D02*
X12172562Y-25333984D01*
X12172562Y-25333984D02*
X12153515Y-25324460D01*
X12153515Y-25324460D02*
X12143991Y-25314936D01*
X12143991Y-25314936D02*
X12134467Y-25295888D01*
X12134467Y-25295888D02*
X12124943Y-25257793D01*
X12124943Y-25257793D02*
X12124943Y-25210174D01*
X12124943Y-25210174D02*
X12134467Y-25172079D01*
X12134467Y-25172079D02*
X12143991Y-25153031D01*
X12143991Y-25153031D02*
X12153515Y-25143508D01*
X12153515Y-25143508D02*
X12172562Y-25133984D01*
X12363039Y-25133984D02*
X12382086Y-25133984D01*
X12382086Y-25133984D02*
X12401134Y-25143508D01*
X12401134Y-25143508D02*
X12410658Y-25153031D01*
X12410658Y-25153031D02*
X12420182Y-25172079D01*
X12420182Y-25172079D02*
X12429705Y-25210174D01*
X12429705Y-25210174D02*
X12429705Y-25257793D01*
X12429705Y-25257793D02*
X12420182Y-25295888D01*
X12420182Y-25295888D02*
X12410658Y-25314936D01*
X12410658Y-25314936D02*
X12401134Y-25324460D01*
X12401134Y-25324460D02*
X12382086Y-25333984D01*
X12382086Y-25333984D02*
X12363039Y-25333984D01*
X12363039Y-25333984D02*
X12343991Y-25324460D01*
X12343991Y-25324460D02*
X12334467Y-25314936D01*
X12334467Y-25314936D02*
X12324943Y-25295888D01*
X12324943Y-25295888D02*
X12315420Y-25257793D01*
X12315420Y-25257793D02*
X12315420Y-25210174D01*
X12315420Y-25210174D02*
X12324943Y-25172079D01*
X12324943Y-25172079D02*
X12334467Y-25153031D01*
X12334467Y-25153031D02*
X12343991Y-25143508D01*
X12343991Y-25143508D02*
X12363039Y-25133984D01*
X12515420Y-25333984D02*
X12515420Y-25200650D01*
X12515420Y-25219698D02*
X12524943Y-25210174D01*
X12524943Y-25210174D02*
X12543991Y-25200650D01*
X12543991Y-25200650D02*
X12572563Y-25200650D01*
X12572563Y-25200650D02*
X12591610Y-25210174D01*
X12591610Y-25210174D02*
X12601134Y-25229222D01*
X12601134Y-25229222D02*
X12601134Y-25333984D01*
X12601134Y-25229222D02*
X12610658Y-25210174D01*
X12610658Y-25210174D02*
X12629705Y-25200650D01*
X12629705Y-25200650D02*
X12658277Y-25200650D01*
X12658277Y-25200650D02*
X12677324Y-25210174D01*
X12677324Y-25210174D02*
X12686848Y-25229222D01*
X12686848Y-25229222D02*
X12686848Y-25333984D01*
X12782086Y-25333984D02*
X12782086Y-25200650D01*
X12782086Y-25219698D02*
X12791610Y-25210174D01*
X12791610Y-25210174D02*
X12810658Y-25200650D01*
X12810658Y-25200650D02*
X12839229Y-25200650D01*
X12839229Y-25200650D02*
X12858277Y-25210174D01*
X12858277Y-25210174D02*
X12867801Y-25229222D01*
X12867801Y-25229222D02*
X12867801Y-25333984D01*
X12867801Y-25229222D02*
X12877324Y-25210174D01*
X12877324Y-25210174D02*
X12896372Y-25200650D01*
X12896372Y-25200650D02*
X12924943Y-25200650D01*
X12924943Y-25200650D02*
X12943991Y-25210174D01*
X12943991Y-25210174D02*
X12953515Y-25229222D01*
X12953515Y-25229222D02*
X12953515Y-25333984D01*
X13343991Y-25124460D02*
X13172563Y-25381603D01*
X13601134Y-25133984D02*
X13620182Y-25133984D01*
X13620182Y-25133984D02*
X13639229Y-25143508D01*
X13639229Y-25143508D02*
X13648753Y-25153031D01*
X13648753Y-25153031D02*
X13658277Y-25172079D01*
X13658277Y-25172079D02*
X13667801Y-25210174D01*
X13667801Y-25210174D02*
X13667801Y-25257793D01*
X13667801Y-25257793D02*
X13658277Y-25295888D01*
X13658277Y-25295888D02*
X13648753Y-25314936D01*
X13648753Y-25314936D02*
X13639229Y-25324460D01*
X13639229Y-25324460D02*
X13620182Y-25333984D01*
X13620182Y-25333984D02*
X13601134Y-25333984D01*
X13601134Y-25333984D02*
X13582086Y-25324460D01*
X13582086Y-25324460D02*
X13572563Y-25314936D01*
X13572563Y-25314936D02*
X13563039Y-25295888D01*
X13563039Y-25295888D02*
X13553515Y-25257793D01*
X13553515Y-25257793D02*
X13553515Y-25210174D01*
X13553515Y-25210174D02*
X13563039Y-25172079D01*
X13563039Y-25172079D02*
X13572563Y-25153031D01*
X13572563Y-25153031D02*
X13582086Y-25143508D01*
X13582086Y-25143508D02*
X13601134Y-25133984D01*
X13753515Y-25314936D02*
X13763039Y-25324460D01*
X13763039Y-25324460D02*
X13753515Y-25333984D01*
X13753515Y-25333984D02*
X13743991Y-25324460D01*
X13743991Y-25324460D02*
X13753515Y-25314936D01*
X13753515Y-25314936D02*
X13753515Y-25333984D01*
X13953515Y-25333984D02*
X13839229Y-25333984D01*
X13896372Y-25333984D02*
X13896372Y-25133984D01*
X13896372Y-25133984D02*
X13877325Y-25162555D01*
X13877325Y-25162555D02*
X13858277Y-25181603D01*
X13858277Y-25181603D02*
X13839229Y-25191127D01*
X14029706Y-25153031D02*
X14039229Y-25143508D01*
X14039229Y-25143508D02*
X14058277Y-25133984D01*
X14058277Y-25133984D02*
X14105896Y-25133984D01*
X14105896Y-25133984D02*
X14124944Y-25143508D01*
X14124944Y-25143508D02*
X14134467Y-25153031D01*
X14134467Y-25153031D02*
X14143991Y-25172079D01*
X14143991Y-25172079D02*
X14143991Y-25191127D01*
X14143991Y-25191127D02*
X14134467Y-25219698D01*
X14134467Y-25219698D02*
X14020182Y-25333984D01*
X14020182Y-25333984D02*
X14143991Y-25333984D01*
X14315420Y-25133984D02*
X14277325Y-25133984D01*
X14277325Y-25133984D02*
X14258277Y-25143508D01*
X14258277Y-25143508D02*
X14248753Y-25153031D01*
X14248753Y-25153031D02*
X14229706Y-25181603D01*
X14229706Y-25181603D02*
X14220182Y-25219698D01*
X14220182Y-25219698D02*
X14220182Y-25295888D01*
X14220182Y-25295888D02*
X14229706Y-25314936D01*
X14229706Y-25314936D02*
X14239229Y-25324460D01*
X14239229Y-25324460D02*
X14258277Y-25333984D01*
X14258277Y-25333984D02*
X14296372Y-25333984D01*
X14296372Y-25333984D02*
X14315420Y-25324460D01*
X14315420Y-25324460D02*
X14324944Y-25314936D01*
X14324944Y-25314936D02*
X14334467Y-25295888D01*
X14334467Y-25295888D02*
X14334467Y-25248269D01*
X14334467Y-25248269D02*
X14324944Y-25229222D01*
X14324944Y-25229222D02*
X14315420Y-25219698D01*
X14315420Y-25219698D02*
X14296372Y-25210174D01*
X14296372Y-25210174D02*
X14258277Y-25210174D01*
X14258277Y-25210174D02*
X14239229Y-25219698D01*
X14239229Y-25219698D02*
X14229706Y-25229222D01*
X14229706Y-25229222D02*
X14220182Y-25248269D01*
X14458277Y-25133984D02*
X14477325Y-25133984D01*
X14477325Y-25133984D02*
X14496372Y-25143508D01*
X14496372Y-25143508D02*
X14505896Y-25153031D01*
X14505896Y-25153031D02*
X14515420Y-25172079D01*
X14515420Y-25172079D02*
X14524944Y-25210174D01*
X14524944Y-25210174D02*
X14524944Y-25257793D01*
X14524944Y-25257793D02*
X14515420Y-25295888D01*
X14515420Y-25295888D02*
X14505896Y-25314936D01*
X14505896Y-25314936D02*
X14496372Y-25324460D01*
X14496372Y-25324460D02*
X14477325Y-25333984D01*
X14477325Y-25333984D02*
X14458277Y-25333984D01*
X14458277Y-25333984D02*
X14439229Y-25324460D01*
X14439229Y-25324460D02*
X14429706Y-25314936D01*
X14429706Y-25314936D02*
X14420182Y-25295888D01*
X14420182Y-25295888D02*
X14410658Y-25257793D01*
X14410658Y-25257793D02*
X14410658Y-25210174D01*
X14410658Y-25210174D02*
X14420182Y-25172079D01*
X14420182Y-25172079D02*
X14429706Y-25153031D01*
X14429706Y-25153031D02*
X14439229Y-25143508D01*
X14439229Y-25143508D02*
X14458277Y-25133984D01*
X14601134Y-25133984D02*
X14601134Y-25172079D01*
X14677325Y-25133984D02*
X14677325Y-25172079D01*
X14972563Y-25410174D02*
X14963039Y-25400650D01*
X14963039Y-25400650D02*
X14943991Y-25372079D01*
X14943991Y-25372079D02*
X14934468Y-25353031D01*
X14934468Y-25353031D02*
X14924944Y-25324460D01*
X14924944Y-25324460D02*
X14915420Y-25276841D01*
X14915420Y-25276841D02*
X14915420Y-25238746D01*
X14915420Y-25238746D02*
X14924944Y-25191127D01*
X14924944Y-25191127D02*
X14934468Y-25162555D01*
X14934468Y-25162555D02*
X14943991Y-25143508D01*
X14943991Y-25143508D02*
X14963039Y-25114936D01*
X14963039Y-25114936D02*
X14972563Y-25105412D01*
X15134468Y-25200650D02*
X15134468Y-25333984D01*
X15086848Y-25124460D02*
X15039229Y-25267317D01*
X15039229Y-25267317D02*
X15163039Y-25267317D01*
X15391610Y-25333984D02*
X15391610Y-25133984D01*
X15477325Y-25333984D02*
X15477325Y-25229222D01*
X15477325Y-25229222D02*
X15467801Y-25210174D01*
X15467801Y-25210174D02*
X15448753Y-25200650D01*
X15448753Y-25200650D02*
X15420182Y-25200650D01*
X15420182Y-25200650D02*
X15401134Y-25210174D01*
X15401134Y-25210174D02*
X15391610Y-25219698D01*
X15601134Y-25333984D02*
X15582087Y-25324460D01*
X15582087Y-25324460D02*
X15572563Y-25314936D01*
X15572563Y-25314936D02*
X15563039Y-25295888D01*
X15563039Y-25295888D02*
X15563039Y-25238746D01*
X15563039Y-25238746D02*
X15572563Y-25219698D01*
X15572563Y-25219698D02*
X15582087Y-25210174D01*
X15582087Y-25210174D02*
X15601134Y-25200650D01*
X15601134Y-25200650D02*
X15629706Y-25200650D01*
X15629706Y-25200650D02*
X15648753Y-25210174D01*
X15648753Y-25210174D02*
X15658277Y-25219698D01*
X15658277Y-25219698D02*
X15667801Y-25238746D01*
X15667801Y-25238746D02*
X15667801Y-25295888D01*
X15667801Y-25295888D02*
X15658277Y-25314936D01*
X15658277Y-25314936D02*
X15648753Y-25324460D01*
X15648753Y-25324460D02*
X15629706Y-25333984D01*
X15629706Y-25333984D02*
X15601134Y-25333984D01*
X15782087Y-25333984D02*
X15763039Y-25324460D01*
X15763039Y-25324460D02*
X15753515Y-25305412D01*
X15753515Y-25305412D02*
X15753515Y-25133984D01*
X15934468Y-25324460D02*
X15915420Y-25333984D01*
X15915420Y-25333984D02*
X15877325Y-25333984D01*
X15877325Y-25333984D02*
X15858277Y-25324460D01*
X15858277Y-25324460D02*
X15848753Y-25305412D01*
X15848753Y-25305412D02*
X15848753Y-25229222D01*
X15848753Y-25229222D02*
X15858277Y-25210174D01*
X15858277Y-25210174D02*
X15877325Y-25200650D01*
X15877325Y-25200650D02*
X15915420Y-25200650D01*
X15915420Y-25200650D02*
X15934468Y-25210174D01*
X15934468Y-25210174D02*
X15943991Y-25229222D01*
X15943991Y-25229222D02*
X15943991Y-25248269D01*
X15943991Y-25248269D02*
X15848753Y-25267317D01*
X16020182Y-25324460D02*
X16039230Y-25333984D01*
X16039230Y-25333984D02*
X16077325Y-25333984D01*
X16077325Y-25333984D02*
X16096372Y-25324460D01*
X16096372Y-25324460D02*
X16105896Y-25305412D01*
X16105896Y-25305412D02*
X16105896Y-25295888D01*
X16105896Y-25295888D02*
X16096372Y-25276841D01*
X16096372Y-25276841D02*
X16077325Y-25267317D01*
X16077325Y-25267317D02*
X16048753Y-25267317D01*
X16048753Y-25267317D02*
X16029706Y-25257793D01*
X16029706Y-25257793D02*
X16020182Y-25238746D01*
X16020182Y-25238746D02*
X16020182Y-25229222D01*
X16020182Y-25229222D02*
X16029706Y-25210174D01*
X16029706Y-25210174D02*
X16048753Y-25200650D01*
X16048753Y-25200650D02*
X16077325Y-25200650D01*
X16077325Y-25200650D02*
X16096372Y-25210174D01*
X16172563Y-25410174D02*
X16182087Y-25400650D01*
X16182087Y-25400650D02*
X16201134Y-25372079D01*
X16201134Y-25372079D02*
X16210658Y-25353031D01*
X16210658Y-25353031D02*
X16220182Y-25324460D01*
X16220182Y-25324460D02*
X16229706Y-25276841D01*
X16229706Y-25276841D02*
X16229706Y-25238746D01*
X16229706Y-25238746D02*
X16220182Y-25191127D01*
X16220182Y-25191127D02*
X16210658Y-25162555D01*
X16210658Y-25162555D02*
X16201134Y-25143508D01*
X16201134Y-25143508D02*
X16182087Y-25114936D01*
X16182087Y-25114936D02*
X16172563Y-25105412D01*
X16534468Y-25410174D02*
X16524944Y-25400650D01*
X16524944Y-25400650D02*
X16505896Y-25372079D01*
X16505896Y-25372079D02*
X16496372Y-25353031D01*
X16496372Y-25353031D02*
X16486849Y-25324460D01*
X16486849Y-25324460D02*
X16477325Y-25276841D01*
X16477325Y-25276841D02*
X16477325Y-25238746D01*
X16477325Y-25238746D02*
X16486849Y-25191127D01*
X16486849Y-25191127D02*
X16496372Y-25162555D01*
X16496372Y-25162555D02*
X16505896Y-25143508D01*
X16505896Y-25143508D02*
X16524944Y-25114936D01*
X16524944Y-25114936D02*
X16534468Y-25105412D01*
X16610658Y-25200650D02*
X16610658Y-25333984D01*
X16610658Y-25219698D02*
X16620182Y-25210174D01*
X16620182Y-25210174D02*
X16639230Y-25200650D01*
X16639230Y-25200650D02*
X16667801Y-25200650D01*
X16667801Y-25200650D02*
X16686849Y-25210174D01*
X16686849Y-25210174D02*
X16696372Y-25229222D01*
X16696372Y-25229222D02*
X16696372Y-25333984D01*
X16820182Y-25333984D02*
X16801134Y-25324460D01*
X16801134Y-25324460D02*
X16791611Y-25314936D01*
X16791611Y-25314936D02*
X16782087Y-25295888D01*
X16782087Y-25295888D02*
X16782087Y-25238746D01*
X16782087Y-25238746D02*
X16791611Y-25219698D01*
X16791611Y-25219698D02*
X16801134Y-25210174D01*
X16801134Y-25210174D02*
X16820182Y-25200650D01*
X16820182Y-25200650D02*
X16848754Y-25200650D01*
X16848754Y-25200650D02*
X16867801Y-25210174D01*
X16867801Y-25210174D02*
X16877325Y-25219698D01*
X16877325Y-25219698D02*
X16886849Y-25238746D01*
X16886849Y-25238746D02*
X16886849Y-25295888D01*
X16886849Y-25295888D02*
X16877325Y-25314936D01*
X16877325Y-25314936D02*
X16867801Y-25324460D01*
X16867801Y-25324460D02*
X16848754Y-25333984D01*
X16848754Y-25333984D02*
X16820182Y-25333984D01*
X16943992Y-25200650D02*
X17020182Y-25200650D01*
X16972563Y-25133984D02*
X16972563Y-25305412D01*
X16972563Y-25305412D02*
X16982087Y-25324460D01*
X16982087Y-25324460D02*
X17001134Y-25333984D01*
X17001134Y-25333984D02*
X17020182Y-25333984D01*
X17239230Y-25200650D02*
X17239230Y-25400650D01*
X17239230Y-25210174D02*
X17258277Y-25200650D01*
X17258277Y-25200650D02*
X17296373Y-25200650D01*
X17296373Y-25200650D02*
X17315420Y-25210174D01*
X17315420Y-25210174D02*
X17324944Y-25219698D01*
X17324944Y-25219698D02*
X17334468Y-25238746D01*
X17334468Y-25238746D02*
X17334468Y-25295888D01*
X17334468Y-25295888D02*
X17324944Y-25314936D01*
X17324944Y-25314936D02*
X17315420Y-25324460D01*
X17315420Y-25324460D02*
X17296373Y-25333984D01*
X17296373Y-25333984D02*
X17258277Y-25333984D01*
X17258277Y-25333984D02*
X17239230Y-25324460D01*
X17448754Y-25333984D02*
X17429706Y-25324460D01*
X17429706Y-25324460D02*
X17420182Y-25305412D01*
X17420182Y-25305412D02*
X17420182Y-25133984D01*
X17610658Y-25333984D02*
X17610658Y-25229222D01*
X17610658Y-25229222D02*
X17601135Y-25210174D01*
X17601135Y-25210174D02*
X17582087Y-25200650D01*
X17582087Y-25200650D02*
X17543992Y-25200650D01*
X17543992Y-25200650D02*
X17524944Y-25210174D01*
X17610658Y-25324460D02*
X17591611Y-25333984D01*
X17591611Y-25333984D02*
X17543992Y-25333984D01*
X17543992Y-25333984D02*
X17524944Y-25324460D01*
X17524944Y-25324460D02*
X17515420Y-25305412D01*
X17515420Y-25305412D02*
X17515420Y-25286365D01*
X17515420Y-25286365D02*
X17524944Y-25267317D01*
X17524944Y-25267317D02*
X17543992Y-25257793D01*
X17543992Y-25257793D02*
X17591611Y-25257793D01*
X17591611Y-25257793D02*
X17610658Y-25248269D01*
X17677325Y-25200650D02*
X17753515Y-25200650D01*
X17705896Y-25133984D02*
X17705896Y-25305412D01*
X17705896Y-25305412D02*
X17715420Y-25324460D01*
X17715420Y-25324460D02*
X17734468Y-25333984D01*
X17734468Y-25333984D02*
X17753515Y-25333984D01*
X17896373Y-25324460D02*
X17877325Y-25333984D01*
X17877325Y-25333984D02*
X17839230Y-25333984D01*
X17839230Y-25333984D02*
X17820182Y-25324460D01*
X17820182Y-25324460D02*
X17810658Y-25305412D01*
X17810658Y-25305412D02*
X17810658Y-25229222D01*
X17810658Y-25229222D02*
X17820182Y-25210174D01*
X17820182Y-25210174D02*
X17839230Y-25200650D01*
X17839230Y-25200650D02*
X17877325Y-25200650D01*
X17877325Y-25200650D02*
X17896373Y-25210174D01*
X17896373Y-25210174D02*
X17905896Y-25229222D01*
X17905896Y-25229222D02*
X17905896Y-25248269D01*
X17905896Y-25248269D02*
X17810658Y-25267317D01*
X18077325Y-25333984D02*
X18077325Y-25133984D01*
X18077325Y-25324460D02*
X18058277Y-25333984D01*
X18058277Y-25333984D02*
X18020182Y-25333984D01*
X18020182Y-25333984D02*
X18001135Y-25324460D01*
X18001135Y-25324460D02*
X17991611Y-25314936D01*
X17991611Y-25314936D02*
X17982087Y-25295888D01*
X17982087Y-25295888D02*
X17982087Y-25238746D01*
X17982087Y-25238746D02*
X17991611Y-25219698D01*
X17991611Y-25219698D02*
X18001135Y-25210174D01*
X18001135Y-25210174D02*
X18020182Y-25200650D01*
X18020182Y-25200650D02*
X18058277Y-25200650D01*
X18058277Y-25200650D02*
X18077325Y-25210174D01*
X18153516Y-25410174D02*
X18163039Y-25400650D01*
X18163039Y-25400650D02*
X18182087Y-25372079D01*
X18182087Y-25372079D02*
X18191611Y-25353031D01*
X18191611Y-25353031D02*
X18201135Y-25324460D01*
X18201135Y-25324460D02*
X18210658Y-25276841D01*
X18210658Y-25276841D02*
X18210658Y-25238746D01*
X18210658Y-25238746D02*
X18201135Y-25191127D01*
X18201135Y-25191127D02*
X18191611Y-25162555D01*
X18191611Y-25162555D02*
X18182087Y-25143508D01*
X18182087Y-25143508D02*
X18163039Y-25114936D01*
X18163039Y-25114936D02*
X18153516Y-25105412D01*
M02*
