%TF.GenerationSoftware,KiCad,Pcbnew,8.0.7*%
%TF.CreationDate,2025-02-08T00:47:40+09:00*%
%TF.ProjectId,LINESensorV1,4c494e45-5365-46e7-936f-7256312e6b69,rev?*%
%TF.SameCoordinates,Original*%
%TF.FileFunction,Drillmap*%
%TF.FilePolarity,Positive*%
%FSLAX45Y45*%
G04 Gerber Fmt 4.5, Leading zero omitted, Abs format (unit mm)*
G04 Created by KiCad (PCBNEW 8.0.7) date 2025-02-08 00:47:40*
%MOMM*%
%LPD*%
G01*
G04 APERTURE LIST*
%ADD10C,0.050000*%
%ADD11C,0.200000*%
%ADD12C,0.100000*%
G04 APERTURE END LIST*
D10*
X21500000Y-5901000D02*
X21500000Y-6715000D01*
X12930081Y-14300007D02*
G75*
G02*
X20300566Y-6930033I8069919J-699993D01*
G01*
X27000000Y-15000000D02*
G75*
G02*
X15000000Y-15000000I-6000000J0D01*
G01*
X15000000Y-15000000D02*
G75*
G02*
X27000000Y-15000000I6000000J0D01*
G01*
X12930033Y-15699437D02*
G75*
G02*
X12715000Y-15501000I-15033J199437D01*
G01*
X20500000Y-5901000D02*
G75*
G02*
X21500000Y-5901000I500000J1000D01*
G01*
X21699441Y-6929951D02*
G75*
G02*
X29070000Y-14300000I-699441J-8070048D01*
G01*
X11900000Y-15500000D02*
G75*
G02*
X11900000Y-14500000I0J500000D01*
G01*
X20500000Y-5901000D02*
X20500000Y-6715000D01*
X29070000Y-14300000D02*
G75*
G02*
X29285562Y-14500000I15000J-200000D01*
G01*
X20300493Y-23070964D02*
G75*
G02*
X12929037Y-15699523I699507J8070964D01*
G01*
X21500000Y-6715000D02*
G75*
G02*
X21699440Y-6929958I0J-200000D01*
G01*
X30100000Y-15500000D02*
X29285562Y-15500000D01*
X21700000Y-23070000D02*
G75*
G02*
X21500000Y-23285562I-200000J-15000D01*
G01*
X29285562Y-15500000D02*
G75*
G02*
X29070000Y-15700000I-200562J0D01*
G01*
X20500000Y-23285000D02*
G75*
G02*
X20300493Y-23070964I0J200000D01*
G01*
X30100000Y-14500000D02*
X29285562Y-14500000D01*
X12715000Y-15501000D02*
X11900000Y-15500000D01*
X21500000Y-24100000D02*
G75*
G02*
X20500000Y-24100000I-500000J0D01*
G01*
X11900000Y-14500000D02*
X12714441Y-14499002D01*
X30100000Y-14500000D02*
G75*
G02*
X30100000Y-15500000I0J-500000D01*
G01*
X29070000Y-15700000D02*
G75*
G02*
X21700000Y-23070000I-8070000J700000D01*
G01*
X21500000Y-23285562D02*
X21500000Y-24100000D01*
X12714441Y-14499002D02*
G75*
G02*
X12930000Y-14300000I200559J-998D01*
G01*
X20500000Y-23285000D02*
X20500000Y-24100000D01*
X20300566Y-6930033D02*
G75*
G02*
X20500000Y-6715000I199434J15033D01*
G01*
D11*
D12*
X13155000Y-15025000D02*
X13185000Y-15055000D01*
X13185000Y-15025000D02*
X13155000Y-15055000D01*
X13285000Y-13765000D02*
X13315000Y-13795000D01*
X13315000Y-13765000D02*
X13285000Y-13795000D01*
X13505000Y-16985000D02*
X13535000Y-17015000D01*
X13535000Y-16985000D02*
X13505000Y-17015000D01*
X13535000Y-15725000D02*
X13565000Y-15755000D01*
X13565000Y-15725000D02*
X13535000Y-15755000D01*
X13605000Y-12495000D02*
X13635000Y-12525000D01*
X13635000Y-12495000D02*
X13605000Y-12525000D01*
X13705000Y-14015000D02*
X13735000Y-14045000D01*
X13735000Y-14015000D02*
X13705000Y-14045000D01*
X13925000Y-17775000D02*
X13955000Y-17805000D01*
X13955000Y-17775000D02*
X13925000Y-17805000D01*
X13965000Y-18355000D02*
X13995000Y-18385000D01*
X13995000Y-18355000D02*
X13965000Y-18385000D01*
X14005000Y-11885000D02*
X14035000Y-11915000D01*
X14035000Y-11885000D02*
X14005000Y-11915000D01*
X14195000Y-12395000D02*
X14225000Y-12425000D01*
X14225000Y-12395000D02*
X14195000Y-12425000D01*
X14335000Y-19105000D02*
X14365000Y-19135000D01*
X14365000Y-19105000D02*
X14335000Y-19135000D01*
X14375000Y-18665000D02*
X14405000Y-18695000D01*
X14405000Y-18665000D02*
X14375000Y-18695000D01*
X14485000Y-12095000D02*
X14515000Y-12125000D01*
X14515000Y-12095000D02*
X14485000Y-12125000D01*
X14645000Y-10785000D02*
X14675000Y-10815000D01*
X14675000Y-10785000D02*
X14645000Y-10815000D01*
X14695000Y-15675000D02*
X14725000Y-15705000D01*
X14725000Y-15675000D02*
X14695000Y-15705000D01*
X14725000Y-19185000D02*
X14755000Y-19215000D01*
X14755000Y-19185000D02*
X14725000Y-19215000D01*
X14765000Y-14445000D02*
X14795000Y-14475000D01*
X14795000Y-14445000D02*
X14765000Y-14475000D01*
X14905000Y-19905000D02*
X14935000Y-19935000D01*
X14935000Y-19905000D02*
X14905000Y-19935000D01*
X14975000Y-10115000D02*
X15005000Y-10145000D01*
X15005000Y-10115000D02*
X14975000Y-10145000D01*
X14995000Y-13325000D02*
X15025000Y-13355000D01*
X15025000Y-13325000D02*
X14995000Y-13355000D01*
X15005000Y-16765000D02*
X15035000Y-16795000D01*
X15035000Y-16765000D02*
X15005000Y-16795000D01*
X15285000Y-12265000D02*
X15315000Y-12295000D01*
X15315000Y-12265000D02*
X15285000Y-12295000D01*
X15445000Y-17855000D02*
X15475000Y-17885000D01*
X15475000Y-17855000D02*
X15445000Y-17885000D01*
X15555000Y-20285000D02*
X15585000Y-20315000D01*
X15585000Y-20285000D02*
X15555000Y-20315000D01*
X15575000Y-9415000D02*
X15605000Y-9445000D01*
X15605000Y-9415000D02*
X15575000Y-9445000D01*
X15645000Y-11425000D02*
X15675000Y-11455000D01*
X15675000Y-11425000D02*
X15645000Y-11455000D01*
X15945000Y-18625000D02*
X15975000Y-18655000D01*
X15975000Y-18625000D02*
X15945000Y-18655000D01*
X15995000Y-20675000D02*
X16025000Y-20705000D01*
X16025000Y-20675000D02*
X15995000Y-20705000D01*
X16155000Y-10895000D02*
X16185000Y-10925000D01*
X16185000Y-10895000D02*
X16155000Y-10925000D01*
X16275000Y-21155000D02*
X16305000Y-21185000D01*
X16305000Y-21155000D02*
X16275000Y-21185000D01*
X16375000Y-8835000D02*
X16405000Y-8865000D01*
X16405000Y-8835000D02*
X16375000Y-8865000D01*
X16625000Y-10265000D02*
X16655000Y-10295000D01*
X16655000Y-10265000D02*
X16625000Y-10295000D01*
X16665000Y-19315000D02*
X16695000Y-19345000D01*
X16695000Y-19315000D02*
X16665000Y-19345000D01*
X16755000Y-21395000D02*
X16785000Y-21425000D01*
X16785000Y-21395000D02*
X16755000Y-21425000D01*
X16825000Y-8295000D02*
X16855000Y-8325000D01*
X16855000Y-8295000D02*
X16825000Y-8325000D01*
X17095000Y-21815000D02*
X17125000Y-21845000D01*
X17125000Y-21815000D02*
X17095000Y-21845000D01*
X17165000Y-19955000D02*
X17195000Y-19985000D01*
X17195000Y-19955000D02*
X17165000Y-19985000D01*
X17415000Y-8225000D02*
X17445000Y-8255000D01*
X17445000Y-8225000D02*
X17415000Y-8255000D01*
X17805000Y-9535000D02*
X17835000Y-9565000D01*
X17835000Y-9535000D02*
X17805000Y-9565000D01*
X17805000Y-21845000D02*
X17835000Y-21875000D01*
X17835000Y-21845000D02*
X17805000Y-21875000D01*
X18145000Y-20435000D02*
X18175000Y-20465000D01*
X18175000Y-20435000D02*
X18145000Y-20465000D01*
X18195000Y-7805000D02*
X18225000Y-7835000D01*
X18225000Y-7805000D02*
X18195000Y-7835000D01*
X18545000Y-22255000D02*
X18575000Y-22285000D01*
X18575000Y-22255000D02*
X18545000Y-22285000D01*
X18735000Y-9145000D02*
X18765000Y-9175000D01*
X18765000Y-9145000D02*
X18735000Y-9175000D01*
X19145000Y-7505000D02*
X19175000Y-7535000D01*
X19175000Y-7505000D02*
X19145000Y-7535000D01*
X19335000Y-20995000D02*
X19365000Y-21025000D01*
X19365000Y-20995000D02*
X19335000Y-21025000D01*
X19435000Y-22605000D02*
X19465000Y-22635000D01*
X19465000Y-22605000D02*
X19435000Y-22635000D01*
X19585000Y-8835000D02*
X19615000Y-8865000D01*
X19615000Y-8835000D02*
X19585000Y-8865000D01*
X19805000Y-7355000D02*
X19835000Y-7385000D01*
X19835000Y-7355000D02*
X19805000Y-7385000D01*
X20175000Y-22345000D02*
X20205000Y-22375000D01*
X20205000Y-22345000D02*
X20175000Y-22375000D01*
X20245000Y-7385000D02*
X20275000Y-7415000D01*
X20275000Y-7385000D02*
X20245000Y-7415000D01*
X20275000Y-8775000D02*
X20305000Y-8805000D01*
X20305000Y-8775000D02*
X20275000Y-8805000D01*
X20635000Y-21335000D02*
X20665000Y-21365000D01*
X20665000Y-21335000D02*
X20635000Y-21365000D01*
X20945000Y-7325000D02*
X20975000Y-7355000D01*
X20975000Y-7325000D02*
X20945000Y-7355000D01*
X20985000Y-22735000D02*
X21015000Y-22765000D01*
X21015000Y-22735000D02*
X20985000Y-22765000D01*
X21875000Y-21235000D02*
X21905000Y-21265000D01*
X21905000Y-21235000D02*
X21875000Y-21265000D01*
X21905000Y-7405000D02*
X21935000Y-7435000D01*
X21935000Y-7405000D02*
X21905000Y-7435000D01*
X21935000Y-22735000D02*
X21965000Y-22765000D01*
X21965000Y-22735000D02*
X21935000Y-22765000D01*
X22145000Y-22465000D02*
X22175000Y-22495000D01*
X22175000Y-22465000D02*
X22145000Y-22495000D01*
X22715000Y-7385000D02*
X22745000Y-7415000D01*
X22745000Y-7385000D02*
X22715000Y-7415000D01*
X22725000Y-22565000D02*
X22755000Y-22595000D01*
X22755000Y-22565000D02*
X22725000Y-22595000D01*
X22925000Y-20875000D02*
X22955000Y-20905000D01*
X22955000Y-20875000D02*
X22925000Y-20905000D01*
X23075000Y-22075000D02*
X23105000Y-22105000D01*
X23105000Y-22075000D02*
X23075000Y-22105000D01*
X23495000Y-7665000D02*
X23525000Y-7695000D01*
X23525000Y-7665000D02*
X23495000Y-7695000D01*
X23755000Y-22285000D02*
X23785000Y-22315000D01*
X23785000Y-22285000D02*
X23755000Y-22315000D01*
X23935000Y-20515000D02*
X23965000Y-20545000D01*
X23965000Y-20515000D02*
X23935000Y-20545000D01*
X24075000Y-9455000D02*
X24105000Y-9485000D01*
X24105000Y-9455000D02*
X24075000Y-9485000D01*
X24105000Y-7855000D02*
X24135000Y-7885000D01*
X24135000Y-7855000D02*
X24105000Y-7885000D01*
X24105000Y-21865000D02*
X24135000Y-21895000D01*
X24135000Y-21865000D02*
X24105000Y-21895000D01*
X24575000Y-20185000D02*
X24605000Y-20215000D01*
X24605000Y-20185000D02*
X24575000Y-20215000D01*
X24605000Y-21825000D02*
X24635000Y-21855000D01*
X24635000Y-21825000D02*
X24605000Y-21855000D01*
X24825000Y-8255000D02*
X24855000Y-8285000D01*
X24855000Y-8255000D02*
X24825000Y-8285000D01*
X24895000Y-10045000D02*
X24925000Y-10075000D01*
X24925000Y-10045000D02*
X24895000Y-10075000D01*
X25425000Y-8785000D02*
X25455000Y-8815000D01*
X25455000Y-8785000D02*
X25425000Y-8815000D01*
X25425000Y-21185000D02*
X25455000Y-21215000D01*
X25455000Y-21185000D02*
X25425000Y-21215000D01*
X25535000Y-19375000D02*
X25565000Y-19405000D01*
X25565000Y-19375000D02*
X25535000Y-19405000D01*
X25725000Y-10755000D02*
X25755000Y-10785000D01*
X25755000Y-10755000D02*
X25725000Y-10785000D01*
X26095000Y-11535000D02*
X26125000Y-11565000D01*
X26125000Y-11535000D02*
X26095000Y-11565000D01*
X26095000Y-20605000D02*
X26125000Y-20635000D01*
X26125000Y-20605000D02*
X26095000Y-20635000D01*
X26135000Y-18325000D02*
X26165000Y-18355000D01*
X26165000Y-18325000D02*
X26135000Y-18355000D01*
X26365000Y-9545000D02*
X26395000Y-9575000D01*
X26395000Y-9545000D02*
X26365000Y-9575000D01*
X26725000Y-17625000D02*
X26755000Y-17655000D01*
X26755000Y-17625000D02*
X26725000Y-17655000D01*
X26855000Y-12685000D02*
X26885000Y-12715000D01*
X26885000Y-12685000D02*
X26855000Y-12715000D01*
X26875000Y-19935000D02*
X26905000Y-19965000D01*
X26905000Y-19935000D02*
X26875000Y-19965000D01*
X26985000Y-10155000D02*
X27015000Y-10185000D01*
X27015000Y-10155000D02*
X26985000Y-10185000D01*
X27105000Y-13955000D02*
X27135000Y-13985000D01*
X27135000Y-13955000D02*
X27105000Y-13985000D01*
X27165000Y-16145000D02*
X27195000Y-16175000D01*
X27195000Y-16145000D02*
X27165000Y-16175000D01*
X27285000Y-14875000D02*
X27315000Y-14905000D01*
X27315000Y-14875000D02*
X27285000Y-14905000D01*
X27345000Y-19445000D02*
X27375000Y-19475000D01*
X27375000Y-19445000D02*
X27345000Y-19475000D01*
X27625000Y-18835000D02*
X27655000Y-18865000D01*
X27655000Y-18835000D02*
X27625000Y-18865000D01*
X27655000Y-11065000D02*
X27685000Y-11095000D01*
X27685000Y-11065000D02*
X27655000Y-11095000D01*
X28075000Y-12055000D02*
X28105000Y-12085000D01*
X28105000Y-12055000D02*
X28075000Y-12085000D01*
X28325000Y-17595000D02*
X28355000Y-17625000D01*
X28355000Y-17595000D02*
X28325000Y-17625000D01*
X28515000Y-16825000D02*
X28545000Y-16855000D01*
X28545000Y-16825000D02*
X28515000Y-16855000D01*
X28595000Y-13215000D02*
X28625000Y-13245000D01*
X28625000Y-13215000D02*
X28595000Y-13245000D01*
X28615000Y-16115000D02*
X28645000Y-16145000D01*
X28645000Y-16115000D02*
X28615000Y-16145000D01*
X28765000Y-15275000D02*
X28795000Y-15305000D01*
X28795000Y-15275000D02*
X28765000Y-15305000D01*
X28815000Y-14305000D02*
X28845000Y-14335000D01*
X28845000Y-14305000D02*
X28815000Y-14335000D01*
X22549310Y-8868520D02*
G75*
G02*
X22469310Y-8868520I-40000J0D01*
G01*
X22469310Y-8868520D02*
G75*
G02*
X22549310Y-8868520I40000J0D01*
G01*
X23530690Y-9131480D02*
G75*
G02*
X23450690Y-9131480I-40000J0D01*
G01*
X23450690Y-9131480D02*
G75*
G02*
X23530690Y-9131480I40000J0D01*
G01*
X14000000Y-14828500D02*
X14000000Y-14918500D01*
X13955000Y-14873500D02*
X14045000Y-14873500D01*
X14000000Y-15082500D02*
X14000000Y-15172500D01*
X13955000Y-15127500D02*
X14045000Y-15127500D01*
X14238519Y-13016767D02*
X14238519Y-13106767D01*
X14193519Y-13061767D02*
X14283519Y-13061767D01*
X14238519Y-13270767D02*
X14238519Y-13360767D01*
X14193519Y-13315767D02*
X14283519Y-13315767D01*
X14238519Y-16640233D02*
X14238519Y-16730233D01*
X14193519Y-16685233D02*
X14283519Y-16685233D01*
X14238519Y-16894233D02*
X14238519Y-16984233D01*
X14193519Y-16939233D02*
X14283519Y-16939233D01*
X14937822Y-11328500D02*
X14937822Y-11418500D01*
X14892822Y-11373500D02*
X14982822Y-11373500D01*
X14937822Y-11582500D02*
X14937822Y-11672500D01*
X14892822Y-11627500D02*
X14982822Y-11627500D01*
X14937822Y-18328500D02*
X14937822Y-18418500D01*
X14892822Y-18373500D02*
X14982822Y-18373500D01*
X14937822Y-18582500D02*
X14937822Y-18672500D01*
X14892822Y-18627500D02*
X14982822Y-18627500D01*
X16050252Y-9878753D02*
X16050252Y-9968753D01*
X16005252Y-9923753D02*
X16095252Y-9923753D01*
X16050252Y-10132753D02*
X16050252Y-10222753D01*
X16005252Y-10177753D02*
X16095252Y-10177753D01*
X16050252Y-19778248D02*
X16050252Y-19868248D01*
X16005252Y-19823248D02*
X16095252Y-19823248D01*
X16050252Y-20032248D02*
X16050252Y-20122248D01*
X16005252Y-20077248D02*
X16095252Y-20077248D01*
X17500000Y-8766322D02*
X17500000Y-8856322D01*
X17455000Y-8811322D02*
X17545000Y-8811322D01*
X17500000Y-9020322D02*
X17500000Y-9110322D01*
X17455000Y-9065322D02*
X17545000Y-9065322D01*
X17500000Y-20890678D02*
X17500000Y-20980678D01*
X17455000Y-20935678D02*
X17545000Y-20935678D01*
X17500000Y-21144678D02*
X17500000Y-21234678D01*
X17455000Y-21189678D02*
X17545000Y-21189678D01*
X19188267Y-8067019D02*
X19188267Y-8157019D01*
X19143267Y-8112019D02*
X19233267Y-8112019D01*
X19188267Y-8321019D02*
X19188267Y-8411019D01*
X19143267Y-8366019D02*
X19233267Y-8366019D01*
X19188267Y-21589981D02*
X19188267Y-21679981D01*
X19143267Y-21634981D02*
X19233267Y-21634981D01*
X19188267Y-21843981D02*
X19188267Y-21933981D01*
X19143267Y-21888981D02*
X19233267Y-21888981D01*
X21000000Y-7828500D02*
X21000000Y-7918500D01*
X20955000Y-7873500D02*
X21045000Y-7873500D01*
X21000000Y-8082500D02*
X21000000Y-8172500D01*
X20955000Y-8127500D02*
X21045000Y-8127500D01*
X21000000Y-21828500D02*
X21000000Y-21918500D01*
X20955000Y-21873500D02*
X21045000Y-21873500D01*
X21000000Y-22082500D02*
X21000000Y-22172500D01*
X20955000Y-22127500D02*
X21045000Y-22127500D01*
X22811733Y-8067019D02*
X22811733Y-8157019D01*
X22766733Y-8112019D02*
X22856733Y-8112019D01*
X22811733Y-8321019D02*
X22811733Y-8411019D01*
X22766733Y-8366019D02*
X22856733Y-8366019D01*
X22811733Y-21589981D02*
X22811733Y-21679981D01*
X22766733Y-21634981D02*
X22856733Y-21634981D01*
X22811733Y-21843981D02*
X22811733Y-21933981D01*
X22766733Y-21888981D02*
X22856733Y-21888981D01*
X24500000Y-8766322D02*
X24500000Y-8856322D01*
X24455000Y-8811322D02*
X24545000Y-8811322D01*
X24500000Y-9020322D02*
X24500000Y-9110322D01*
X24455000Y-9065322D02*
X24545000Y-9065322D01*
X24500000Y-20890678D02*
X24500000Y-20980678D01*
X24455000Y-20935678D02*
X24545000Y-20935678D01*
X24500000Y-21144678D02*
X24500000Y-21234678D01*
X24455000Y-21189678D02*
X24545000Y-21189678D01*
X25949747Y-9878753D02*
X25949747Y-9968753D01*
X25904747Y-9923753D02*
X25994747Y-9923753D01*
X25949747Y-10132753D02*
X25949747Y-10222753D01*
X25904747Y-10177753D02*
X25994747Y-10177753D01*
X25949747Y-19778248D02*
X25949747Y-19868248D01*
X25904747Y-19823248D02*
X25994747Y-19823248D01*
X25949747Y-20032248D02*
X25949747Y-20122248D01*
X25904747Y-20077248D02*
X25994747Y-20077248D01*
X27062178Y-11328500D02*
X27062178Y-11418500D01*
X27017178Y-11373500D02*
X27107178Y-11373500D01*
X27062178Y-11582500D02*
X27062178Y-11672500D01*
X27017178Y-11627500D02*
X27107178Y-11627500D01*
X27062178Y-18328500D02*
X27062178Y-18418500D01*
X27017178Y-18373500D02*
X27107178Y-18373500D01*
X27062178Y-18582500D02*
X27062178Y-18672500D01*
X27017178Y-18627500D02*
X27107178Y-18627500D01*
X27761481Y-13016767D02*
X27761481Y-13106767D01*
X27716481Y-13061767D02*
X27806481Y-13061767D01*
X27761481Y-13270767D02*
X27761481Y-13360767D01*
X27716481Y-13315767D02*
X27806481Y-13315767D01*
X27761481Y-16640233D02*
X27761481Y-16730233D01*
X27716481Y-16685233D02*
X27806481Y-16685233D01*
X27761481Y-16894233D02*
X27761481Y-16984233D01*
X27716481Y-16939233D02*
X27806481Y-16939233D01*
X28000000Y-14828500D02*
X28000000Y-14918500D01*
X27955000Y-14873500D02*
X28045000Y-14873500D01*
X28000000Y-15082500D02*
X28000000Y-15172500D01*
X27955000Y-15127500D02*
X28045000Y-15127500D01*
X20908856Y-8785356D02*
X20908856Y-8714644D01*
X20838144Y-8714644D01*
X20838144Y-8785356D01*
X20908856Y-8785356D01*
X21162856Y-8785356D02*
X21162856Y-8714644D01*
X21092144Y-8714644D01*
X21092144Y-8785356D01*
X21162856Y-8785356D01*
D11*
X11658277Y-24913984D02*
X11658277Y-24713984D01*
X11658277Y-24713984D02*
X11705896Y-24713984D01*
X11705896Y-24713984D02*
X11734467Y-24723508D01*
X11734467Y-24723508D02*
X11753515Y-24742555D01*
X11753515Y-24742555D02*
X11763039Y-24761603D01*
X11763039Y-24761603D02*
X11772562Y-24799698D01*
X11772562Y-24799698D02*
X11772562Y-24828269D01*
X11772562Y-24828269D02*
X11763039Y-24866365D01*
X11763039Y-24866365D02*
X11753515Y-24885412D01*
X11753515Y-24885412D02*
X11734467Y-24904460D01*
X11734467Y-24904460D02*
X11705896Y-24913984D01*
X11705896Y-24913984D02*
X11658277Y-24913984D01*
X11858277Y-24913984D02*
X11858277Y-24780650D01*
X11858277Y-24818746D02*
X11867801Y-24799698D01*
X11867801Y-24799698D02*
X11877324Y-24790174D01*
X11877324Y-24790174D02*
X11896372Y-24780650D01*
X11896372Y-24780650D02*
X11915420Y-24780650D01*
X11982086Y-24913984D02*
X11982086Y-24780650D01*
X11982086Y-24713984D02*
X11972562Y-24723508D01*
X11972562Y-24723508D02*
X11982086Y-24733031D01*
X11982086Y-24733031D02*
X11991610Y-24723508D01*
X11991610Y-24723508D02*
X11982086Y-24713984D01*
X11982086Y-24713984D02*
X11982086Y-24733031D01*
X12105896Y-24913984D02*
X12086848Y-24904460D01*
X12086848Y-24904460D02*
X12077324Y-24885412D01*
X12077324Y-24885412D02*
X12077324Y-24713984D01*
X12210658Y-24913984D02*
X12191610Y-24904460D01*
X12191610Y-24904460D02*
X12182086Y-24885412D01*
X12182086Y-24885412D02*
X12182086Y-24713984D01*
X12439229Y-24913984D02*
X12439229Y-24713984D01*
X12439229Y-24713984D02*
X12505896Y-24856841D01*
X12505896Y-24856841D02*
X12572562Y-24713984D01*
X12572562Y-24713984D02*
X12572562Y-24913984D01*
X12753515Y-24913984D02*
X12753515Y-24809222D01*
X12753515Y-24809222D02*
X12743991Y-24790174D01*
X12743991Y-24790174D02*
X12724943Y-24780650D01*
X12724943Y-24780650D02*
X12686848Y-24780650D01*
X12686848Y-24780650D02*
X12667801Y-24790174D01*
X12753515Y-24904460D02*
X12734467Y-24913984D01*
X12734467Y-24913984D02*
X12686848Y-24913984D01*
X12686848Y-24913984D02*
X12667801Y-24904460D01*
X12667801Y-24904460D02*
X12658277Y-24885412D01*
X12658277Y-24885412D02*
X12658277Y-24866365D01*
X12658277Y-24866365D02*
X12667801Y-24847317D01*
X12667801Y-24847317D02*
X12686848Y-24837793D01*
X12686848Y-24837793D02*
X12734467Y-24837793D01*
X12734467Y-24837793D02*
X12753515Y-24828269D01*
X12848753Y-24780650D02*
X12848753Y-24980650D01*
X12848753Y-24790174D02*
X12867801Y-24780650D01*
X12867801Y-24780650D02*
X12905896Y-24780650D01*
X12905896Y-24780650D02*
X12924943Y-24790174D01*
X12924943Y-24790174D02*
X12934467Y-24799698D01*
X12934467Y-24799698D02*
X12943991Y-24818746D01*
X12943991Y-24818746D02*
X12943991Y-24875888D01*
X12943991Y-24875888D02*
X12934467Y-24894936D01*
X12934467Y-24894936D02*
X12924943Y-24904460D01*
X12924943Y-24904460D02*
X12905896Y-24913984D01*
X12905896Y-24913984D02*
X12867801Y-24913984D01*
X12867801Y-24913984D02*
X12848753Y-24904460D01*
X13029705Y-24894936D02*
X13039229Y-24904460D01*
X13039229Y-24904460D02*
X13029705Y-24913984D01*
X13029705Y-24913984D02*
X13020182Y-24904460D01*
X13020182Y-24904460D02*
X13029705Y-24894936D01*
X13029705Y-24894936D02*
X13029705Y-24913984D01*
X13029705Y-24790174D02*
X13039229Y-24799698D01*
X13039229Y-24799698D02*
X13029705Y-24809222D01*
X13029705Y-24809222D02*
X13020182Y-24799698D01*
X13020182Y-24799698D02*
X13029705Y-24790174D01*
X13029705Y-24790174D02*
X13029705Y-24809222D01*
D12*
X11367500Y-25227500D02*
X11397500Y-25257500D01*
X11397500Y-25227500D02*
X11367500Y-25257500D01*
D11*
X11696372Y-25133984D02*
X11715420Y-25133984D01*
X11715420Y-25133984D02*
X11734467Y-25143508D01*
X11734467Y-25143508D02*
X11743991Y-25153031D01*
X11743991Y-25153031D02*
X11753515Y-25172079D01*
X11753515Y-25172079D02*
X11763039Y-25210174D01*
X11763039Y-25210174D02*
X11763039Y-25257793D01*
X11763039Y-25257793D02*
X11753515Y-25295888D01*
X11753515Y-25295888D02*
X11743991Y-25314936D01*
X11743991Y-25314936D02*
X11734467Y-25324460D01*
X11734467Y-25324460D02*
X11715420Y-25333984D01*
X11715420Y-25333984D02*
X11696372Y-25333984D01*
X11696372Y-25333984D02*
X11677324Y-25324460D01*
X11677324Y-25324460D02*
X11667801Y-25314936D01*
X11667801Y-25314936D02*
X11658277Y-25295888D01*
X11658277Y-25295888D02*
X11648753Y-25257793D01*
X11648753Y-25257793D02*
X11648753Y-25210174D01*
X11648753Y-25210174D02*
X11658277Y-25172079D01*
X11658277Y-25172079D02*
X11667801Y-25153031D01*
X11667801Y-25153031D02*
X11677324Y-25143508D01*
X11677324Y-25143508D02*
X11696372Y-25133984D01*
X11848753Y-25314936D02*
X11858277Y-25324460D01*
X11858277Y-25324460D02*
X11848753Y-25333984D01*
X11848753Y-25333984D02*
X11839229Y-25324460D01*
X11839229Y-25324460D02*
X11848753Y-25314936D01*
X11848753Y-25314936D02*
X11848753Y-25333984D01*
X11924943Y-25133984D02*
X12048753Y-25133984D01*
X12048753Y-25133984D02*
X11982086Y-25210174D01*
X11982086Y-25210174D02*
X12010658Y-25210174D01*
X12010658Y-25210174D02*
X12029705Y-25219698D01*
X12029705Y-25219698D02*
X12039229Y-25229222D01*
X12039229Y-25229222D02*
X12048753Y-25248269D01*
X12048753Y-25248269D02*
X12048753Y-25295888D01*
X12048753Y-25295888D02*
X12039229Y-25314936D01*
X12039229Y-25314936D02*
X12029705Y-25324460D01*
X12029705Y-25324460D02*
X12010658Y-25333984D01*
X12010658Y-25333984D02*
X11953515Y-25333984D01*
X11953515Y-25333984D02*
X11934467Y-25324460D01*
X11934467Y-25324460D02*
X11924943Y-25314936D01*
X12172562Y-25133984D02*
X12191610Y-25133984D01*
X12191610Y-25133984D02*
X12210658Y-25143508D01*
X12210658Y-25143508D02*
X12220182Y-25153031D01*
X12220182Y-25153031D02*
X12229705Y-25172079D01*
X12229705Y-25172079D02*
X12239229Y-25210174D01*
X12239229Y-25210174D02*
X12239229Y-25257793D01*
X12239229Y-25257793D02*
X12229705Y-25295888D01*
X12229705Y-25295888D02*
X12220182Y-25314936D01*
X12220182Y-25314936D02*
X12210658Y-25324460D01*
X12210658Y-25324460D02*
X12191610Y-25333984D01*
X12191610Y-25333984D02*
X12172562Y-25333984D01*
X12172562Y-25333984D02*
X12153515Y-25324460D01*
X12153515Y-25324460D02*
X12143991Y-25314936D01*
X12143991Y-25314936D02*
X12134467Y-25295888D01*
X12134467Y-25295888D02*
X12124943Y-25257793D01*
X12124943Y-25257793D02*
X12124943Y-25210174D01*
X12124943Y-25210174D02*
X12134467Y-25172079D01*
X12134467Y-25172079D02*
X12143991Y-25153031D01*
X12143991Y-25153031D02*
X12153515Y-25143508D01*
X12153515Y-25143508D02*
X12172562Y-25133984D01*
X12363039Y-25133984D02*
X12382086Y-25133984D01*
X12382086Y-25133984D02*
X12401134Y-25143508D01*
X12401134Y-25143508D02*
X12410658Y-25153031D01*
X12410658Y-25153031D02*
X12420182Y-25172079D01*
X12420182Y-25172079D02*
X12429705Y-25210174D01*
X12429705Y-25210174D02*
X12429705Y-25257793D01*
X12429705Y-25257793D02*
X12420182Y-25295888D01*
X12420182Y-25295888D02*
X12410658Y-25314936D01*
X12410658Y-25314936D02*
X12401134Y-25324460D01*
X12401134Y-25324460D02*
X12382086Y-25333984D01*
X12382086Y-25333984D02*
X12363039Y-25333984D01*
X12363039Y-25333984D02*
X12343991Y-25324460D01*
X12343991Y-25324460D02*
X12334467Y-25314936D01*
X12334467Y-25314936D02*
X12324943Y-25295888D01*
X12324943Y-25295888D02*
X12315420Y-25257793D01*
X12315420Y-25257793D02*
X12315420Y-25210174D01*
X12315420Y-25210174D02*
X12324943Y-25172079D01*
X12324943Y-25172079D02*
X12334467Y-25153031D01*
X12334467Y-25153031D02*
X12343991Y-25143508D01*
X12343991Y-25143508D02*
X12363039Y-25133984D01*
X12515420Y-25333984D02*
X12515420Y-25200650D01*
X12515420Y-25219698D02*
X12524943Y-25210174D01*
X12524943Y-25210174D02*
X12543991Y-25200650D01*
X12543991Y-25200650D02*
X12572563Y-25200650D01*
X12572563Y-25200650D02*
X12591610Y-25210174D01*
X12591610Y-25210174D02*
X12601134Y-25229222D01*
X12601134Y-25229222D02*
X12601134Y-25333984D01*
X12601134Y-25229222D02*
X12610658Y-25210174D01*
X12610658Y-25210174D02*
X12629705Y-25200650D01*
X12629705Y-25200650D02*
X12658277Y-25200650D01*
X12658277Y-25200650D02*
X12677324Y-25210174D01*
X12677324Y-25210174D02*
X12686848Y-25229222D01*
X12686848Y-25229222D02*
X12686848Y-25333984D01*
X12782086Y-25333984D02*
X12782086Y-25200650D01*
X12782086Y-25219698D02*
X12791610Y-25210174D01*
X12791610Y-25210174D02*
X12810658Y-25200650D01*
X12810658Y-25200650D02*
X12839229Y-25200650D01*
X12839229Y-25200650D02*
X12858277Y-25210174D01*
X12858277Y-25210174D02*
X12867801Y-25229222D01*
X12867801Y-25229222D02*
X12867801Y-25333984D01*
X12867801Y-25229222D02*
X12877324Y-25210174D01*
X12877324Y-25210174D02*
X12896372Y-25200650D01*
X12896372Y-25200650D02*
X12924943Y-25200650D01*
X12924943Y-25200650D02*
X12943991Y-25210174D01*
X12943991Y-25210174D02*
X12953515Y-25229222D01*
X12953515Y-25229222D02*
X12953515Y-25333984D01*
X13343991Y-25124460D02*
X13172563Y-25381603D01*
X13601134Y-25133984D02*
X13620182Y-25133984D01*
X13620182Y-25133984D02*
X13639229Y-25143508D01*
X13639229Y-25143508D02*
X13648753Y-25153031D01*
X13648753Y-25153031D02*
X13658277Y-25172079D01*
X13658277Y-25172079D02*
X13667801Y-25210174D01*
X13667801Y-25210174D02*
X13667801Y-25257793D01*
X13667801Y-25257793D02*
X13658277Y-25295888D01*
X13658277Y-25295888D02*
X13648753Y-25314936D01*
X13648753Y-25314936D02*
X13639229Y-25324460D01*
X13639229Y-25324460D02*
X13620182Y-25333984D01*
X13620182Y-25333984D02*
X13601134Y-25333984D01*
X13601134Y-25333984D02*
X13582086Y-25324460D01*
X13582086Y-25324460D02*
X13572563Y-25314936D01*
X13572563Y-25314936D02*
X13563039Y-25295888D01*
X13563039Y-25295888D02*
X13553515Y-25257793D01*
X13553515Y-25257793D02*
X13553515Y-25210174D01*
X13553515Y-25210174D02*
X13563039Y-25172079D01*
X13563039Y-25172079D02*
X13572563Y-25153031D01*
X13572563Y-25153031D02*
X13582086Y-25143508D01*
X13582086Y-25143508D02*
X13601134Y-25133984D01*
X13753515Y-25314936D02*
X13763039Y-25324460D01*
X13763039Y-25324460D02*
X13753515Y-25333984D01*
X13753515Y-25333984D02*
X13743991Y-25324460D01*
X13743991Y-25324460D02*
X13753515Y-25314936D01*
X13753515Y-25314936D02*
X13753515Y-25333984D01*
X13886848Y-25133984D02*
X13905896Y-25133984D01*
X13905896Y-25133984D02*
X13924944Y-25143508D01*
X13924944Y-25143508D02*
X13934467Y-25153031D01*
X13934467Y-25153031D02*
X13943991Y-25172079D01*
X13943991Y-25172079D02*
X13953515Y-25210174D01*
X13953515Y-25210174D02*
X13953515Y-25257793D01*
X13953515Y-25257793D02*
X13943991Y-25295888D01*
X13943991Y-25295888D02*
X13934467Y-25314936D01*
X13934467Y-25314936D02*
X13924944Y-25324460D01*
X13924944Y-25324460D02*
X13905896Y-25333984D01*
X13905896Y-25333984D02*
X13886848Y-25333984D01*
X13886848Y-25333984D02*
X13867801Y-25324460D01*
X13867801Y-25324460D02*
X13858277Y-25314936D01*
X13858277Y-25314936D02*
X13848753Y-25295888D01*
X13848753Y-25295888D02*
X13839229Y-25257793D01*
X13839229Y-25257793D02*
X13839229Y-25210174D01*
X13839229Y-25210174D02*
X13848753Y-25172079D01*
X13848753Y-25172079D02*
X13858277Y-25153031D01*
X13858277Y-25153031D02*
X13867801Y-25143508D01*
X13867801Y-25143508D02*
X13886848Y-25133984D01*
X14143991Y-25333984D02*
X14029706Y-25333984D01*
X14086848Y-25333984D02*
X14086848Y-25133984D01*
X14086848Y-25133984D02*
X14067801Y-25162555D01*
X14067801Y-25162555D02*
X14048753Y-25181603D01*
X14048753Y-25181603D02*
X14029706Y-25191127D01*
X14334467Y-25333984D02*
X14220182Y-25333984D01*
X14277325Y-25333984D02*
X14277325Y-25133984D01*
X14277325Y-25133984D02*
X14258277Y-25162555D01*
X14258277Y-25162555D02*
X14239229Y-25181603D01*
X14239229Y-25181603D02*
X14220182Y-25191127D01*
X14448753Y-25219698D02*
X14429706Y-25210174D01*
X14429706Y-25210174D02*
X14420182Y-25200650D01*
X14420182Y-25200650D02*
X14410658Y-25181603D01*
X14410658Y-25181603D02*
X14410658Y-25172079D01*
X14410658Y-25172079D02*
X14420182Y-25153031D01*
X14420182Y-25153031D02*
X14429706Y-25143508D01*
X14429706Y-25143508D02*
X14448753Y-25133984D01*
X14448753Y-25133984D02*
X14486848Y-25133984D01*
X14486848Y-25133984D02*
X14505896Y-25143508D01*
X14505896Y-25143508D02*
X14515420Y-25153031D01*
X14515420Y-25153031D02*
X14524944Y-25172079D01*
X14524944Y-25172079D02*
X14524944Y-25181603D01*
X14524944Y-25181603D02*
X14515420Y-25200650D01*
X14515420Y-25200650D02*
X14505896Y-25210174D01*
X14505896Y-25210174D02*
X14486848Y-25219698D01*
X14486848Y-25219698D02*
X14448753Y-25219698D01*
X14448753Y-25219698D02*
X14429706Y-25229222D01*
X14429706Y-25229222D02*
X14420182Y-25238746D01*
X14420182Y-25238746D02*
X14410658Y-25257793D01*
X14410658Y-25257793D02*
X14410658Y-25295888D01*
X14410658Y-25295888D02*
X14420182Y-25314936D01*
X14420182Y-25314936D02*
X14429706Y-25324460D01*
X14429706Y-25324460D02*
X14448753Y-25333984D01*
X14448753Y-25333984D02*
X14486848Y-25333984D01*
X14486848Y-25333984D02*
X14505896Y-25324460D01*
X14505896Y-25324460D02*
X14515420Y-25314936D01*
X14515420Y-25314936D02*
X14524944Y-25295888D01*
X14524944Y-25295888D02*
X14524944Y-25257793D01*
X14524944Y-25257793D02*
X14515420Y-25238746D01*
X14515420Y-25238746D02*
X14505896Y-25229222D01*
X14505896Y-25229222D02*
X14486848Y-25219698D01*
X14601134Y-25133984D02*
X14601134Y-25172079D01*
X14677325Y-25133984D02*
X14677325Y-25172079D01*
X14972563Y-25410174D02*
X14963039Y-25400650D01*
X14963039Y-25400650D02*
X14943991Y-25372079D01*
X14943991Y-25372079D02*
X14934468Y-25353031D01*
X14934468Y-25353031D02*
X14924944Y-25324460D01*
X14924944Y-25324460D02*
X14915420Y-25276841D01*
X14915420Y-25276841D02*
X14915420Y-25238746D01*
X14915420Y-25238746D02*
X14924944Y-25191127D01*
X14924944Y-25191127D02*
X14934468Y-25162555D01*
X14934468Y-25162555D02*
X14943991Y-25143508D01*
X14943991Y-25143508D02*
X14963039Y-25114936D01*
X14963039Y-25114936D02*
X14972563Y-25105412D01*
X15058277Y-25333984D02*
X15096372Y-25333984D01*
X15096372Y-25333984D02*
X15115420Y-25324460D01*
X15115420Y-25324460D02*
X15124944Y-25314936D01*
X15124944Y-25314936D02*
X15143991Y-25286365D01*
X15143991Y-25286365D02*
X15153515Y-25248269D01*
X15153515Y-25248269D02*
X15153515Y-25172079D01*
X15153515Y-25172079D02*
X15143991Y-25153031D01*
X15143991Y-25153031D02*
X15134468Y-25143508D01*
X15134468Y-25143508D02*
X15115420Y-25133984D01*
X15115420Y-25133984D02*
X15077325Y-25133984D01*
X15077325Y-25133984D02*
X15058277Y-25143508D01*
X15058277Y-25143508D02*
X15048753Y-25153031D01*
X15048753Y-25153031D02*
X15039229Y-25172079D01*
X15039229Y-25172079D02*
X15039229Y-25219698D01*
X15039229Y-25219698D02*
X15048753Y-25238746D01*
X15048753Y-25238746D02*
X15058277Y-25248269D01*
X15058277Y-25248269D02*
X15077325Y-25257793D01*
X15077325Y-25257793D02*
X15115420Y-25257793D01*
X15115420Y-25257793D02*
X15134468Y-25248269D01*
X15134468Y-25248269D02*
X15143991Y-25238746D01*
X15143991Y-25238746D02*
X15153515Y-25219698D01*
X15267801Y-25219698D02*
X15248753Y-25210174D01*
X15248753Y-25210174D02*
X15239229Y-25200650D01*
X15239229Y-25200650D02*
X15229706Y-25181603D01*
X15229706Y-25181603D02*
X15229706Y-25172079D01*
X15229706Y-25172079D02*
X15239229Y-25153031D01*
X15239229Y-25153031D02*
X15248753Y-25143508D01*
X15248753Y-25143508D02*
X15267801Y-25133984D01*
X15267801Y-25133984D02*
X15305896Y-25133984D01*
X15305896Y-25133984D02*
X15324944Y-25143508D01*
X15324944Y-25143508D02*
X15334468Y-25153031D01*
X15334468Y-25153031D02*
X15343991Y-25172079D01*
X15343991Y-25172079D02*
X15343991Y-25181603D01*
X15343991Y-25181603D02*
X15334468Y-25200650D01*
X15334468Y-25200650D02*
X15324944Y-25210174D01*
X15324944Y-25210174D02*
X15305896Y-25219698D01*
X15305896Y-25219698D02*
X15267801Y-25219698D01*
X15267801Y-25219698D02*
X15248753Y-25229222D01*
X15248753Y-25229222D02*
X15239229Y-25238746D01*
X15239229Y-25238746D02*
X15229706Y-25257793D01*
X15229706Y-25257793D02*
X15229706Y-25295888D01*
X15229706Y-25295888D02*
X15239229Y-25314936D01*
X15239229Y-25314936D02*
X15248753Y-25324460D01*
X15248753Y-25324460D02*
X15267801Y-25333984D01*
X15267801Y-25333984D02*
X15305896Y-25333984D01*
X15305896Y-25333984D02*
X15324944Y-25324460D01*
X15324944Y-25324460D02*
X15334468Y-25314936D01*
X15334468Y-25314936D02*
X15343991Y-25295888D01*
X15343991Y-25295888D02*
X15343991Y-25257793D01*
X15343991Y-25257793D02*
X15334468Y-25238746D01*
X15334468Y-25238746D02*
X15324944Y-25229222D01*
X15324944Y-25229222D02*
X15305896Y-25219698D01*
X15582087Y-25333984D02*
X15582087Y-25133984D01*
X15667801Y-25333984D02*
X15667801Y-25229222D01*
X15667801Y-25229222D02*
X15658277Y-25210174D01*
X15658277Y-25210174D02*
X15639230Y-25200650D01*
X15639230Y-25200650D02*
X15610658Y-25200650D01*
X15610658Y-25200650D02*
X15591610Y-25210174D01*
X15591610Y-25210174D02*
X15582087Y-25219698D01*
X15791610Y-25333984D02*
X15772563Y-25324460D01*
X15772563Y-25324460D02*
X15763039Y-25314936D01*
X15763039Y-25314936D02*
X15753515Y-25295888D01*
X15753515Y-25295888D02*
X15753515Y-25238746D01*
X15753515Y-25238746D02*
X15763039Y-25219698D01*
X15763039Y-25219698D02*
X15772563Y-25210174D01*
X15772563Y-25210174D02*
X15791610Y-25200650D01*
X15791610Y-25200650D02*
X15820182Y-25200650D01*
X15820182Y-25200650D02*
X15839230Y-25210174D01*
X15839230Y-25210174D02*
X15848753Y-25219698D01*
X15848753Y-25219698D02*
X15858277Y-25238746D01*
X15858277Y-25238746D02*
X15858277Y-25295888D01*
X15858277Y-25295888D02*
X15848753Y-25314936D01*
X15848753Y-25314936D02*
X15839230Y-25324460D01*
X15839230Y-25324460D02*
X15820182Y-25333984D01*
X15820182Y-25333984D02*
X15791610Y-25333984D01*
X15972563Y-25333984D02*
X15953515Y-25324460D01*
X15953515Y-25324460D02*
X15943991Y-25305412D01*
X15943991Y-25305412D02*
X15943991Y-25133984D01*
X16124944Y-25324460D02*
X16105896Y-25333984D01*
X16105896Y-25333984D02*
X16067801Y-25333984D01*
X16067801Y-25333984D02*
X16048753Y-25324460D01*
X16048753Y-25324460D02*
X16039230Y-25305412D01*
X16039230Y-25305412D02*
X16039230Y-25229222D01*
X16039230Y-25229222D02*
X16048753Y-25210174D01*
X16048753Y-25210174D02*
X16067801Y-25200650D01*
X16067801Y-25200650D02*
X16105896Y-25200650D01*
X16105896Y-25200650D02*
X16124944Y-25210174D01*
X16124944Y-25210174D02*
X16134468Y-25229222D01*
X16134468Y-25229222D02*
X16134468Y-25248269D01*
X16134468Y-25248269D02*
X16039230Y-25267317D01*
X16210658Y-25324460D02*
X16229706Y-25333984D01*
X16229706Y-25333984D02*
X16267801Y-25333984D01*
X16267801Y-25333984D02*
X16286849Y-25324460D01*
X16286849Y-25324460D02*
X16296372Y-25305412D01*
X16296372Y-25305412D02*
X16296372Y-25295888D01*
X16296372Y-25295888D02*
X16286849Y-25276841D01*
X16286849Y-25276841D02*
X16267801Y-25267317D01*
X16267801Y-25267317D02*
X16239230Y-25267317D01*
X16239230Y-25267317D02*
X16220182Y-25257793D01*
X16220182Y-25257793D02*
X16210658Y-25238746D01*
X16210658Y-25238746D02*
X16210658Y-25229222D01*
X16210658Y-25229222D02*
X16220182Y-25210174D01*
X16220182Y-25210174D02*
X16239230Y-25200650D01*
X16239230Y-25200650D02*
X16267801Y-25200650D01*
X16267801Y-25200650D02*
X16286849Y-25210174D01*
X16363039Y-25410174D02*
X16372563Y-25400650D01*
X16372563Y-25400650D02*
X16391611Y-25372079D01*
X16391611Y-25372079D02*
X16401134Y-25353031D01*
X16401134Y-25353031D02*
X16410658Y-25324460D01*
X16410658Y-25324460D02*
X16420182Y-25276841D01*
X16420182Y-25276841D02*
X16420182Y-25238746D01*
X16420182Y-25238746D02*
X16410658Y-25191127D01*
X16410658Y-25191127D02*
X16401134Y-25162555D01*
X16401134Y-25162555D02*
X16391611Y-25143508D01*
X16391611Y-25143508D02*
X16372563Y-25114936D01*
X16372563Y-25114936D02*
X16363039Y-25105412D01*
D12*
X11397500Y-25506500D02*
G75*
G02*
X11317500Y-25506500I-40000J0D01*
G01*
X11317500Y-25506500D02*
G75*
G02*
X11397500Y-25506500I40000J0D01*
G01*
D11*
X11696372Y-25397984D02*
X11715420Y-25397984D01*
X11715420Y-25397984D02*
X11734467Y-25407508D01*
X11734467Y-25407508D02*
X11743991Y-25417031D01*
X11743991Y-25417031D02*
X11753515Y-25436079D01*
X11753515Y-25436079D02*
X11763039Y-25474174D01*
X11763039Y-25474174D02*
X11763039Y-25521793D01*
X11763039Y-25521793D02*
X11753515Y-25559888D01*
X11753515Y-25559888D02*
X11743991Y-25578936D01*
X11743991Y-25578936D02*
X11734467Y-25588460D01*
X11734467Y-25588460D02*
X11715420Y-25597984D01*
X11715420Y-25597984D02*
X11696372Y-25597984D01*
X11696372Y-25597984D02*
X11677324Y-25588460D01*
X11677324Y-25588460D02*
X11667801Y-25578936D01*
X11667801Y-25578936D02*
X11658277Y-25559888D01*
X11658277Y-25559888D02*
X11648753Y-25521793D01*
X11648753Y-25521793D02*
X11648753Y-25474174D01*
X11648753Y-25474174D02*
X11658277Y-25436079D01*
X11658277Y-25436079D02*
X11667801Y-25417031D01*
X11667801Y-25417031D02*
X11677324Y-25407508D01*
X11677324Y-25407508D02*
X11696372Y-25397984D01*
X11848753Y-25578936D02*
X11858277Y-25588460D01*
X11858277Y-25588460D02*
X11848753Y-25597984D01*
X11848753Y-25597984D02*
X11839229Y-25588460D01*
X11839229Y-25588460D02*
X11848753Y-25578936D01*
X11848753Y-25578936D02*
X11848753Y-25597984D01*
X11972562Y-25483698D02*
X11953515Y-25474174D01*
X11953515Y-25474174D02*
X11943991Y-25464650D01*
X11943991Y-25464650D02*
X11934467Y-25445603D01*
X11934467Y-25445603D02*
X11934467Y-25436079D01*
X11934467Y-25436079D02*
X11943991Y-25417031D01*
X11943991Y-25417031D02*
X11953515Y-25407508D01*
X11953515Y-25407508D02*
X11972562Y-25397984D01*
X11972562Y-25397984D02*
X12010658Y-25397984D01*
X12010658Y-25397984D02*
X12029705Y-25407508D01*
X12029705Y-25407508D02*
X12039229Y-25417031D01*
X12039229Y-25417031D02*
X12048753Y-25436079D01*
X12048753Y-25436079D02*
X12048753Y-25445603D01*
X12048753Y-25445603D02*
X12039229Y-25464650D01*
X12039229Y-25464650D02*
X12029705Y-25474174D01*
X12029705Y-25474174D02*
X12010658Y-25483698D01*
X12010658Y-25483698D02*
X11972562Y-25483698D01*
X11972562Y-25483698D02*
X11953515Y-25493222D01*
X11953515Y-25493222D02*
X11943991Y-25502746D01*
X11943991Y-25502746D02*
X11934467Y-25521793D01*
X11934467Y-25521793D02*
X11934467Y-25559888D01*
X11934467Y-25559888D02*
X11943991Y-25578936D01*
X11943991Y-25578936D02*
X11953515Y-25588460D01*
X11953515Y-25588460D02*
X11972562Y-25597984D01*
X11972562Y-25597984D02*
X12010658Y-25597984D01*
X12010658Y-25597984D02*
X12029705Y-25588460D01*
X12029705Y-25588460D02*
X12039229Y-25578936D01*
X12039229Y-25578936D02*
X12048753Y-25559888D01*
X12048753Y-25559888D02*
X12048753Y-25521793D01*
X12048753Y-25521793D02*
X12039229Y-25502746D01*
X12039229Y-25502746D02*
X12029705Y-25493222D01*
X12029705Y-25493222D02*
X12010658Y-25483698D01*
X12172562Y-25397984D02*
X12191610Y-25397984D01*
X12191610Y-25397984D02*
X12210658Y-25407508D01*
X12210658Y-25407508D02*
X12220182Y-25417031D01*
X12220182Y-25417031D02*
X12229705Y-25436079D01*
X12229705Y-25436079D02*
X12239229Y-25474174D01*
X12239229Y-25474174D02*
X12239229Y-25521793D01*
X12239229Y-25521793D02*
X12229705Y-25559888D01*
X12229705Y-25559888D02*
X12220182Y-25578936D01*
X12220182Y-25578936D02*
X12210658Y-25588460D01*
X12210658Y-25588460D02*
X12191610Y-25597984D01*
X12191610Y-25597984D02*
X12172562Y-25597984D01*
X12172562Y-25597984D02*
X12153515Y-25588460D01*
X12153515Y-25588460D02*
X12143991Y-25578936D01*
X12143991Y-25578936D02*
X12134467Y-25559888D01*
X12134467Y-25559888D02*
X12124943Y-25521793D01*
X12124943Y-25521793D02*
X12124943Y-25474174D01*
X12124943Y-25474174D02*
X12134467Y-25436079D01*
X12134467Y-25436079D02*
X12143991Y-25417031D01*
X12143991Y-25417031D02*
X12153515Y-25407508D01*
X12153515Y-25407508D02*
X12172562Y-25397984D01*
X12363039Y-25397984D02*
X12382086Y-25397984D01*
X12382086Y-25397984D02*
X12401134Y-25407508D01*
X12401134Y-25407508D02*
X12410658Y-25417031D01*
X12410658Y-25417031D02*
X12420182Y-25436079D01*
X12420182Y-25436079D02*
X12429705Y-25474174D01*
X12429705Y-25474174D02*
X12429705Y-25521793D01*
X12429705Y-25521793D02*
X12420182Y-25559888D01*
X12420182Y-25559888D02*
X12410658Y-25578936D01*
X12410658Y-25578936D02*
X12401134Y-25588460D01*
X12401134Y-25588460D02*
X12382086Y-25597984D01*
X12382086Y-25597984D02*
X12363039Y-25597984D01*
X12363039Y-25597984D02*
X12343991Y-25588460D01*
X12343991Y-25588460D02*
X12334467Y-25578936D01*
X12334467Y-25578936D02*
X12324943Y-25559888D01*
X12324943Y-25559888D02*
X12315420Y-25521793D01*
X12315420Y-25521793D02*
X12315420Y-25474174D01*
X12315420Y-25474174D02*
X12324943Y-25436079D01*
X12324943Y-25436079D02*
X12334467Y-25417031D01*
X12334467Y-25417031D02*
X12343991Y-25407508D01*
X12343991Y-25407508D02*
X12363039Y-25397984D01*
X12515420Y-25597984D02*
X12515420Y-25464650D01*
X12515420Y-25483698D02*
X12524943Y-25474174D01*
X12524943Y-25474174D02*
X12543991Y-25464650D01*
X12543991Y-25464650D02*
X12572563Y-25464650D01*
X12572563Y-25464650D02*
X12591610Y-25474174D01*
X12591610Y-25474174D02*
X12601134Y-25493222D01*
X12601134Y-25493222D02*
X12601134Y-25597984D01*
X12601134Y-25493222D02*
X12610658Y-25474174D01*
X12610658Y-25474174D02*
X12629705Y-25464650D01*
X12629705Y-25464650D02*
X12658277Y-25464650D01*
X12658277Y-25464650D02*
X12677324Y-25474174D01*
X12677324Y-25474174D02*
X12686848Y-25493222D01*
X12686848Y-25493222D02*
X12686848Y-25597984D01*
X12782086Y-25597984D02*
X12782086Y-25464650D01*
X12782086Y-25483698D02*
X12791610Y-25474174D01*
X12791610Y-25474174D02*
X12810658Y-25464650D01*
X12810658Y-25464650D02*
X12839229Y-25464650D01*
X12839229Y-25464650D02*
X12858277Y-25474174D01*
X12858277Y-25474174D02*
X12867801Y-25493222D01*
X12867801Y-25493222D02*
X12867801Y-25597984D01*
X12867801Y-25493222D02*
X12877324Y-25474174D01*
X12877324Y-25474174D02*
X12896372Y-25464650D01*
X12896372Y-25464650D02*
X12924943Y-25464650D01*
X12924943Y-25464650D02*
X12943991Y-25474174D01*
X12943991Y-25474174D02*
X12953515Y-25493222D01*
X12953515Y-25493222D02*
X12953515Y-25597984D01*
X13343991Y-25388460D02*
X13172563Y-25645603D01*
X13601134Y-25397984D02*
X13620182Y-25397984D01*
X13620182Y-25397984D02*
X13639229Y-25407508D01*
X13639229Y-25407508D02*
X13648753Y-25417031D01*
X13648753Y-25417031D02*
X13658277Y-25436079D01*
X13658277Y-25436079D02*
X13667801Y-25474174D01*
X13667801Y-25474174D02*
X13667801Y-25521793D01*
X13667801Y-25521793D02*
X13658277Y-25559888D01*
X13658277Y-25559888D02*
X13648753Y-25578936D01*
X13648753Y-25578936D02*
X13639229Y-25588460D01*
X13639229Y-25588460D02*
X13620182Y-25597984D01*
X13620182Y-25597984D02*
X13601134Y-25597984D01*
X13601134Y-25597984D02*
X13582086Y-25588460D01*
X13582086Y-25588460D02*
X13572563Y-25578936D01*
X13572563Y-25578936D02*
X13563039Y-25559888D01*
X13563039Y-25559888D02*
X13553515Y-25521793D01*
X13553515Y-25521793D02*
X13553515Y-25474174D01*
X13553515Y-25474174D02*
X13563039Y-25436079D01*
X13563039Y-25436079D02*
X13572563Y-25417031D01*
X13572563Y-25417031D02*
X13582086Y-25407508D01*
X13582086Y-25407508D02*
X13601134Y-25397984D01*
X13753515Y-25578936D02*
X13763039Y-25588460D01*
X13763039Y-25588460D02*
X13753515Y-25597984D01*
X13753515Y-25597984D02*
X13743991Y-25588460D01*
X13743991Y-25588460D02*
X13753515Y-25578936D01*
X13753515Y-25578936D02*
X13753515Y-25597984D01*
X13886848Y-25397984D02*
X13905896Y-25397984D01*
X13905896Y-25397984D02*
X13924944Y-25407508D01*
X13924944Y-25407508D02*
X13934467Y-25417031D01*
X13934467Y-25417031D02*
X13943991Y-25436079D01*
X13943991Y-25436079D02*
X13953515Y-25474174D01*
X13953515Y-25474174D02*
X13953515Y-25521793D01*
X13953515Y-25521793D02*
X13943991Y-25559888D01*
X13943991Y-25559888D02*
X13934467Y-25578936D01*
X13934467Y-25578936D02*
X13924944Y-25588460D01*
X13924944Y-25588460D02*
X13905896Y-25597984D01*
X13905896Y-25597984D02*
X13886848Y-25597984D01*
X13886848Y-25597984D02*
X13867801Y-25588460D01*
X13867801Y-25588460D02*
X13858277Y-25578936D01*
X13858277Y-25578936D02*
X13848753Y-25559888D01*
X13848753Y-25559888D02*
X13839229Y-25521793D01*
X13839229Y-25521793D02*
X13839229Y-25474174D01*
X13839229Y-25474174D02*
X13848753Y-25436079D01*
X13848753Y-25436079D02*
X13858277Y-25417031D01*
X13858277Y-25417031D02*
X13867801Y-25407508D01*
X13867801Y-25407508D02*
X13886848Y-25397984D01*
X14020182Y-25397984D02*
X14143991Y-25397984D01*
X14143991Y-25397984D02*
X14077325Y-25474174D01*
X14077325Y-25474174D02*
X14105896Y-25474174D01*
X14105896Y-25474174D02*
X14124944Y-25483698D01*
X14124944Y-25483698D02*
X14134467Y-25493222D01*
X14134467Y-25493222D02*
X14143991Y-25512269D01*
X14143991Y-25512269D02*
X14143991Y-25559888D01*
X14143991Y-25559888D02*
X14134467Y-25578936D01*
X14134467Y-25578936D02*
X14124944Y-25588460D01*
X14124944Y-25588460D02*
X14105896Y-25597984D01*
X14105896Y-25597984D02*
X14048753Y-25597984D01*
X14048753Y-25597984D02*
X14029706Y-25588460D01*
X14029706Y-25588460D02*
X14020182Y-25578936D01*
X14334467Y-25597984D02*
X14220182Y-25597984D01*
X14277325Y-25597984D02*
X14277325Y-25397984D01*
X14277325Y-25397984D02*
X14258277Y-25426555D01*
X14258277Y-25426555D02*
X14239229Y-25445603D01*
X14239229Y-25445603D02*
X14220182Y-25455127D01*
X14515420Y-25397984D02*
X14420182Y-25397984D01*
X14420182Y-25397984D02*
X14410658Y-25493222D01*
X14410658Y-25493222D02*
X14420182Y-25483698D01*
X14420182Y-25483698D02*
X14439229Y-25474174D01*
X14439229Y-25474174D02*
X14486848Y-25474174D01*
X14486848Y-25474174D02*
X14505896Y-25483698D01*
X14505896Y-25483698D02*
X14515420Y-25493222D01*
X14515420Y-25493222D02*
X14524944Y-25512269D01*
X14524944Y-25512269D02*
X14524944Y-25559888D01*
X14524944Y-25559888D02*
X14515420Y-25578936D01*
X14515420Y-25578936D02*
X14505896Y-25588460D01*
X14505896Y-25588460D02*
X14486848Y-25597984D01*
X14486848Y-25597984D02*
X14439229Y-25597984D01*
X14439229Y-25597984D02*
X14420182Y-25588460D01*
X14420182Y-25588460D02*
X14410658Y-25578936D01*
X14601134Y-25397984D02*
X14601134Y-25436079D01*
X14677325Y-25397984D02*
X14677325Y-25436079D01*
X14972563Y-25674174D02*
X14963039Y-25664650D01*
X14963039Y-25664650D02*
X14943991Y-25636079D01*
X14943991Y-25636079D02*
X14934468Y-25617031D01*
X14934468Y-25617031D02*
X14924944Y-25588460D01*
X14924944Y-25588460D02*
X14915420Y-25540841D01*
X14915420Y-25540841D02*
X14915420Y-25502746D01*
X14915420Y-25502746D02*
X14924944Y-25455127D01*
X14924944Y-25455127D02*
X14934468Y-25426555D01*
X14934468Y-25426555D02*
X14943991Y-25407508D01*
X14943991Y-25407508D02*
X14963039Y-25378936D01*
X14963039Y-25378936D02*
X14972563Y-25369412D01*
X15039229Y-25417031D02*
X15048753Y-25407508D01*
X15048753Y-25407508D02*
X15067801Y-25397984D01*
X15067801Y-25397984D02*
X15115420Y-25397984D01*
X15115420Y-25397984D02*
X15134468Y-25407508D01*
X15134468Y-25407508D02*
X15143991Y-25417031D01*
X15143991Y-25417031D02*
X15153515Y-25436079D01*
X15153515Y-25436079D02*
X15153515Y-25455127D01*
X15153515Y-25455127D02*
X15143991Y-25483698D01*
X15143991Y-25483698D02*
X15029706Y-25597984D01*
X15029706Y-25597984D02*
X15153515Y-25597984D01*
X15391610Y-25597984D02*
X15391610Y-25397984D01*
X15477325Y-25597984D02*
X15477325Y-25493222D01*
X15477325Y-25493222D02*
X15467801Y-25474174D01*
X15467801Y-25474174D02*
X15448753Y-25464650D01*
X15448753Y-25464650D02*
X15420182Y-25464650D01*
X15420182Y-25464650D02*
X15401134Y-25474174D01*
X15401134Y-25474174D02*
X15391610Y-25483698D01*
X15601134Y-25597984D02*
X15582087Y-25588460D01*
X15582087Y-25588460D02*
X15572563Y-25578936D01*
X15572563Y-25578936D02*
X15563039Y-25559888D01*
X15563039Y-25559888D02*
X15563039Y-25502746D01*
X15563039Y-25502746D02*
X15572563Y-25483698D01*
X15572563Y-25483698D02*
X15582087Y-25474174D01*
X15582087Y-25474174D02*
X15601134Y-25464650D01*
X15601134Y-25464650D02*
X15629706Y-25464650D01*
X15629706Y-25464650D02*
X15648753Y-25474174D01*
X15648753Y-25474174D02*
X15658277Y-25483698D01*
X15658277Y-25483698D02*
X15667801Y-25502746D01*
X15667801Y-25502746D02*
X15667801Y-25559888D01*
X15667801Y-25559888D02*
X15658277Y-25578936D01*
X15658277Y-25578936D02*
X15648753Y-25588460D01*
X15648753Y-25588460D02*
X15629706Y-25597984D01*
X15629706Y-25597984D02*
X15601134Y-25597984D01*
X15782087Y-25597984D02*
X15763039Y-25588460D01*
X15763039Y-25588460D02*
X15753515Y-25569412D01*
X15753515Y-25569412D02*
X15753515Y-25397984D01*
X15934468Y-25588460D02*
X15915420Y-25597984D01*
X15915420Y-25597984D02*
X15877325Y-25597984D01*
X15877325Y-25597984D02*
X15858277Y-25588460D01*
X15858277Y-25588460D02*
X15848753Y-25569412D01*
X15848753Y-25569412D02*
X15848753Y-25493222D01*
X15848753Y-25493222D02*
X15858277Y-25474174D01*
X15858277Y-25474174D02*
X15877325Y-25464650D01*
X15877325Y-25464650D02*
X15915420Y-25464650D01*
X15915420Y-25464650D02*
X15934468Y-25474174D01*
X15934468Y-25474174D02*
X15943991Y-25493222D01*
X15943991Y-25493222D02*
X15943991Y-25512269D01*
X15943991Y-25512269D02*
X15848753Y-25531317D01*
X16020182Y-25588460D02*
X16039230Y-25597984D01*
X16039230Y-25597984D02*
X16077325Y-25597984D01*
X16077325Y-25597984D02*
X16096372Y-25588460D01*
X16096372Y-25588460D02*
X16105896Y-25569412D01*
X16105896Y-25569412D02*
X16105896Y-25559888D01*
X16105896Y-25559888D02*
X16096372Y-25540841D01*
X16096372Y-25540841D02*
X16077325Y-25531317D01*
X16077325Y-25531317D02*
X16048753Y-25531317D01*
X16048753Y-25531317D02*
X16029706Y-25521793D01*
X16029706Y-25521793D02*
X16020182Y-25502746D01*
X16020182Y-25502746D02*
X16020182Y-25493222D01*
X16020182Y-25493222D02*
X16029706Y-25474174D01*
X16029706Y-25474174D02*
X16048753Y-25464650D01*
X16048753Y-25464650D02*
X16077325Y-25464650D01*
X16077325Y-25464650D02*
X16096372Y-25474174D01*
X16172563Y-25674174D02*
X16182087Y-25664650D01*
X16182087Y-25664650D02*
X16201134Y-25636079D01*
X16201134Y-25636079D02*
X16210658Y-25617031D01*
X16210658Y-25617031D02*
X16220182Y-25588460D01*
X16220182Y-25588460D02*
X16229706Y-25540841D01*
X16229706Y-25540841D02*
X16229706Y-25502746D01*
X16229706Y-25502746D02*
X16220182Y-25455127D01*
X16220182Y-25455127D02*
X16210658Y-25426555D01*
X16210658Y-25426555D02*
X16201134Y-25407508D01*
X16201134Y-25407508D02*
X16182087Y-25378936D01*
X16182087Y-25378936D02*
X16172563Y-25369412D01*
D12*
X11352500Y-25725500D02*
X11352500Y-25815500D01*
X11307500Y-25770500D02*
X11397500Y-25770500D01*
D11*
X11696372Y-25661984D02*
X11715420Y-25661984D01*
X11715420Y-25661984D02*
X11734467Y-25671508D01*
X11734467Y-25671508D02*
X11743991Y-25681031D01*
X11743991Y-25681031D02*
X11753515Y-25700079D01*
X11753515Y-25700079D02*
X11763039Y-25738174D01*
X11763039Y-25738174D02*
X11763039Y-25785793D01*
X11763039Y-25785793D02*
X11753515Y-25823888D01*
X11753515Y-25823888D02*
X11743991Y-25842936D01*
X11743991Y-25842936D02*
X11734467Y-25852460D01*
X11734467Y-25852460D02*
X11715420Y-25861984D01*
X11715420Y-25861984D02*
X11696372Y-25861984D01*
X11696372Y-25861984D02*
X11677324Y-25852460D01*
X11677324Y-25852460D02*
X11667801Y-25842936D01*
X11667801Y-25842936D02*
X11658277Y-25823888D01*
X11658277Y-25823888D02*
X11648753Y-25785793D01*
X11648753Y-25785793D02*
X11648753Y-25738174D01*
X11648753Y-25738174D02*
X11658277Y-25700079D01*
X11658277Y-25700079D02*
X11667801Y-25681031D01*
X11667801Y-25681031D02*
X11677324Y-25671508D01*
X11677324Y-25671508D02*
X11696372Y-25661984D01*
X11848753Y-25842936D02*
X11858277Y-25852460D01*
X11858277Y-25852460D02*
X11848753Y-25861984D01*
X11848753Y-25861984D02*
X11839229Y-25852460D01*
X11839229Y-25852460D02*
X11848753Y-25842936D01*
X11848753Y-25842936D02*
X11848753Y-25861984D01*
X11953515Y-25861984D02*
X11991610Y-25861984D01*
X11991610Y-25861984D02*
X12010658Y-25852460D01*
X12010658Y-25852460D02*
X12020182Y-25842936D01*
X12020182Y-25842936D02*
X12039229Y-25814365D01*
X12039229Y-25814365D02*
X12048753Y-25776269D01*
X12048753Y-25776269D02*
X12048753Y-25700079D01*
X12048753Y-25700079D02*
X12039229Y-25681031D01*
X12039229Y-25681031D02*
X12029705Y-25671508D01*
X12029705Y-25671508D02*
X12010658Y-25661984D01*
X12010658Y-25661984D02*
X11972562Y-25661984D01*
X11972562Y-25661984D02*
X11953515Y-25671508D01*
X11953515Y-25671508D02*
X11943991Y-25681031D01*
X11943991Y-25681031D02*
X11934467Y-25700079D01*
X11934467Y-25700079D02*
X11934467Y-25747698D01*
X11934467Y-25747698D02*
X11943991Y-25766746D01*
X11943991Y-25766746D02*
X11953515Y-25776269D01*
X11953515Y-25776269D02*
X11972562Y-25785793D01*
X11972562Y-25785793D02*
X12010658Y-25785793D01*
X12010658Y-25785793D02*
X12029705Y-25776269D01*
X12029705Y-25776269D02*
X12039229Y-25766746D01*
X12039229Y-25766746D02*
X12048753Y-25747698D01*
X12172562Y-25661984D02*
X12191610Y-25661984D01*
X12191610Y-25661984D02*
X12210658Y-25671508D01*
X12210658Y-25671508D02*
X12220182Y-25681031D01*
X12220182Y-25681031D02*
X12229705Y-25700079D01*
X12229705Y-25700079D02*
X12239229Y-25738174D01*
X12239229Y-25738174D02*
X12239229Y-25785793D01*
X12239229Y-25785793D02*
X12229705Y-25823888D01*
X12229705Y-25823888D02*
X12220182Y-25842936D01*
X12220182Y-25842936D02*
X12210658Y-25852460D01*
X12210658Y-25852460D02*
X12191610Y-25861984D01*
X12191610Y-25861984D02*
X12172562Y-25861984D01*
X12172562Y-25861984D02*
X12153515Y-25852460D01*
X12153515Y-25852460D02*
X12143991Y-25842936D01*
X12143991Y-25842936D02*
X12134467Y-25823888D01*
X12134467Y-25823888D02*
X12124943Y-25785793D01*
X12124943Y-25785793D02*
X12124943Y-25738174D01*
X12124943Y-25738174D02*
X12134467Y-25700079D01*
X12134467Y-25700079D02*
X12143991Y-25681031D01*
X12143991Y-25681031D02*
X12153515Y-25671508D01*
X12153515Y-25671508D02*
X12172562Y-25661984D01*
X12363039Y-25661984D02*
X12382086Y-25661984D01*
X12382086Y-25661984D02*
X12401134Y-25671508D01*
X12401134Y-25671508D02*
X12410658Y-25681031D01*
X12410658Y-25681031D02*
X12420182Y-25700079D01*
X12420182Y-25700079D02*
X12429705Y-25738174D01*
X12429705Y-25738174D02*
X12429705Y-25785793D01*
X12429705Y-25785793D02*
X12420182Y-25823888D01*
X12420182Y-25823888D02*
X12410658Y-25842936D01*
X12410658Y-25842936D02*
X12401134Y-25852460D01*
X12401134Y-25852460D02*
X12382086Y-25861984D01*
X12382086Y-25861984D02*
X12363039Y-25861984D01*
X12363039Y-25861984D02*
X12343991Y-25852460D01*
X12343991Y-25852460D02*
X12334467Y-25842936D01*
X12334467Y-25842936D02*
X12324943Y-25823888D01*
X12324943Y-25823888D02*
X12315420Y-25785793D01*
X12315420Y-25785793D02*
X12315420Y-25738174D01*
X12315420Y-25738174D02*
X12324943Y-25700079D01*
X12324943Y-25700079D02*
X12334467Y-25681031D01*
X12334467Y-25681031D02*
X12343991Y-25671508D01*
X12343991Y-25671508D02*
X12363039Y-25661984D01*
X12515420Y-25861984D02*
X12515420Y-25728650D01*
X12515420Y-25747698D02*
X12524943Y-25738174D01*
X12524943Y-25738174D02*
X12543991Y-25728650D01*
X12543991Y-25728650D02*
X12572563Y-25728650D01*
X12572563Y-25728650D02*
X12591610Y-25738174D01*
X12591610Y-25738174D02*
X12601134Y-25757222D01*
X12601134Y-25757222D02*
X12601134Y-25861984D01*
X12601134Y-25757222D02*
X12610658Y-25738174D01*
X12610658Y-25738174D02*
X12629705Y-25728650D01*
X12629705Y-25728650D02*
X12658277Y-25728650D01*
X12658277Y-25728650D02*
X12677324Y-25738174D01*
X12677324Y-25738174D02*
X12686848Y-25757222D01*
X12686848Y-25757222D02*
X12686848Y-25861984D01*
X12782086Y-25861984D02*
X12782086Y-25728650D01*
X12782086Y-25747698D02*
X12791610Y-25738174D01*
X12791610Y-25738174D02*
X12810658Y-25728650D01*
X12810658Y-25728650D02*
X12839229Y-25728650D01*
X12839229Y-25728650D02*
X12858277Y-25738174D01*
X12858277Y-25738174D02*
X12867801Y-25757222D01*
X12867801Y-25757222D02*
X12867801Y-25861984D01*
X12867801Y-25757222D02*
X12877324Y-25738174D01*
X12877324Y-25738174D02*
X12896372Y-25728650D01*
X12896372Y-25728650D02*
X12924943Y-25728650D01*
X12924943Y-25728650D02*
X12943991Y-25738174D01*
X12943991Y-25738174D02*
X12953515Y-25757222D01*
X12953515Y-25757222D02*
X12953515Y-25861984D01*
X13343991Y-25652460D02*
X13172563Y-25909603D01*
X13601134Y-25661984D02*
X13620182Y-25661984D01*
X13620182Y-25661984D02*
X13639229Y-25671508D01*
X13639229Y-25671508D02*
X13648753Y-25681031D01*
X13648753Y-25681031D02*
X13658277Y-25700079D01*
X13658277Y-25700079D02*
X13667801Y-25738174D01*
X13667801Y-25738174D02*
X13667801Y-25785793D01*
X13667801Y-25785793D02*
X13658277Y-25823888D01*
X13658277Y-25823888D02*
X13648753Y-25842936D01*
X13648753Y-25842936D02*
X13639229Y-25852460D01*
X13639229Y-25852460D02*
X13620182Y-25861984D01*
X13620182Y-25861984D02*
X13601134Y-25861984D01*
X13601134Y-25861984D02*
X13582086Y-25852460D01*
X13582086Y-25852460D02*
X13572563Y-25842936D01*
X13572563Y-25842936D02*
X13563039Y-25823888D01*
X13563039Y-25823888D02*
X13553515Y-25785793D01*
X13553515Y-25785793D02*
X13553515Y-25738174D01*
X13553515Y-25738174D02*
X13563039Y-25700079D01*
X13563039Y-25700079D02*
X13572563Y-25681031D01*
X13572563Y-25681031D02*
X13582086Y-25671508D01*
X13582086Y-25671508D02*
X13601134Y-25661984D01*
X13753515Y-25842936D02*
X13763039Y-25852460D01*
X13763039Y-25852460D02*
X13753515Y-25861984D01*
X13753515Y-25861984D02*
X13743991Y-25852460D01*
X13743991Y-25852460D02*
X13753515Y-25842936D01*
X13753515Y-25842936D02*
X13753515Y-25861984D01*
X13886848Y-25661984D02*
X13905896Y-25661984D01*
X13905896Y-25661984D02*
X13924944Y-25671508D01*
X13924944Y-25671508D02*
X13934467Y-25681031D01*
X13934467Y-25681031D02*
X13943991Y-25700079D01*
X13943991Y-25700079D02*
X13953515Y-25738174D01*
X13953515Y-25738174D02*
X13953515Y-25785793D01*
X13953515Y-25785793D02*
X13943991Y-25823888D01*
X13943991Y-25823888D02*
X13934467Y-25842936D01*
X13934467Y-25842936D02*
X13924944Y-25852460D01*
X13924944Y-25852460D02*
X13905896Y-25861984D01*
X13905896Y-25861984D02*
X13886848Y-25861984D01*
X13886848Y-25861984D02*
X13867801Y-25852460D01*
X13867801Y-25852460D02*
X13858277Y-25842936D01*
X13858277Y-25842936D02*
X13848753Y-25823888D01*
X13848753Y-25823888D02*
X13839229Y-25785793D01*
X13839229Y-25785793D02*
X13839229Y-25738174D01*
X13839229Y-25738174D02*
X13848753Y-25700079D01*
X13848753Y-25700079D02*
X13858277Y-25681031D01*
X13858277Y-25681031D02*
X13867801Y-25671508D01*
X13867801Y-25671508D02*
X13886848Y-25661984D01*
X14020182Y-25661984D02*
X14143991Y-25661984D01*
X14143991Y-25661984D02*
X14077325Y-25738174D01*
X14077325Y-25738174D02*
X14105896Y-25738174D01*
X14105896Y-25738174D02*
X14124944Y-25747698D01*
X14124944Y-25747698D02*
X14134467Y-25757222D01*
X14134467Y-25757222D02*
X14143991Y-25776269D01*
X14143991Y-25776269D02*
X14143991Y-25823888D01*
X14143991Y-25823888D02*
X14134467Y-25842936D01*
X14134467Y-25842936D02*
X14124944Y-25852460D01*
X14124944Y-25852460D02*
X14105896Y-25861984D01*
X14105896Y-25861984D02*
X14048753Y-25861984D01*
X14048753Y-25861984D02*
X14029706Y-25852460D01*
X14029706Y-25852460D02*
X14020182Y-25842936D01*
X14324944Y-25661984D02*
X14229706Y-25661984D01*
X14229706Y-25661984D02*
X14220182Y-25757222D01*
X14220182Y-25757222D02*
X14229706Y-25747698D01*
X14229706Y-25747698D02*
X14248753Y-25738174D01*
X14248753Y-25738174D02*
X14296372Y-25738174D01*
X14296372Y-25738174D02*
X14315420Y-25747698D01*
X14315420Y-25747698D02*
X14324944Y-25757222D01*
X14324944Y-25757222D02*
X14334467Y-25776269D01*
X14334467Y-25776269D02*
X14334467Y-25823888D01*
X14334467Y-25823888D02*
X14324944Y-25842936D01*
X14324944Y-25842936D02*
X14315420Y-25852460D01*
X14315420Y-25852460D02*
X14296372Y-25861984D01*
X14296372Y-25861984D02*
X14248753Y-25861984D01*
X14248753Y-25861984D02*
X14229706Y-25852460D01*
X14229706Y-25852460D02*
X14220182Y-25842936D01*
X14505896Y-25728650D02*
X14505896Y-25861984D01*
X14458277Y-25652460D02*
X14410658Y-25795317D01*
X14410658Y-25795317D02*
X14534467Y-25795317D01*
X14601134Y-25661984D02*
X14601134Y-25700079D01*
X14677325Y-25661984D02*
X14677325Y-25700079D01*
X14972563Y-25938174D02*
X14963039Y-25928650D01*
X14963039Y-25928650D02*
X14943991Y-25900079D01*
X14943991Y-25900079D02*
X14934468Y-25881031D01*
X14934468Y-25881031D02*
X14924944Y-25852460D01*
X14924944Y-25852460D02*
X14915420Y-25804841D01*
X14915420Y-25804841D02*
X14915420Y-25766746D01*
X14915420Y-25766746D02*
X14924944Y-25719127D01*
X14924944Y-25719127D02*
X14934468Y-25690555D01*
X14934468Y-25690555D02*
X14943991Y-25671508D01*
X14943991Y-25671508D02*
X14963039Y-25642936D01*
X14963039Y-25642936D02*
X14972563Y-25633412D01*
X15134468Y-25728650D02*
X15134468Y-25861984D01*
X15086848Y-25652460D02*
X15039229Y-25795317D01*
X15039229Y-25795317D02*
X15163039Y-25795317D01*
X15267801Y-25747698D02*
X15248753Y-25738174D01*
X15248753Y-25738174D02*
X15239229Y-25728650D01*
X15239229Y-25728650D02*
X15229706Y-25709603D01*
X15229706Y-25709603D02*
X15229706Y-25700079D01*
X15229706Y-25700079D02*
X15239229Y-25681031D01*
X15239229Y-25681031D02*
X15248753Y-25671508D01*
X15248753Y-25671508D02*
X15267801Y-25661984D01*
X15267801Y-25661984D02*
X15305896Y-25661984D01*
X15305896Y-25661984D02*
X15324944Y-25671508D01*
X15324944Y-25671508D02*
X15334468Y-25681031D01*
X15334468Y-25681031D02*
X15343991Y-25700079D01*
X15343991Y-25700079D02*
X15343991Y-25709603D01*
X15343991Y-25709603D02*
X15334468Y-25728650D01*
X15334468Y-25728650D02*
X15324944Y-25738174D01*
X15324944Y-25738174D02*
X15305896Y-25747698D01*
X15305896Y-25747698D02*
X15267801Y-25747698D01*
X15267801Y-25747698D02*
X15248753Y-25757222D01*
X15248753Y-25757222D02*
X15239229Y-25766746D01*
X15239229Y-25766746D02*
X15229706Y-25785793D01*
X15229706Y-25785793D02*
X15229706Y-25823888D01*
X15229706Y-25823888D02*
X15239229Y-25842936D01*
X15239229Y-25842936D02*
X15248753Y-25852460D01*
X15248753Y-25852460D02*
X15267801Y-25861984D01*
X15267801Y-25861984D02*
X15305896Y-25861984D01*
X15305896Y-25861984D02*
X15324944Y-25852460D01*
X15324944Y-25852460D02*
X15334468Y-25842936D01*
X15334468Y-25842936D02*
X15343991Y-25823888D01*
X15343991Y-25823888D02*
X15343991Y-25785793D01*
X15343991Y-25785793D02*
X15334468Y-25766746D01*
X15334468Y-25766746D02*
X15324944Y-25757222D01*
X15324944Y-25757222D02*
X15305896Y-25747698D01*
X15582087Y-25861984D02*
X15582087Y-25661984D01*
X15667801Y-25861984D02*
X15667801Y-25757222D01*
X15667801Y-25757222D02*
X15658277Y-25738174D01*
X15658277Y-25738174D02*
X15639230Y-25728650D01*
X15639230Y-25728650D02*
X15610658Y-25728650D01*
X15610658Y-25728650D02*
X15591610Y-25738174D01*
X15591610Y-25738174D02*
X15582087Y-25747698D01*
X15791610Y-25861984D02*
X15772563Y-25852460D01*
X15772563Y-25852460D02*
X15763039Y-25842936D01*
X15763039Y-25842936D02*
X15753515Y-25823888D01*
X15753515Y-25823888D02*
X15753515Y-25766746D01*
X15753515Y-25766746D02*
X15763039Y-25747698D01*
X15763039Y-25747698D02*
X15772563Y-25738174D01*
X15772563Y-25738174D02*
X15791610Y-25728650D01*
X15791610Y-25728650D02*
X15820182Y-25728650D01*
X15820182Y-25728650D02*
X15839230Y-25738174D01*
X15839230Y-25738174D02*
X15848753Y-25747698D01*
X15848753Y-25747698D02*
X15858277Y-25766746D01*
X15858277Y-25766746D02*
X15858277Y-25823888D01*
X15858277Y-25823888D02*
X15848753Y-25842936D01*
X15848753Y-25842936D02*
X15839230Y-25852460D01*
X15839230Y-25852460D02*
X15820182Y-25861984D01*
X15820182Y-25861984D02*
X15791610Y-25861984D01*
X15972563Y-25861984D02*
X15953515Y-25852460D01*
X15953515Y-25852460D02*
X15943991Y-25833412D01*
X15943991Y-25833412D02*
X15943991Y-25661984D01*
X16124944Y-25852460D02*
X16105896Y-25861984D01*
X16105896Y-25861984D02*
X16067801Y-25861984D01*
X16067801Y-25861984D02*
X16048753Y-25852460D01*
X16048753Y-25852460D02*
X16039230Y-25833412D01*
X16039230Y-25833412D02*
X16039230Y-25757222D01*
X16039230Y-25757222D02*
X16048753Y-25738174D01*
X16048753Y-25738174D02*
X16067801Y-25728650D01*
X16067801Y-25728650D02*
X16105896Y-25728650D01*
X16105896Y-25728650D02*
X16124944Y-25738174D01*
X16124944Y-25738174D02*
X16134468Y-25757222D01*
X16134468Y-25757222D02*
X16134468Y-25776269D01*
X16134468Y-25776269D02*
X16039230Y-25795317D01*
X16210658Y-25852460D02*
X16229706Y-25861984D01*
X16229706Y-25861984D02*
X16267801Y-25861984D01*
X16267801Y-25861984D02*
X16286849Y-25852460D01*
X16286849Y-25852460D02*
X16296372Y-25833412D01*
X16296372Y-25833412D02*
X16296372Y-25823888D01*
X16296372Y-25823888D02*
X16286849Y-25804841D01*
X16286849Y-25804841D02*
X16267801Y-25795317D01*
X16267801Y-25795317D02*
X16239230Y-25795317D01*
X16239230Y-25795317D02*
X16220182Y-25785793D01*
X16220182Y-25785793D02*
X16210658Y-25766746D01*
X16210658Y-25766746D02*
X16210658Y-25757222D01*
X16210658Y-25757222D02*
X16220182Y-25738174D01*
X16220182Y-25738174D02*
X16239230Y-25728650D01*
X16239230Y-25728650D02*
X16267801Y-25728650D01*
X16267801Y-25728650D02*
X16286849Y-25738174D01*
X16363039Y-25938174D02*
X16372563Y-25928650D01*
X16372563Y-25928650D02*
X16391611Y-25900079D01*
X16391611Y-25900079D02*
X16401134Y-25881031D01*
X16401134Y-25881031D02*
X16410658Y-25852460D01*
X16410658Y-25852460D02*
X16420182Y-25804841D01*
X16420182Y-25804841D02*
X16420182Y-25766746D01*
X16420182Y-25766746D02*
X16410658Y-25719127D01*
X16410658Y-25719127D02*
X16401134Y-25690555D01*
X16401134Y-25690555D02*
X16391611Y-25671508D01*
X16391611Y-25671508D02*
X16372563Y-25642936D01*
X16372563Y-25642936D02*
X16363039Y-25633412D01*
D12*
X11382856Y-26069856D02*
X11382856Y-25999144D01*
X11312144Y-25999144D01*
X11312144Y-26069856D01*
X11382856Y-26069856D01*
D11*
X11763039Y-26125984D02*
X11648753Y-26125984D01*
X11705896Y-26125984D02*
X11705896Y-25925984D01*
X11705896Y-25925984D02*
X11686848Y-25954555D01*
X11686848Y-25954555D02*
X11667801Y-25973603D01*
X11667801Y-25973603D02*
X11648753Y-25983127D01*
X11848753Y-26106936D02*
X11858277Y-26116460D01*
X11858277Y-26116460D02*
X11848753Y-26125984D01*
X11848753Y-26125984D02*
X11839229Y-26116460D01*
X11839229Y-26116460D02*
X11848753Y-26106936D01*
X11848753Y-26106936D02*
X11848753Y-26125984D01*
X11982086Y-25925984D02*
X12001134Y-25925984D01*
X12001134Y-25925984D02*
X12020182Y-25935508D01*
X12020182Y-25935508D02*
X12029705Y-25945031D01*
X12029705Y-25945031D02*
X12039229Y-25964079D01*
X12039229Y-25964079D02*
X12048753Y-26002174D01*
X12048753Y-26002174D02*
X12048753Y-26049793D01*
X12048753Y-26049793D02*
X12039229Y-26087888D01*
X12039229Y-26087888D02*
X12029705Y-26106936D01*
X12029705Y-26106936D02*
X12020182Y-26116460D01*
X12020182Y-26116460D02*
X12001134Y-26125984D01*
X12001134Y-26125984D02*
X11982086Y-26125984D01*
X11982086Y-26125984D02*
X11963039Y-26116460D01*
X11963039Y-26116460D02*
X11953515Y-26106936D01*
X11953515Y-26106936D02*
X11943991Y-26087888D01*
X11943991Y-26087888D02*
X11934467Y-26049793D01*
X11934467Y-26049793D02*
X11934467Y-26002174D01*
X11934467Y-26002174D02*
X11943991Y-25964079D01*
X11943991Y-25964079D02*
X11953515Y-25945031D01*
X11953515Y-25945031D02*
X11963039Y-25935508D01*
X11963039Y-25935508D02*
X11982086Y-25925984D01*
X12172562Y-25925984D02*
X12191610Y-25925984D01*
X12191610Y-25925984D02*
X12210658Y-25935508D01*
X12210658Y-25935508D02*
X12220182Y-25945031D01*
X12220182Y-25945031D02*
X12229705Y-25964079D01*
X12229705Y-25964079D02*
X12239229Y-26002174D01*
X12239229Y-26002174D02*
X12239229Y-26049793D01*
X12239229Y-26049793D02*
X12229705Y-26087888D01*
X12229705Y-26087888D02*
X12220182Y-26106936D01*
X12220182Y-26106936D02*
X12210658Y-26116460D01*
X12210658Y-26116460D02*
X12191610Y-26125984D01*
X12191610Y-26125984D02*
X12172562Y-26125984D01*
X12172562Y-26125984D02*
X12153515Y-26116460D01*
X12153515Y-26116460D02*
X12143991Y-26106936D01*
X12143991Y-26106936D02*
X12134467Y-26087888D01*
X12134467Y-26087888D02*
X12124943Y-26049793D01*
X12124943Y-26049793D02*
X12124943Y-26002174D01*
X12124943Y-26002174D02*
X12134467Y-25964079D01*
X12134467Y-25964079D02*
X12143991Y-25945031D01*
X12143991Y-25945031D02*
X12153515Y-25935508D01*
X12153515Y-25935508D02*
X12172562Y-25925984D01*
X12363039Y-25925984D02*
X12382086Y-25925984D01*
X12382086Y-25925984D02*
X12401134Y-25935508D01*
X12401134Y-25935508D02*
X12410658Y-25945031D01*
X12410658Y-25945031D02*
X12420182Y-25964079D01*
X12420182Y-25964079D02*
X12429705Y-26002174D01*
X12429705Y-26002174D02*
X12429705Y-26049793D01*
X12429705Y-26049793D02*
X12420182Y-26087888D01*
X12420182Y-26087888D02*
X12410658Y-26106936D01*
X12410658Y-26106936D02*
X12401134Y-26116460D01*
X12401134Y-26116460D02*
X12382086Y-26125984D01*
X12382086Y-26125984D02*
X12363039Y-26125984D01*
X12363039Y-26125984D02*
X12343991Y-26116460D01*
X12343991Y-26116460D02*
X12334467Y-26106936D01*
X12334467Y-26106936D02*
X12324943Y-26087888D01*
X12324943Y-26087888D02*
X12315420Y-26049793D01*
X12315420Y-26049793D02*
X12315420Y-26002174D01*
X12315420Y-26002174D02*
X12324943Y-25964079D01*
X12324943Y-25964079D02*
X12334467Y-25945031D01*
X12334467Y-25945031D02*
X12343991Y-25935508D01*
X12343991Y-25935508D02*
X12363039Y-25925984D01*
X12515420Y-26125984D02*
X12515420Y-25992650D01*
X12515420Y-26011698D02*
X12524943Y-26002174D01*
X12524943Y-26002174D02*
X12543991Y-25992650D01*
X12543991Y-25992650D02*
X12572563Y-25992650D01*
X12572563Y-25992650D02*
X12591610Y-26002174D01*
X12591610Y-26002174D02*
X12601134Y-26021222D01*
X12601134Y-26021222D02*
X12601134Y-26125984D01*
X12601134Y-26021222D02*
X12610658Y-26002174D01*
X12610658Y-26002174D02*
X12629705Y-25992650D01*
X12629705Y-25992650D02*
X12658277Y-25992650D01*
X12658277Y-25992650D02*
X12677324Y-26002174D01*
X12677324Y-26002174D02*
X12686848Y-26021222D01*
X12686848Y-26021222D02*
X12686848Y-26125984D01*
X12782086Y-26125984D02*
X12782086Y-25992650D01*
X12782086Y-26011698D02*
X12791610Y-26002174D01*
X12791610Y-26002174D02*
X12810658Y-25992650D01*
X12810658Y-25992650D02*
X12839229Y-25992650D01*
X12839229Y-25992650D02*
X12858277Y-26002174D01*
X12858277Y-26002174D02*
X12867801Y-26021222D01*
X12867801Y-26021222D02*
X12867801Y-26125984D01*
X12867801Y-26021222D02*
X12877324Y-26002174D01*
X12877324Y-26002174D02*
X12896372Y-25992650D01*
X12896372Y-25992650D02*
X12924943Y-25992650D01*
X12924943Y-25992650D02*
X12943991Y-26002174D01*
X12943991Y-26002174D02*
X12953515Y-26021222D01*
X12953515Y-26021222D02*
X12953515Y-26125984D01*
X13343991Y-25916460D02*
X13172563Y-26173603D01*
X13601134Y-25925984D02*
X13620182Y-25925984D01*
X13620182Y-25925984D02*
X13639229Y-25935508D01*
X13639229Y-25935508D02*
X13648753Y-25945031D01*
X13648753Y-25945031D02*
X13658277Y-25964079D01*
X13658277Y-25964079D02*
X13667801Y-26002174D01*
X13667801Y-26002174D02*
X13667801Y-26049793D01*
X13667801Y-26049793D02*
X13658277Y-26087888D01*
X13658277Y-26087888D02*
X13648753Y-26106936D01*
X13648753Y-26106936D02*
X13639229Y-26116460D01*
X13639229Y-26116460D02*
X13620182Y-26125984D01*
X13620182Y-26125984D02*
X13601134Y-26125984D01*
X13601134Y-26125984D02*
X13582086Y-26116460D01*
X13582086Y-26116460D02*
X13572563Y-26106936D01*
X13572563Y-26106936D02*
X13563039Y-26087888D01*
X13563039Y-26087888D02*
X13553515Y-26049793D01*
X13553515Y-26049793D02*
X13553515Y-26002174D01*
X13553515Y-26002174D02*
X13563039Y-25964079D01*
X13563039Y-25964079D02*
X13572563Y-25945031D01*
X13572563Y-25945031D02*
X13582086Y-25935508D01*
X13582086Y-25935508D02*
X13601134Y-25925984D01*
X13753515Y-26106936D02*
X13763039Y-26116460D01*
X13763039Y-26116460D02*
X13753515Y-26125984D01*
X13753515Y-26125984D02*
X13743991Y-26116460D01*
X13743991Y-26116460D02*
X13753515Y-26106936D01*
X13753515Y-26106936D02*
X13753515Y-26125984D01*
X13886848Y-25925984D02*
X13905896Y-25925984D01*
X13905896Y-25925984D02*
X13924944Y-25935508D01*
X13924944Y-25935508D02*
X13934467Y-25945031D01*
X13934467Y-25945031D02*
X13943991Y-25964079D01*
X13943991Y-25964079D02*
X13953515Y-26002174D01*
X13953515Y-26002174D02*
X13953515Y-26049793D01*
X13953515Y-26049793D02*
X13943991Y-26087888D01*
X13943991Y-26087888D02*
X13934467Y-26106936D01*
X13934467Y-26106936D02*
X13924944Y-26116460D01*
X13924944Y-26116460D02*
X13905896Y-26125984D01*
X13905896Y-26125984D02*
X13886848Y-26125984D01*
X13886848Y-26125984D02*
X13867801Y-26116460D01*
X13867801Y-26116460D02*
X13858277Y-26106936D01*
X13858277Y-26106936D02*
X13848753Y-26087888D01*
X13848753Y-26087888D02*
X13839229Y-26049793D01*
X13839229Y-26049793D02*
X13839229Y-26002174D01*
X13839229Y-26002174D02*
X13848753Y-25964079D01*
X13848753Y-25964079D02*
X13858277Y-25945031D01*
X13858277Y-25945031D02*
X13867801Y-25935508D01*
X13867801Y-25935508D02*
X13886848Y-25925984D01*
X14020182Y-25925984D02*
X14143991Y-25925984D01*
X14143991Y-25925984D02*
X14077325Y-26002174D01*
X14077325Y-26002174D02*
X14105896Y-26002174D01*
X14105896Y-26002174D02*
X14124944Y-26011698D01*
X14124944Y-26011698D02*
X14134467Y-26021222D01*
X14134467Y-26021222D02*
X14143991Y-26040269D01*
X14143991Y-26040269D02*
X14143991Y-26087888D01*
X14143991Y-26087888D02*
X14134467Y-26106936D01*
X14134467Y-26106936D02*
X14124944Y-26116460D01*
X14124944Y-26116460D02*
X14105896Y-26125984D01*
X14105896Y-26125984D02*
X14048753Y-26125984D01*
X14048753Y-26125984D02*
X14029706Y-26116460D01*
X14029706Y-26116460D02*
X14020182Y-26106936D01*
X14239229Y-26125984D02*
X14277325Y-26125984D01*
X14277325Y-26125984D02*
X14296372Y-26116460D01*
X14296372Y-26116460D02*
X14305896Y-26106936D01*
X14305896Y-26106936D02*
X14324944Y-26078365D01*
X14324944Y-26078365D02*
X14334467Y-26040269D01*
X14334467Y-26040269D02*
X14334467Y-25964079D01*
X14334467Y-25964079D02*
X14324944Y-25945031D01*
X14324944Y-25945031D02*
X14315420Y-25935508D01*
X14315420Y-25935508D02*
X14296372Y-25925984D01*
X14296372Y-25925984D02*
X14258277Y-25925984D01*
X14258277Y-25925984D02*
X14239229Y-25935508D01*
X14239229Y-25935508D02*
X14229706Y-25945031D01*
X14229706Y-25945031D02*
X14220182Y-25964079D01*
X14220182Y-25964079D02*
X14220182Y-26011698D01*
X14220182Y-26011698D02*
X14229706Y-26030746D01*
X14229706Y-26030746D02*
X14239229Y-26040269D01*
X14239229Y-26040269D02*
X14258277Y-26049793D01*
X14258277Y-26049793D02*
X14296372Y-26049793D01*
X14296372Y-26049793D02*
X14315420Y-26040269D01*
X14315420Y-26040269D02*
X14324944Y-26030746D01*
X14324944Y-26030746D02*
X14334467Y-26011698D01*
X14505896Y-25992650D02*
X14505896Y-26125984D01*
X14458277Y-25916460D02*
X14410658Y-26059317D01*
X14410658Y-26059317D02*
X14534467Y-26059317D01*
X14601134Y-25925984D02*
X14601134Y-25964079D01*
X14677325Y-25925984D02*
X14677325Y-25964079D01*
X14972563Y-26202174D02*
X14963039Y-26192650D01*
X14963039Y-26192650D02*
X14943991Y-26164079D01*
X14943991Y-26164079D02*
X14934468Y-26145031D01*
X14934468Y-26145031D02*
X14924944Y-26116460D01*
X14924944Y-26116460D02*
X14915420Y-26068841D01*
X14915420Y-26068841D02*
X14915420Y-26030746D01*
X14915420Y-26030746D02*
X14924944Y-25983127D01*
X14924944Y-25983127D02*
X14934468Y-25954555D01*
X14934468Y-25954555D02*
X14943991Y-25935508D01*
X14943991Y-25935508D02*
X14963039Y-25906936D01*
X14963039Y-25906936D02*
X14972563Y-25897412D01*
X15039229Y-25945031D02*
X15048753Y-25935508D01*
X15048753Y-25935508D02*
X15067801Y-25925984D01*
X15067801Y-25925984D02*
X15115420Y-25925984D01*
X15115420Y-25925984D02*
X15134468Y-25935508D01*
X15134468Y-25935508D02*
X15143991Y-25945031D01*
X15143991Y-25945031D02*
X15153515Y-25964079D01*
X15153515Y-25964079D02*
X15153515Y-25983127D01*
X15153515Y-25983127D02*
X15143991Y-26011698D01*
X15143991Y-26011698D02*
X15029706Y-26125984D01*
X15029706Y-26125984D02*
X15153515Y-26125984D01*
X15391610Y-26125984D02*
X15391610Y-25925984D01*
X15477325Y-26125984D02*
X15477325Y-26021222D01*
X15477325Y-26021222D02*
X15467801Y-26002174D01*
X15467801Y-26002174D02*
X15448753Y-25992650D01*
X15448753Y-25992650D02*
X15420182Y-25992650D01*
X15420182Y-25992650D02*
X15401134Y-26002174D01*
X15401134Y-26002174D02*
X15391610Y-26011698D01*
X15601134Y-26125984D02*
X15582087Y-26116460D01*
X15582087Y-26116460D02*
X15572563Y-26106936D01*
X15572563Y-26106936D02*
X15563039Y-26087888D01*
X15563039Y-26087888D02*
X15563039Y-26030746D01*
X15563039Y-26030746D02*
X15572563Y-26011698D01*
X15572563Y-26011698D02*
X15582087Y-26002174D01*
X15582087Y-26002174D02*
X15601134Y-25992650D01*
X15601134Y-25992650D02*
X15629706Y-25992650D01*
X15629706Y-25992650D02*
X15648753Y-26002174D01*
X15648753Y-26002174D02*
X15658277Y-26011698D01*
X15658277Y-26011698D02*
X15667801Y-26030746D01*
X15667801Y-26030746D02*
X15667801Y-26087888D01*
X15667801Y-26087888D02*
X15658277Y-26106936D01*
X15658277Y-26106936D02*
X15648753Y-26116460D01*
X15648753Y-26116460D02*
X15629706Y-26125984D01*
X15629706Y-26125984D02*
X15601134Y-26125984D01*
X15782087Y-26125984D02*
X15763039Y-26116460D01*
X15763039Y-26116460D02*
X15753515Y-26097412D01*
X15753515Y-26097412D02*
X15753515Y-25925984D01*
X15934468Y-26116460D02*
X15915420Y-26125984D01*
X15915420Y-26125984D02*
X15877325Y-26125984D01*
X15877325Y-26125984D02*
X15858277Y-26116460D01*
X15858277Y-26116460D02*
X15848753Y-26097412D01*
X15848753Y-26097412D02*
X15848753Y-26021222D01*
X15848753Y-26021222D02*
X15858277Y-26002174D01*
X15858277Y-26002174D02*
X15877325Y-25992650D01*
X15877325Y-25992650D02*
X15915420Y-25992650D01*
X15915420Y-25992650D02*
X15934468Y-26002174D01*
X15934468Y-26002174D02*
X15943991Y-26021222D01*
X15943991Y-26021222D02*
X15943991Y-26040269D01*
X15943991Y-26040269D02*
X15848753Y-26059317D01*
X16020182Y-26116460D02*
X16039230Y-26125984D01*
X16039230Y-26125984D02*
X16077325Y-26125984D01*
X16077325Y-26125984D02*
X16096372Y-26116460D01*
X16096372Y-26116460D02*
X16105896Y-26097412D01*
X16105896Y-26097412D02*
X16105896Y-26087888D01*
X16105896Y-26087888D02*
X16096372Y-26068841D01*
X16096372Y-26068841D02*
X16077325Y-26059317D01*
X16077325Y-26059317D02*
X16048753Y-26059317D01*
X16048753Y-26059317D02*
X16029706Y-26049793D01*
X16029706Y-26049793D02*
X16020182Y-26030746D01*
X16020182Y-26030746D02*
X16020182Y-26021222D01*
X16020182Y-26021222D02*
X16029706Y-26002174D01*
X16029706Y-26002174D02*
X16048753Y-25992650D01*
X16048753Y-25992650D02*
X16077325Y-25992650D01*
X16077325Y-25992650D02*
X16096372Y-26002174D01*
X16172563Y-26202174D02*
X16182087Y-26192650D01*
X16182087Y-26192650D02*
X16201134Y-26164079D01*
X16201134Y-26164079D02*
X16210658Y-26145031D01*
X16210658Y-26145031D02*
X16220182Y-26116460D01*
X16220182Y-26116460D02*
X16229706Y-26068841D01*
X16229706Y-26068841D02*
X16229706Y-26030746D01*
X16229706Y-26030746D02*
X16220182Y-25983127D01*
X16220182Y-25983127D02*
X16210658Y-25954555D01*
X16210658Y-25954555D02*
X16201134Y-25935508D01*
X16201134Y-25935508D02*
X16182087Y-25906936D01*
X16182087Y-25906936D02*
X16172563Y-25897412D01*
M02*
