%TF.GenerationSoftware,KiCad,Pcbnew,8.0.7*%
%TF.CreationDate,2025-02-18T21:39:35+09:00*%
%TF.ProjectId,LINESensorV3.1,4c494e45-5365-46e7-936f-7256332e312e,rev?*%
%TF.SameCoordinates,Original*%
%TF.FileFunction,Legend,Top*%
%TF.FilePolarity,Positive*%
%FSLAX46Y46*%
G04 Gerber Fmt 4.6, Leading zero omitted, Abs format (unit mm)*
G04 Created by KiCad (PCBNEW 8.0.7) date 2025-02-18 21:39:35*
%MOMM*%
%LPD*%
G01*
G04 APERTURE LIST*
%ADD10C,0.100000*%
%ADD11C,0.150000*%
%ADD12C,0.120000*%
G04 APERTURE END LIST*
D10*
X187880074Y-132672419D02*
X187403884Y-132672419D01*
X187403884Y-132672419D02*
X187403884Y-131672419D01*
X188213408Y-132672419D02*
X188213408Y-131672419D01*
X188689598Y-132672419D02*
X188689598Y-131672419D01*
X188689598Y-131672419D02*
X189261026Y-132672419D01*
X189261026Y-132672419D02*
X189261026Y-131672419D01*
X189737217Y-132148609D02*
X190070550Y-132148609D01*
X190213407Y-132672419D02*
X189737217Y-132672419D01*
X189737217Y-132672419D02*
X189737217Y-131672419D01*
X189737217Y-131672419D02*
X190213407Y-131672419D01*
X191356265Y-132624800D02*
X191499122Y-132672419D01*
X191499122Y-132672419D02*
X191737217Y-132672419D01*
X191737217Y-132672419D02*
X191832455Y-132624800D01*
X191832455Y-132624800D02*
X191880074Y-132577180D01*
X191880074Y-132577180D02*
X191927693Y-132481942D01*
X191927693Y-132481942D02*
X191927693Y-132386704D01*
X191927693Y-132386704D02*
X191880074Y-132291466D01*
X191880074Y-132291466D02*
X191832455Y-132243847D01*
X191832455Y-132243847D02*
X191737217Y-132196228D01*
X191737217Y-132196228D02*
X191546741Y-132148609D01*
X191546741Y-132148609D02*
X191451503Y-132100990D01*
X191451503Y-132100990D02*
X191403884Y-132053371D01*
X191403884Y-132053371D02*
X191356265Y-131958133D01*
X191356265Y-131958133D02*
X191356265Y-131862895D01*
X191356265Y-131862895D02*
X191403884Y-131767657D01*
X191403884Y-131767657D02*
X191451503Y-131720038D01*
X191451503Y-131720038D02*
X191546741Y-131672419D01*
X191546741Y-131672419D02*
X191784836Y-131672419D01*
X191784836Y-131672419D02*
X191927693Y-131720038D01*
X192737217Y-132624800D02*
X192641979Y-132672419D01*
X192641979Y-132672419D02*
X192451503Y-132672419D01*
X192451503Y-132672419D02*
X192356265Y-132624800D01*
X192356265Y-132624800D02*
X192308646Y-132529561D01*
X192308646Y-132529561D02*
X192308646Y-132148609D01*
X192308646Y-132148609D02*
X192356265Y-132053371D01*
X192356265Y-132053371D02*
X192451503Y-132005752D01*
X192451503Y-132005752D02*
X192641979Y-132005752D01*
X192641979Y-132005752D02*
X192737217Y-132053371D01*
X192737217Y-132053371D02*
X192784836Y-132148609D01*
X192784836Y-132148609D02*
X192784836Y-132243847D01*
X192784836Y-132243847D02*
X192308646Y-132339085D01*
X193213408Y-132005752D02*
X193213408Y-132672419D01*
X193213408Y-132100990D02*
X193261027Y-132053371D01*
X193261027Y-132053371D02*
X193356265Y-132005752D01*
X193356265Y-132005752D02*
X193499122Y-132005752D01*
X193499122Y-132005752D02*
X193594360Y-132053371D01*
X193594360Y-132053371D02*
X193641979Y-132148609D01*
X193641979Y-132148609D02*
X193641979Y-132672419D01*
X194070551Y-132624800D02*
X194165789Y-132672419D01*
X194165789Y-132672419D02*
X194356265Y-132672419D01*
X194356265Y-132672419D02*
X194451503Y-132624800D01*
X194451503Y-132624800D02*
X194499122Y-132529561D01*
X194499122Y-132529561D02*
X194499122Y-132481942D01*
X194499122Y-132481942D02*
X194451503Y-132386704D01*
X194451503Y-132386704D02*
X194356265Y-132339085D01*
X194356265Y-132339085D02*
X194213408Y-132339085D01*
X194213408Y-132339085D02*
X194118170Y-132291466D01*
X194118170Y-132291466D02*
X194070551Y-132196228D01*
X194070551Y-132196228D02*
X194070551Y-132148609D01*
X194070551Y-132148609D02*
X194118170Y-132053371D01*
X194118170Y-132053371D02*
X194213408Y-132005752D01*
X194213408Y-132005752D02*
X194356265Y-132005752D01*
X194356265Y-132005752D02*
X194451503Y-132053371D01*
X195070551Y-132672419D02*
X194975313Y-132624800D01*
X194975313Y-132624800D02*
X194927694Y-132577180D01*
X194927694Y-132577180D02*
X194880075Y-132481942D01*
X194880075Y-132481942D02*
X194880075Y-132196228D01*
X194880075Y-132196228D02*
X194927694Y-132100990D01*
X194927694Y-132100990D02*
X194975313Y-132053371D01*
X194975313Y-132053371D02*
X195070551Y-132005752D01*
X195070551Y-132005752D02*
X195213408Y-132005752D01*
X195213408Y-132005752D02*
X195308646Y-132053371D01*
X195308646Y-132053371D02*
X195356265Y-132100990D01*
X195356265Y-132100990D02*
X195403884Y-132196228D01*
X195403884Y-132196228D02*
X195403884Y-132481942D01*
X195403884Y-132481942D02*
X195356265Y-132577180D01*
X195356265Y-132577180D02*
X195308646Y-132624800D01*
X195308646Y-132624800D02*
X195213408Y-132672419D01*
X195213408Y-132672419D02*
X195070551Y-132672419D01*
X195832456Y-132672419D02*
X195832456Y-132005752D01*
X195832456Y-132196228D02*
X195880075Y-132100990D01*
X195880075Y-132100990D02*
X195927694Y-132053371D01*
X195927694Y-132053371D02*
X196022932Y-132005752D01*
X196022932Y-132005752D02*
X196118170Y-132005752D01*
X165022419Y-150448972D02*
X166022419Y-150115639D01*
X166022419Y-150115639D02*
X165022419Y-149782306D01*
X165498609Y-149448972D02*
X165498609Y-149115639D01*
X166022419Y-148972782D02*
X166022419Y-149448972D01*
X166022419Y-149448972D02*
X165022419Y-149448972D01*
X165022419Y-149448972D02*
X165022419Y-148972782D01*
X165070038Y-148020401D02*
X165022419Y-148115639D01*
X165022419Y-148115639D02*
X165022419Y-148258496D01*
X165022419Y-148258496D02*
X165070038Y-148401353D01*
X165070038Y-148401353D02*
X165165276Y-148496591D01*
X165165276Y-148496591D02*
X165260514Y-148544210D01*
X165260514Y-148544210D02*
X165450990Y-148591829D01*
X165450990Y-148591829D02*
X165593847Y-148591829D01*
X165593847Y-148591829D02*
X165784323Y-148544210D01*
X165784323Y-148544210D02*
X165879561Y-148496591D01*
X165879561Y-148496591D02*
X165974800Y-148401353D01*
X165974800Y-148401353D02*
X166022419Y-148258496D01*
X166022419Y-148258496D02*
X166022419Y-148163258D01*
X166022419Y-148163258D02*
X165974800Y-148020401D01*
X165974800Y-148020401D02*
X165927180Y-147972782D01*
X165927180Y-147972782D02*
X165593847Y-147972782D01*
X165593847Y-147972782D02*
X165593847Y-148163258D01*
X165736704Y-147591829D02*
X165736704Y-147115639D01*
X166022419Y-147687067D02*
X165022419Y-147353734D01*
X165022419Y-147353734D02*
X166022419Y-147020401D01*
X166022419Y-145353734D02*
X165546228Y-145687067D01*
X166022419Y-145925162D02*
X165022419Y-145925162D01*
X165022419Y-145925162D02*
X165022419Y-145544210D01*
X165022419Y-145544210D02*
X165070038Y-145448972D01*
X165070038Y-145448972D02*
X165117657Y-145401353D01*
X165117657Y-145401353D02*
X165212895Y-145353734D01*
X165212895Y-145353734D02*
X165355752Y-145353734D01*
X165355752Y-145353734D02*
X165450990Y-145401353D01*
X165450990Y-145401353D02*
X165498609Y-145448972D01*
X165498609Y-145448972D02*
X165546228Y-145544210D01*
X165546228Y-145544210D02*
X165546228Y-145925162D01*
X165927180Y-144353734D02*
X165974800Y-144401353D01*
X165974800Y-144401353D02*
X166022419Y-144544210D01*
X166022419Y-144544210D02*
X166022419Y-144639448D01*
X166022419Y-144639448D02*
X165974800Y-144782305D01*
X165974800Y-144782305D02*
X165879561Y-144877543D01*
X165879561Y-144877543D02*
X165784323Y-144925162D01*
X165784323Y-144925162D02*
X165593847Y-144972781D01*
X165593847Y-144972781D02*
X165450990Y-144972781D01*
X165450990Y-144972781D02*
X165260514Y-144925162D01*
X165260514Y-144925162D02*
X165165276Y-144877543D01*
X165165276Y-144877543D02*
X165070038Y-144782305D01*
X165070038Y-144782305D02*
X165022419Y-144639448D01*
X165022419Y-144639448D02*
X165022419Y-144544210D01*
X165022419Y-144544210D02*
X165070038Y-144401353D01*
X165070038Y-144401353D02*
X165117657Y-144353734D01*
X165022419Y-143639448D02*
X165736704Y-143639448D01*
X165736704Y-143639448D02*
X165879561Y-143687067D01*
X165879561Y-143687067D02*
X165974800Y-143782305D01*
X165974800Y-143782305D02*
X166022419Y-143925162D01*
X166022419Y-143925162D02*
X166022419Y-144020400D01*
X165022419Y-142877543D02*
X165736704Y-142877543D01*
X165736704Y-142877543D02*
X165879561Y-142925162D01*
X165879561Y-142925162D02*
X165974800Y-143020400D01*
X165974800Y-143020400D02*
X166022419Y-143163257D01*
X166022419Y-143163257D02*
X166022419Y-143258495D01*
X199688646Y-103862419D02*
X200831503Y-103862419D01*
X199831503Y-104100514D02*
X200688646Y-104100514D01*
X199831503Y-104243371D02*
X200688646Y-104243371D01*
X199736265Y-104386228D02*
X200783884Y-104386228D01*
X199641027Y-104529085D02*
X200879122Y-104529085D01*
X199831503Y-103957657D02*
X199831503Y-104243371D01*
X200260074Y-103719561D02*
X200260074Y-103862419D01*
X199831503Y-103957657D02*
X200688646Y-103957657D01*
X200688646Y-103957657D02*
X200688646Y-104243371D01*
X200260074Y-103957657D02*
X200260074Y-104529085D01*
X200260074Y-104529085D02*
X200450550Y-104719561D01*
X200450550Y-104719561D02*
X200783884Y-104862419D01*
X200736265Y-104624323D02*
X200450550Y-104671942D01*
X199974360Y-104624323D02*
X199974360Y-104814800D01*
X200260074Y-104481466D02*
X199974360Y-104624323D01*
X199974360Y-104624323D02*
X199641027Y-104719561D01*
X200260074Y-104767180D02*
X199831503Y-104862419D01*
D11*
X184154063Y-206654026D02*
X183955335Y-206107789D01*
X183602106Y-206506130D02*
X183860925Y-205540204D01*
X183860925Y-205540204D02*
X184228896Y-205638802D01*
X184228896Y-205638802D02*
X184308565Y-205709447D01*
X184308565Y-205709447D02*
X184342236Y-205767769D01*
X184342236Y-205767769D02*
X184363583Y-205872086D01*
X184363583Y-205872086D02*
X184326609Y-206010076D01*
X184326609Y-206010076D02*
X184255963Y-206089744D01*
X184255963Y-206089744D02*
X184197642Y-206123416D01*
X184197642Y-206123416D02*
X184093325Y-206144763D01*
X184093325Y-206144763D02*
X183725353Y-206046165D01*
X185073993Y-206900521D02*
X184522035Y-206752624D01*
X184798014Y-206826572D02*
X185056833Y-205860646D01*
X185056833Y-205860646D02*
X184927866Y-205973986D01*
X184927866Y-205973986D02*
X184811223Y-206041330D01*
X184811223Y-206041330D02*
X184706906Y-206062677D01*
X186206745Y-206168764D02*
X185746780Y-206045517D01*
X185746780Y-206045517D02*
X185577536Y-206493157D01*
X185577536Y-206493157D02*
X185635858Y-206459485D01*
X185635858Y-206459485D02*
X185740175Y-206438138D01*
X185740175Y-206438138D02*
X185970158Y-206499762D01*
X185970158Y-206499762D02*
X186049826Y-206570408D01*
X186049826Y-206570408D02*
X186083497Y-206628729D01*
X186083497Y-206628729D02*
X186104845Y-206733047D01*
X186104845Y-206733047D02*
X186043221Y-206963029D01*
X186043221Y-206963029D02*
X185972575Y-207042697D01*
X185972575Y-207042697D02*
X185914254Y-207076369D01*
X185914254Y-207076369D02*
X185809936Y-207097716D01*
X185809936Y-207097716D02*
X185579954Y-207036093D01*
X185579954Y-207036093D02*
X185500286Y-206965447D01*
X185500286Y-206965447D02*
X185466614Y-206907125D01*
X165480265Y-187934804D02*
X165884326Y-187530743D01*
X166389402Y-188439880D02*
X165682296Y-187732773D01*
X167197525Y-187631758D02*
X166793464Y-188035819D01*
X166995494Y-187833788D02*
X166288387Y-187126681D01*
X166288387Y-187126681D02*
X166322059Y-187295040D01*
X166322059Y-187295040D02*
X166322059Y-187429727D01*
X166322059Y-187429727D02*
X166288387Y-187530742D01*
X167096509Y-186318559D02*
X166961822Y-186453246D01*
X166961822Y-186453246D02*
X166928151Y-186554262D01*
X166928151Y-186554262D02*
X166928151Y-186621605D01*
X166928151Y-186621605D02*
X166961822Y-186789964D01*
X166961822Y-186789964D02*
X167062838Y-186958323D01*
X167062838Y-186958323D02*
X167332212Y-187227697D01*
X167332212Y-187227697D02*
X167433227Y-187261368D01*
X167433227Y-187261368D02*
X167500570Y-187261368D01*
X167500570Y-187261368D02*
X167601586Y-187227697D01*
X167601586Y-187227697D02*
X167736273Y-187093010D01*
X167736273Y-187093010D02*
X167769944Y-186991994D01*
X167769944Y-186991994D02*
X167769944Y-186924651D01*
X167769944Y-186924651D02*
X167736273Y-186823636D01*
X167736273Y-186823636D02*
X167567914Y-186655277D01*
X167567914Y-186655277D02*
X167466899Y-186621605D01*
X167466899Y-186621605D02*
X167399555Y-186621605D01*
X167399555Y-186621605D02*
X167298540Y-186655277D01*
X167298540Y-186655277D02*
X167163853Y-186789964D01*
X167163853Y-186789964D02*
X167130181Y-186890979D01*
X167130181Y-186890979D02*
X167130181Y-186958323D01*
X167130181Y-186958323D02*
X167163853Y-187059338D01*
X183557935Y-198618006D02*
X182634056Y-198235323D01*
X182634056Y-198235323D02*
X182725171Y-198015351D01*
X182725171Y-198015351D02*
X182823834Y-197901591D01*
X182823834Y-197901591D02*
X182948269Y-197850049D01*
X182948269Y-197850049D02*
X183054480Y-197842501D01*
X183054480Y-197842501D02*
X183248681Y-197871399D01*
X183248681Y-197871399D02*
X183380663Y-197926068D01*
X183380663Y-197926068D02*
X183538417Y-198042954D01*
X183538417Y-198042954D02*
X183608183Y-198123394D01*
X183608183Y-198123394D02*
X183659725Y-198247829D01*
X183659725Y-198247829D02*
X183649051Y-198398035D01*
X183649051Y-198398035D02*
X183557935Y-198618006D01*
X184141072Y-197210190D02*
X183922396Y-197738121D01*
X184031734Y-197474155D02*
X183107854Y-197091472D01*
X183107854Y-197091472D02*
X183203391Y-197234129D01*
X183203391Y-197234129D02*
X183254934Y-197358564D01*
X183254934Y-197358564D02*
X183262482Y-197464775D01*
X183853167Y-196163170D02*
X184469087Y-196418293D01*
X183410098Y-196237358D02*
X183978896Y-196730674D01*
X183978896Y-196730674D02*
X184215796Y-196158749D01*
X199238095Y-211254819D02*
X199238095Y-210254819D01*
X199238095Y-210731009D02*
X199809523Y-210731009D01*
X199809523Y-211254819D02*
X199809523Y-210254819D01*
X200190476Y-210254819D02*
X200809523Y-210254819D01*
X200809523Y-210254819D02*
X200476190Y-210635771D01*
X200476190Y-210635771D02*
X200619047Y-210635771D01*
X200619047Y-210635771D02*
X200714285Y-210683390D01*
X200714285Y-210683390D02*
X200761904Y-210731009D01*
X200761904Y-210731009D02*
X200809523Y-210826247D01*
X200809523Y-210826247D02*
X200809523Y-211064342D01*
X200809523Y-211064342D02*
X200761904Y-211159580D01*
X200761904Y-211159580D02*
X200714285Y-211207200D01*
X200714285Y-211207200D02*
X200619047Y-211254819D01*
X200619047Y-211254819D02*
X200333333Y-211254819D01*
X200333333Y-211254819D02*
X200238095Y-211207200D01*
X200238095Y-211207200D02*
X200190476Y-211159580D01*
X176474746Y-195576571D02*
X176760461Y-195081699D01*
X177483629Y-195829135D02*
X176617604Y-195329135D01*
X178055058Y-194839391D02*
X177769343Y-195334263D01*
X177912201Y-195086827D02*
X177046175Y-194586827D01*
X177046175Y-194586827D02*
X177122274Y-194740734D01*
X177122274Y-194740734D02*
X177157134Y-194870832D01*
X177157134Y-194870832D02*
X177150754Y-194977120D01*
X177641413Y-193555844D02*
X177403318Y-193968238D01*
X177403318Y-193968238D02*
X177791902Y-194247572D01*
X177791902Y-194247572D02*
X177774472Y-194182523D01*
X177774472Y-194182523D02*
X177780852Y-194076235D01*
X177780852Y-194076235D02*
X177899899Y-193870039D01*
X177899899Y-193870039D02*
X177988758Y-193811369D01*
X177988758Y-193811369D02*
X178053806Y-193793940D01*
X178053806Y-193793940D02*
X178160094Y-193800319D01*
X178160094Y-193800319D02*
X178366291Y-193919367D01*
X178366291Y-193919367D02*
X178424960Y-194008225D01*
X178424960Y-194008225D02*
X178442390Y-194073274D01*
X178442390Y-194073274D02*
X178436010Y-194179562D01*
X178436010Y-194179562D02*
X178316963Y-194385759D01*
X178316963Y-194385759D02*
X178228104Y-194444428D01*
X178228104Y-194444428D02*
X178163055Y-194461858D01*
X142084819Y-150642857D02*
X141608628Y-150976190D01*
X142084819Y-151214285D02*
X141084819Y-151214285D01*
X141084819Y-151214285D02*
X141084819Y-150833333D01*
X141084819Y-150833333D02*
X141132438Y-150738095D01*
X141132438Y-150738095D02*
X141180057Y-150690476D01*
X141180057Y-150690476D02*
X141275295Y-150642857D01*
X141275295Y-150642857D02*
X141418152Y-150642857D01*
X141418152Y-150642857D02*
X141513390Y-150690476D01*
X141513390Y-150690476D02*
X141561009Y-150738095D01*
X141561009Y-150738095D02*
X141608628Y-150833333D01*
X141608628Y-150833333D02*
X141608628Y-151214285D01*
X141180057Y-150261904D02*
X141132438Y-150214285D01*
X141132438Y-150214285D02*
X141084819Y-150119047D01*
X141084819Y-150119047D02*
X141084819Y-149880952D01*
X141084819Y-149880952D02*
X141132438Y-149785714D01*
X141132438Y-149785714D02*
X141180057Y-149738095D01*
X141180057Y-149738095D02*
X141275295Y-149690476D01*
X141275295Y-149690476D02*
X141370533Y-149690476D01*
X141370533Y-149690476D02*
X141513390Y-149738095D01*
X141513390Y-149738095D02*
X142084819Y-150309523D01*
X142084819Y-150309523D02*
X142084819Y-149690476D01*
X141084819Y-149071428D02*
X141084819Y-148976190D01*
X141084819Y-148976190D02*
X141132438Y-148880952D01*
X141132438Y-148880952D02*
X141180057Y-148833333D01*
X141180057Y-148833333D02*
X141275295Y-148785714D01*
X141275295Y-148785714D02*
X141465771Y-148738095D01*
X141465771Y-148738095D02*
X141703866Y-148738095D01*
X141703866Y-148738095D02*
X141894342Y-148785714D01*
X141894342Y-148785714D02*
X141989580Y-148833333D01*
X141989580Y-148833333D02*
X142037200Y-148880952D01*
X142037200Y-148880952D02*
X142084819Y-148976190D01*
X142084819Y-148976190D02*
X142084819Y-149071428D01*
X142084819Y-149071428D02*
X142037200Y-149166666D01*
X142037200Y-149166666D02*
X141989580Y-149214285D01*
X141989580Y-149214285D02*
X141894342Y-149261904D01*
X141894342Y-149261904D02*
X141703866Y-149309523D01*
X141703866Y-149309523D02*
X141465771Y-149309523D01*
X141465771Y-149309523D02*
X141275295Y-149261904D01*
X141275295Y-149261904D02*
X141180057Y-149214285D01*
X141180057Y-149214285D02*
X141132438Y-149166666D01*
X141132438Y-149166666D02*
X141084819Y-149071428D01*
X258824819Y-150166666D02*
X258348628Y-150499999D01*
X258824819Y-150738094D02*
X257824819Y-150738094D01*
X257824819Y-150738094D02*
X257824819Y-150357142D01*
X257824819Y-150357142D02*
X257872438Y-150261904D01*
X257872438Y-150261904D02*
X257920057Y-150214285D01*
X257920057Y-150214285D02*
X258015295Y-150166666D01*
X258015295Y-150166666D02*
X258158152Y-150166666D01*
X258158152Y-150166666D02*
X258253390Y-150214285D01*
X258253390Y-150214285D02*
X258301009Y-150261904D01*
X258301009Y-150261904D02*
X258348628Y-150357142D01*
X258348628Y-150357142D02*
X258348628Y-150738094D01*
X258253390Y-149595237D02*
X258205771Y-149690475D01*
X258205771Y-149690475D02*
X258158152Y-149738094D01*
X258158152Y-149738094D02*
X258062914Y-149785713D01*
X258062914Y-149785713D02*
X258015295Y-149785713D01*
X258015295Y-149785713D02*
X257920057Y-149738094D01*
X257920057Y-149738094D02*
X257872438Y-149690475D01*
X257872438Y-149690475D02*
X257824819Y-149595237D01*
X257824819Y-149595237D02*
X257824819Y-149404761D01*
X257824819Y-149404761D02*
X257872438Y-149309523D01*
X257872438Y-149309523D02*
X257920057Y-149261904D01*
X257920057Y-149261904D02*
X258015295Y-149214285D01*
X258015295Y-149214285D02*
X258062914Y-149214285D01*
X258062914Y-149214285D02*
X258158152Y-149261904D01*
X258158152Y-149261904D02*
X258205771Y-149309523D01*
X258205771Y-149309523D02*
X258253390Y-149404761D01*
X258253390Y-149404761D02*
X258253390Y-149595237D01*
X258253390Y-149595237D02*
X258301009Y-149690475D01*
X258301009Y-149690475D02*
X258348628Y-149738094D01*
X258348628Y-149738094D02*
X258443866Y-149785713D01*
X258443866Y-149785713D02*
X258634342Y-149785713D01*
X258634342Y-149785713D02*
X258729580Y-149738094D01*
X258729580Y-149738094D02*
X258777200Y-149690475D01*
X258777200Y-149690475D02*
X258824819Y-149595237D01*
X258824819Y-149595237D02*
X258824819Y-149404761D01*
X258824819Y-149404761D02*
X258777200Y-149309523D01*
X258777200Y-149309523D02*
X258729580Y-149261904D01*
X258729580Y-149261904D02*
X258634342Y-149214285D01*
X258634342Y-149214285D02*
X258443866Y-149214285D01*
X258443866Y-149214285D02*
X258348628Y-149261904D01*
X258348628Y-149261904D02*
X258301009Y-149309523D01*
X258301009Y-149309523D02*
X258253390Y-149404761D01*
X231683310Y-187175285D02*
X232476663Y-186566524D01*
X232476663Y-186566524D02*
X232621606Y-186755417D01*
X232621606Y-186755417D02*
X232670794Y-186897742D01*
X232670794Y-186897742D02*
X232653213Y-187031277D01*
X232653213Y-187031277D02*
X232606645Y-187127033D01*
X232606645Y-187127033D02*
X232484518Y-187280766D01*
X232484518Y-187280766D02*
X232371182Y-187367732D01*
X232371182Y-187367732D02*
X232191079Y-187445908D01*
X232191079Y-187445908D02*
X232086533Y-187466107D01*
X232086533Y-187466107D02*
X231952998Y-187448526D01*
X231952998Y-187448526D02*
X231828253Y-187364179D01*
X231828253Y-187364179D02*
X231683310Y-187175285D01*
X232610946Y-188384205D02*
X232263083Y-187930860D01*
X232437015Y-188157532D02*
X233230368Y-187548771D01*
X233230368Y-187548771D02*
X233059054Y-187560179D01*
X233059054Y-187560179D02*
X232925520Y-187542599D01*
X232925520Y-187542599D02*
X232829764Y-187496030D01*
X233781152Y-188266567D02*
X233839129Y-188342124D01*
X233839129Y-188342124D02*
X233859328Y-188446670D01*
X233859328Y-188446670D02*
X233850538Y-188513438D01*
X233850538Y-188513438D02*
X233803969Y-188609194D01*
X233803969Y-188609194D02*
X233681843Y-188762927D01*
X233681843Y-188762927D02*
X233492949Y-188907870D01*
X233492949Y-188907870D02*
X233312846Y-188986046D01*
X233312846Y-188986046D02*
X233208299Y-189006244D01*
X233208299Y-189006244D02*
X233141532Y-188997454D01*
X233141532Y-188997454D02*
X233045776Y-188950885D01*
X233045776Y-188950885D02*
X232987799Y-188875328D01*
X232987799Y-188875328D02*
X232967600Y-188770782D01*
X232967600Y-188770782D02*
X232976390Y-188704015D01*
X232976390Y-188704015D02*
X233022959Y-188608259D01*
X233022959Y-188608259D02*
X233145085Y-188454525D01*
X233145085Y-188454525D02*
X233333979Y-188309582D01*
X233333979Y-188309582D02*
X233514083Y-188231406D01*
X233514083Y-188231406D02*
X233618629Y-188211208D01*
X233618629Y-188211208D02*
X233685396Y-188219998D01*
X233685396Y-188219998D02*
X233781152Y-188266567D01*
X216004960Y-196188345D02*
X216152857Y-196740303D01*
X215112983Y-196723143D02*
X216078909Y-196464324D01*
X215408776Y-197827059D02*
X215260879Y-197275101D01*
X215334828Y-197551080D02*
X216300754Y-197292261D01*
X216300754Y-197292261D02*
X216138115Y-197237242D01*
X216138115Y-197237242D02*
X216021472Y-197169899D01*
X216021472Y-197169899D02*
X215950826Y-197090230D01*
X216381307Y-197960861D02*
X216439628Y-197994533D01*
X216439628Y-197994533D02*
X216510274Y-198074201D01*
X216510274Y-198074201D02*
X216571897Y-198304183D01*
X216571897Y-198304183D02*
X216550550Y-198408501D01*
X216550550Y-198408501D02*
X216516879Y-198466822D01*
X216516879Y-198466822D02*
X216437210Y-198537468D01*
X216437210Y-198537468D02*
X216345217Y-198562117D01*
X216345217Y-198562117D02*
X216194903Y-198553095D01*
X216194903Y-198553095D02*
X215495049Y-198149034D01*
X215495049Y-198149034D02*
X215655270Y-198746988D01*
X214604031Y-206986796D02*
X214158809Y-206613104D01*
X214052073Y-207134692D02*
X213793254Y-206168766D01*
X213793254Y-206168766D02*
X214161226Y-206070169D01*
X214161226Y-206070169D02*
X214265544Y-206091516D01*
X214265544Y-206091516D02*
X214323865Y-206125187D01*
X214323865Y-206125187D02*
X214394511Y-206204856D01*
X214394511Y-206204856D02*
X214431485Y-206342845D01*
X214431485Y-206342845D02*
X214410138Y-206447163D01*
X214410138Y-206447163D02*
X214376466Y-206505484D01*
X214376466Y-206505484D02*
X214296798Y-206576130D01*
X214296798Y-206576130D02*
X213928826Y-206674728D01*
X215523960Y-206740301D02*
X214972003Y-206888198D01*
X215247982Y-206814250D02*
X214989162Y-205848324D01*
X214989162Y-205848324D02*
X214934144Y-206010963D01*
X214934144Y-206010963D02*
X214866800Y-206127605D01*
X214866800Y-206127605D02*
X214787132Y-206198251D01*
X215587117Y-205688102D02*
X216185071Y-205527881D01*
X216185071Y-205527881D02*
X215961693Y-205982126D01*
X215961693Y-205982126D02*
X216099683Y-205945152D01*
X216099683Y-205945152D02*
X216204000Y-205966499D01*
X216204000Y-205966499D02*
X216262321Y-206000171D01*
X216262321Y-206000171D02*
X216332967Y-206079839D01*
X216332967Y-206079839D02*
X216394591Y-206309821D01*
X216394591Y-206309821D02*
X216373244Y-206414139D01*
X216373244Y-206414139D02*
X216339572Y-206472460D01*
X216339572Y-206472460D02*
X216259904Y-206543106D01*
X216259904Y-206543106D02*
X215983925Y-206617054D01*
X215983925Y-206617054D02*
X215879607Y-206595707D01*
X215879607Y-206595707D02*
X215821286Y-206562035D01*
X227414028Y-190472127D02*
X227699742Y-190966999D01*
X226690859Y-191219563D02*
X227556885Y-190719563D01*
X227262288Y-192209307D02*
X226976574Y-191714435D01*
X227119431Y-191961871D02*
X227985456Y-191461871D01*
X227985456Y-191461871D02*
X227814119Y-191450821D01*
X227814119Y-191450821D02*
X227684022Y-191415961D01*
X227684022Y-191415961D02*
X227595163Y-191357292D01*
X227738479Y-193034093D02*
X227452764Y-192539221D01*
X227595621Y-192786657D02*
X228461647Y-192286657D01*
X228461647Y-192286657D02*
X228290310Y-192275607D01*
X228290310Y-192275607D02*
X228160212Y-192240747D01*
X228160212Y-192240747D02*
X228071354Y-192182078D01*
X166116604Y-111451752D02*
X166909957Y-110842991D01*
X166909957Y-110842991D02*
X167054900Y-111031884D01*
X167054900Y-111031884D02*
X167104088Y-111174209D01*
X167104088Y-111174209D02*
X167086507Y-111307744D01*
X167086507Y-111307744D02*
X167039939Y-111403500D01*
X167039939Y-111403500D02*
X166917812Y-111557233D01*
X166917812Y-111557233D02*
X166804476Y-111644199D01*
X166804476Y-111644199D02*
X166624373Y-111722375D01*
X166624373Y-111722375D02*
X166519827Y-111742574D01*
X166519827Y-111742574D02*
X166386292Y-111724993D01*
X166386292Y-111724993D02*
X166261547Y-111640646D01*
X166261547Y-111640646D02*
X166116604Y-111451752D01*
X167414173Y-111656543D02*
X167480940Y-111665333D01*
X167480940Y-111665333D02*
X167576696Y-111711902D01*
X167576696Y-111711902D02*
X167721639Y-111900795D01*
X167721639Y-111900795D02*
X167741838Y-112005341D01*
X167741838Y-112005341D02*
X167733048Y-112072109D01*
X167733048Y-112072109D02*
X167686479Y-112167865D01*
X167686479Y-112167865D02*
X167610921Y-112225842D01*
X167610921Y-112225842D02*
X167468597Y-112275029D01*
X167468597Y-112275029D02*
X166667388Y-112169548D01*
X166667388Y-112169548D02*
X167044240Y-112660672D01*
X167993945Y-112412117D02*
X168060713Y-112420907D01*
X168060713Y-112420907D02*
X168156469Y-112467476D01*
X168156469Y-112467476D02*
X168301412Y-112656370D01*
X168301412Y-112656370D02*
X168321611Y-112760916D01*
X168321611Y-112760916D02*
X168312820Y-112827683D01*
X168312820Y-112827683D02*
X168266252Y-112923439D01*
X168266252Y-112923439D02*
X168190694Y-112981417D01*
X168190694Y-112981417D02*
X168048369Y-113030604D01*
X168048369Y-113030604D02*
X167247161Y-112925123D01*
X167247161Y-112925123D02*
X167624013Y-113416246D01*
X248508513Y-141086934D02*
X248377987Y-140095489D01*
X248377987Y-140095489D02*
X248614045Y-140064412D01*
X248614045Y-140064412D02*
X248761896Y-140092977D01*
X248761896Y-140092977D02*
X248868750Y-140174969D01*
X248868750Y-140174969D02*
X248928393Y-140263177D01*
X248928393Y-140263177D02*
X249000467Y-140445808D01*
X249000467Y-140445808D02*
X249019113Y-140587443D01*
X249019113Y-140587443D02*
X248996764Y-140782505D01*
X248996764Y-140782505D02*
X248961983Y-140883144D01*
X248961983Y-140883144D02*
X248879991Y-140989998D01*
X248879991Y-140989998D02*
X248744571Y-141055857D01*
X248744571Y-141055857D02*
X248508513Y-141086934D01*
X249794337Y-139909023D02*
X249605490Y-139933885D01*
X249605490Y-139933885D02*
X249517282Y-139993528D01*
X249517282Y-139993528D02*
X249476286Y-140046955D01*
X249476286Y-140046955D02*
X249400509Y-140201021D01*
X249400509Y-140201021D02*
X249378160Y-140396084D01*
X249378160Y-140396084D02*
X249427884Y-140773777D01*
X249427884Y-140773777D02*
X249487527Y-140861985D01*
X249487527Y-140861985D02*
X249540954Y-140902981D01*
X249540954Y-140902981D02*
X249641593Y-140937761D01*
X249641593Y-140937761D02*
X249830440Y-140912899D01*
X249830440Y-140912899D02*
X249918647Y-140853257D01*
X249918647Y-140853257D02*
X249959643Y-140799829D01*
X249959643Y-140799829D02*
X249994424Y-140699191D01*
X249994424Y-140699191D02*
X249963346Y-140463132D01*
X249963346Y-140463132D02*
X249903704Y-140374924D01*
X249903704Y-140374924D02*
X249850276Y-140333928D01*
X249850276Y-140333928D02*
X249749638Y-140299148D01*
X249749638Y-140299148D02*
X249560791Y-140324010D01*
X249560791Y-140324010D02*
X249472583Y-140383653D01*
X249472583Y-140383653D02*
X249431587Y-140437080D01*
X249431587Y-140437080D02*
X249396806Y-140537719D01*
X228855678Y-201265216D02*
X228328908Y-201019490D01*
X228360807Y-201550930D02*
X227860807Y-200684905D01*
X227860807Y-200684905D02*
X228190721Y-200494429D01*
X228190721Y-200494429D02*
X228297009Y-200488049D01*
X228297009Y-200488049D02*
X228362058Y-200505479D01*
X228362058Y-200505479D02*
X228450916Y-200564148D01*
X228450916Y-200564148D02*
X228522345Y-200687866D01*
X228522345Y-200687866D02*
X228528725Y-200794154D01*
X228528725Y-200794154D02*
X228511295Y-200859203D01*
X228511295Y-200859203D02*
X228452626Y-200948061D01*
X228452626Y-200948061D02*
X228122711Y-201138537D01*
X229680464Y-200789025D02*
X229185593Y-201074740D01*
X229433029Y-200931883D02*
X228933029Y-200065857D01*
X228933029Y-200065857D02*
X228921979Y-200237194D01*
X228921979Y-200237194D02*
X228887119Y-200367292D01*
X228887119Y-200367292D02*
X228828450Y-200456150D01*
X229557998Y-199815002D02*
X229575428Y-199749954D01*
X229575428Y-199749954D02*
X229634097Y-199661095D01*
X229634097Y-199661095D02*
X229840293Y-199542048D01*
X229840293Y-199542048D02*
X229946582Y-199535668D01*
X229946582Y-199535668D02*
X230011630Y-199553098D01*
X230011630Y-199553098D02*
X230100489Y-199611767D01*
X230100489Y-199611767D02*
X230148108Y-199694245D01*
X230148108Y-199694245D02*
X230178297Y-199841773D01*
X230178297Y-199841773D02*
X229969140Y-200622359D01*
X229969140Y-200622359D02*
X230505251Y-200312835D01*
X246466138Y-166535317D02*
X246848822Y-165611437D01*
X246848822Y-165611437D02*
X247068793Y-165702552D01*
X247068793Y-165702552D02*
X247182553Y-165801216D01*
X247182553Y-165801216D02*
X247234095Y-165925650D01*
X247234095Y-165925650D02*
X247241643Y-166031862D01*
X247241643Y-166031862D02*
X247212746Y-166226062D01*
X247212746Y-166226062D02*
X247158076Y-166358045D01*
X247158076Y-166358045D02*
X247041190Y-166515799D01*
X247041190Y-166515799D02*
X246960750Y-166585564D01*
X246960750Y-166585564D02*
X246836315Y-166637107D01*
X246836315Y-166637107D02*
X246686109Y-166626432D01*
X246686109Y-166626432D02*
X246466138Y-166535317D01*
X247740677Y-166444738D02*
X247670911Y-166364298D01*
X247670911Y-166364298D02*
X247645140Y-166302081D01*
X247645140Y-166302081D02*
X247637592Y-166195869D01*
X247637592Y-166195869D02*
X247655815Y-166151875D01*
X247655815Y-166151875D02*
X247736255Y-166082109D01*
X247736255Y-166082109D02*
X247798472Y-166056338D01*
X247798472Y-166056338D02*
X247904684Y-166048790D01*
X247904684Y-166048790D02*
X248080661Y-166121682D01*
X248080661Y-166121682D02*
X248150426Y-166202122D01*
X248150426Y-166202122D02*
X248176198Y-166264340D01*
X248176198Y-166264340D02*
X248183746Y-166370551D01*
X248183746Y-166370551D02*
X248165523Y-166414545D01*
X248165523Y-166414545D02*
X248085083Y-166484311D01*
X248085083Y-166484311D02*
X248022865Y-166510082D01*
X248022865Y-166510082D02*
X247916654Y-166517630D01*
X247916654Y-166517630D02*
X247740677Y-166444738D01*
X247740677Y-166444738D02*
X247634465Y-166452286D01*
X247634465Y-166452286D02*
X247572248Y-166478058D01*
X247572248Y-166478058D02*
X247491808Y-166547823D01*
X247491808Y-166547823D02*
X247418915Y-166723800D01*
X247418915Y-166723800D02*
X247426464Y-166830012D01*
X247426464Y-166830012D02*
X247452235Y-166892229D01*
X247452235Y-166892229D02*
X247522000Y-166972669D01*
X247522000Y-166972669D02*
X247697978Y-167045561D01*
X247697978Y-167045561D02*
X247804189Y-167038013D01*
X247804189Y-167038013D02*
X247866406Y-167012242D01*
X247866406Y-167012242D02*
X247946847Y-166942476D01*
X247946847Y-166942476D02*
X248019739Y-166766499D01*
X248019739Y-166766499D02*
X248012191Y-166660288D01*
X248012191Y-166660288D02*
X247986419Y-166598071D01*
X247986419Y-166598071D02*
X247916654Y-166517630D01*
X208850909Y-198036396D02*
X209842354Y-197905870D01*
X209842354Y-197905870D02*
X209873432Y-198141928D01*
X209873432Y-198141928D02*
X209844867Y-198289779D01*
X209844867Y-198289779D02*
X209762875Y-198396633D01*
X209762875Y-198396633D02*
X209674667Y-198456276D01*
X209674667Y-198456276D02*
X209492036Y-198528349D01*
X209492036Y-198528349D02*
X209350401Y-198546996D01*
X209350401Y-198546996D02*
X209155339Y-198524647D01*
X209155339Y-198524647D02*
X209054700Y-198489866D01*
X209054700Y-198489866D02*
X208947845Y-198407874D01*
X208947845Y-198407874D02*
X208881987Y-198272454D01*
X208881987Y-198272454D02*
X208850909Y-198036396D01*
X209049806Y-199547169D02*
X208975220Y-198980629D01*
X209012513Y-199263899D02*
X210003958Y-199133373D01*
X210003958Y-199133373D02*
X209849892Y-199057596D01*
X209849892Y-199057596D02*
X209743038Y-198975604D01*
X209743038Y-198975604D02*
X209683395Y-198887396D01*
X209996552Y-199806767D02*
X210049979Y-199847763D01*
X210049979Y-199847763D02*
X210109622Y-199935971D01*
X210109622Y-199935971D02*
X210140700Y-200172029D01*
X210140700Y-200172029D02*
X210105919Y-200272668D01*
X210105919Y-200272668D02*
X210064923Y-200326096D01*
X210064923Y-200326096D02*
X209976715Y-200385738D01*
X209976715Y-200385738D02*
X209882292Y-200398169D01*
X209882292Y-200398169D02*
X209734442Y-200369604D01*
X209734442Y-200369604D02*
X209093315Y-199877651D01*
X209093315Y-199877651D02*
X209174117Y-200491402D01*
X199833333Y-92084819D02*
X199500000Y-91608628D01*
X199261905Y-92084819D02*
X199261905Y-91084819D01*
X199261905Y-91084819D02*
X199642857Y-91084819D01*
X199642857Y-91084819D02*
X199738095Y-91132438D01*
X199738095Y-91132438D02*
X199785714Y-91180057D01*
X199785714Y-91180057D02*
X199833333Y-91275295D01*
X199833333Y-91275295D02*
X199833333Y-91418152D01*
X199833333Y-91418152D02*
X199785714Y-91513390D01*
X199785714Y-91513390D02*
X199738095Y-91561009D01*
X199738095Y-91561009D02*
X199642857Y-91608628D01*
X199642857Y-91608628D02*
X199261905Y-91608628D01*
X200214286Y-91180057D02*
X200261905Y-91132438D01*
X200261905Y-91132438D02*
X200357143Y-91084819D01*
X200357143Y-91084819D02*
X200595238Y-91084819D01*
X200595238Y-91084819D02*
X200690476Y-91132438D01*
X200690476Y-91132438D02*
X200738095Y-91180057D01*
X200738095Y-91180057D02*
X200785714Y-91275295D01*
X200785714Y-91275295D02*
X200785714Y-91370533D01*
X200785714Y-91370533D02*
X200738095Y-91513390D01*
X200738095Y-91513390D02*
X200166667Y-92084819D01*
X200166667Y-92084819D02*
X200785714Y-92084819D01*
X184389495Y-94224614D02*
X183944273Y-93850922D01*
X183837537Y-94372510D02*
X183578718Y-93406584D01*
X183578718Y-93406584D02*
X183946690Y-93307987D01*
X183946690Y-93307987D02*
X184051008Y-93329334D01*
X184051008Y-93329334D02*
X184109329Y-93363005D01*
X184109329Y-93363005D02*
X184179975Y-93442674D01*
X184179975Y-93442674D02*
X184216949Y-93580663D01*
X184216949Y-93580663D02*
X184195602Y-93684981D01*
X184195602Y-93684981D02*
X184161930Y-93743302D01*
X184161930Y-93743302D02*
X184082262Y-93813948D01*
X184082262Y-93813948D02*
X183714290Y-93912546D01*
X184523297Y-93252083D02*
X184556969Y-93193762D01*
X184556969Y-93193762D02*
X184636637Y-93123116D01*
X184636637Y-93123116D02*
X184866619Y-93061492D01*
X184866619Y-93061492D02*
X184970937Y-93082839D01*
X184970937Y-93082839D02*
X185029258Y-93116511D01*
X185029258Y-93116511D02*
X185099904Y-93196179D01*
X185099904Y-93196179D02*
X185124554Y-93288172D01*
X185124554Y-93288172D02*
X185115531Y-93438486D01*
X185115531Y-93438486D02*
X184711470Y-94138341D01*
X184711470Y-94138341D02*
X185309424Y-93978119D01*
X185924538Y-92778024D02*
X185464574Y-92901271D01*
X185464574Y-92901271D02*
X185541824Y-93373560D01*
X185541824Y-93373560D02*
X185575496Y-93315239D01*
X185575496Y-93315239D02*
X185655164Y-93244593D01*
X185655164Y-93244593D02*
X185885147Y-93182970D01*
X185885147Y-93182970D02*
X185989464Y-93204317D01*
X185989464Y-93204317D02*
X186047785Y-93237989D01*
X186047785Y-93237989D02*
X186118431Y-93317657D01*
X186118431Y-93317657D02*
X186180055Y-93547639D01*
X186180055Y-93547639D02*
X186158708Y-93651957D01*
X186158708Y-93651957D02*
X186125036Y-93710278D01*
X186125036Y-93710278D02*
X186045368Y-93780924D01*
X186045368Y-93780924D02*
X185815386Y-93842547D01*
X185815386Y-93842547D02*
X185711068Y-93821200D01*
X185711068Y-93821200D02*
X185652747Y-93787529D01*
X246648310Y-133871792D02*
X247200267Y-133723895D01*
X247183108Y-134763769D02*
X246924288Y-133797843D01*
X247936211Y-133526700D02*
X247752225Y-133575998D01*
X247752225Y-133575998D02*
X247672557Y-133646644D01*
X247672557Y-133646644D02*
X247638885Y-133704965D01*
X247638885Y-133704965D02*
X247583866Y-133867604D01*
X247583866Y-133867604D02*
X247587169Y-134063915D01*
X247587169Y-134063915D02*
X247685766Y-134431887D01*
X247685766Y-134431887D02*
X247756412Y-134511555D01*
X247756412Y-134511555D02*
X247814734Y-134545227D01*
X247814734Y-134545227D02*
X247919051Y-134566574D01*
X247919051Y-134566574D02*
X248103037Y-134517275D01*
X248103037Y-134517275D02*
X248182705Y-134446629D01*
X248182705Y-134446629D02*
X248216377Y-134388308D01*
X248216377Y-134388308D02*
X248237724Y-134283990D01*
X248237724Y-134283990D02*
X248176101Y-134054008D01*
X248176101Y-134054008D02*
X248105455Y-133974339D01*
X248105455Y-133974339D02*
X248047133Y-133940668D01*
X248047133Y-133940668D02*
X247942816Y-133919321D01*
X247942816Y-133919321D02*
X247758830Y-133968620D01*
X247758830Y-133968620D02*
X247679162Y-134039265D01*
X247679162Y-134039265D02*
X247645490Y-134097587D01*
X247645490Y-134097587D02*
X247624143Y-134201904D01*
X244548756Y-128835713D02*
X244166072Y-127911834D01*
X244166072Y-127911834D02*
X244386043Y-127820719D01*
X244386043Y-127820719D02*
X244536249Y-127810044D01*
X244536249Y-127810044D02*
X244660684Y-127861586D01*
X244660684Y-127861586D02*
X244741124Y-127931352D01*
X244741124Y-127931352D02*
X244858010Y-128089106D01*
X244858010Y-128089106D02*
X244912680Y-128221089D01*
X244912680Y-128221089D02*
X244941577Y-128415289D01*
X244941577Y-128415289D02*
X244934029Y-128521500D01*
X244934029Y-128521500D02*
X244882487Y-128645935D01*
X244882487Y-128645935D02*
X244768727Y-128744598D01*
X244768727Y-128744598D02*
X244548756Y-128835713D01*
X245529894Y-127346920D02*
X245089952Y-127529150D01*
X245089952Y-127529150D02*
X245228188Y-127987316D01*
X245228188Y-127987316D02*
X245253959Y-127925099D01*
X245253959Y-127925099D02*
X245323724Y-127844658D01*
X245323724Y-127844658D02*
X245543696Y-127753543D01*
X245543696Y-127753543D02*
X245649907Y-127761091D01*
X245649907Y-127761091D02*
X245712125Y-127786863D01*
X245712125Y-127786863D02*
X245792565Y-127856628D01*
X245792565Y-127856628D02*
X245883680Y-128076599D01*
X245883680Y-128076599D02*
X245876132Y-128182811D01*
X245876132Y-128182811D02*
X245850360Y-128245028D01*
X245850360Y-128245028D02*
X245780595Y-128325469D01*
X245780595Y-128325469D02*
X245560624Y-128416584D01*
X245560624Y-128416584D02*
X245454412Y-128409035D01*
X245454412Y-128409035D02*
X245392195Y-128383264D01*
X213121064Y-111929389D02*
X212787731Y-111453198D01*
X212549636Y-111929389D02*
X212549636Y-110929389D01*
X212549636Y-110929389D02*
X212930588Y-110929389D01*
X212930588Y-110929389D02*
X213025826Y-110977008D01*
X213025826Y-110977008D02*
X213073445Y-111024627D01*
X213073445Y-111024627D02*
X213121064Y-111119865D01*
X213121064Y-111119865D02*
X213121064Y-111262722D01*
X213121064Y-111262722D02*
X213073445Y-111357960D01*
X213073445Y-111357960D02*
X213025826Y-111405579D01*
X213025826Y-111405579D02*
X212930588Y-111453198D01*
X212930588Y-111453198D02*
X212549636Y-111453198D01*
X214073445Y-111929389D02*
X213502017Y-111929389D01*
X213787731Y-111929389D02*
X213787731Y-110929389D01*
X213787731Y-110929389D02*
X213692493Y-111072246D01*
X213692493Y-111072246D02*
X213597255Y-111167484D01*
X213597255Y-111167484D02*
X213502017Y-111215103D01*
X189072435Y-200112370D02*
X189220331Y-199560413D01*
X190112309Y-200095210D02*
X189146383Y-199836391D01*
X190408102Y-198991295D02*
X190260205Y-199543253D01*
X190334154Y-199267274D02*
X189368228Y-199008455D01*
X189368228Y-199008455D02*
X189481568Y-199137422D01*
X189481568Y-199137422D02*
X189548911Y-199254064D01*
X189548911Y-199254064D02*
X189570258Y-199358382D01*
X189985996Y-197990812D02*
X190629947Y-198163358D01*
X189556401Y-198122197D02*
X190184724Y-198537050D01*
X190184724Y-198537050D02*
X190344946Y-197939096D01*
X232334518Y-112708406D02*
X232738579Y-112304345D01*
X233243656Y-113213483D02*
X232536549Y-112506376D01*
X233513030Y-112001300D02*
X233984434Y-112472704D01*
X233075297Y-111900284D02*
X233412014Y-112573719D01*
X233412014Y-112573719D02*
X233849747Y-112135987D01*
X209356718Y-101537275D02*
X209504614Y-100985317D01*
X210396592Y-101520115D02*
X209430666Y-101261296D01*
X209670556Y-100733988D02*
X209636884Y-100675667D01*
X209636884Y-100675667D02*
X209615537Y-100571349D01*
X209615537Y-100571349D02*
X209677160Y-100341367D01*
X209677160Y-100341367D02*
X209747806Y-100261698D01*
X209747806Y-100261698D02*
X209806127Y-100228027D01*
X209806127Y-100228027D02*
X209910445Y-100206680D01*
X209910445Y-100206680D02*
X210002438Y-100231329D01*
X210002438Y-100231329D02*
X210128103Y-100314300D01*
X210128103Y-100314300D02*
X210532164Y-101014154D01*
X210532164Y-101014154D02*
X210692385Y-100416200D01*
X203945565Y-100837503D02*
X202954120Y-100706976D01*
X202954120Y-100706976D02*
X202985198Y-100470918D01*
X202985198Y-100470918D02*
X203051056Y-100335499D01*
X203051056Y-100335499D02*
X203157910Y-100253506D01*
X203157910Y-100253506D02*
X203258549Y-100218726D01*
X203258549Y-100218726D02*
X203453611Y-100196376D01*
X203453611Y-100196376D02*
X203595246Y-100215023D01*
X203595246Y-100215023D02*
X203777877Y-100287097D01*
X203777877Y-100287097D02*
X203866085Y-100346739D01*
X203866085Y-100346739D02*
X203948077Y-100453594D01*
X203948077Y-100453594D02*
X203976642Y-100601444D01*
X203976642Y-100601444D02*
X203945565Y-100837503D01*
X204144462Y-99326729D02*
X204069875Y-99893269D01*
X204107169Y-99609999D02*
X203115724Y-99479473D01*
X203115724Y-99479473D02*
X203244928Y-99592543D01*
X203244928Y-99592543D02*
X203326920Y-99699398D01*
X203326920Y-99699398D02*
X203361701Y-99800036D01*
X143891849Y-135631400D02*
X143345612Y-135830128D01*
X143743953Y-136183357D02*
X142778027Y-135924538D01*
X142778027Y-135924538D02*
X142876625Y-135556567D01*
X142876625Y-135556567D02*
X142947270Y-135476898D01*
X142947270Y-135476898D02*
X143005592Y-135443227D01*
X143005592Y-135443227D02*
X143109909Y-135421880D01*
X143109909Y-135421880D02*
X143247899Y-135458854D01*
X143247899Y-135458854D02*
X143327567Y-135529500D01*
X143327567Y-135529500D02*
X143361239Y-135587821D01*
X143361239Y-135587821D02*
X143382586Y-135692138D01*
X143382586Y-135692138D02*
X143283988Y-136060110D01*
X143116514Y-135029258D02*
X143082842Y-134970937D01*
X143082842Y-134970937D02*
X143061495Y-134866620D01*
X143061495Y-134866620D02*
X143123119Y-134636637D01*
X143123119Y-134636637D02*
X143193765Y-134556969D01*
X143193765Y-134556969D02*
X143252086Y-134523297D01*
X143252086Y-134523297D02*
X143356404Y-134501950D01*
X143356404Y-134501950D02*
X143448397Y-134526600D01*
X143448397Y-134526600D02*
X143574061Y-134609570D01*
X143574061Y-134609570D02*
X143978122Y-135309424D01*
X143978122Y-135309424D02*
X144138344Y-134711470D01*
X144384838Y-133791541D02*
X144236941Y-134343499D01*
X144310890Y-134067520D02*
X143344964Y-133808701D01*
X143344964Y-133808701D02*
X143458304Y-133937668D01*
X143458304Y-133937668D02*
X143525647Y-134054310D01*
X143525647Y-134054310D02*
X143546994Y-134158628D01*
X156838248Y-177707841D02*
X157333120Y-177422127D01*
X157585684Y-178431010D02*
X157085684Y-177564984D01*
X158575428Y-177859581D02*
X158080556Y-178145295D01*
X158327992Y-178002438D02*
X157827992Y-177136413D01*
X157827992Y-177136413D02*
X157816942Y-177307750D01*
X157816942Y-177307750D02*
X157782082Y-177437847D01*
X157782082Y-177437847D02*
X157723413Y-177526706D01*
X158364103Y-176826889D02*
X158941453Y-176493556D01*
X158941453Y-176493556D02*
X159070299Y-177573867D01*
X236954875Y-181997801D02*
X237358936Y-182401862D01*
X236449799Y-182906938D02*
X237156906Y-182199832D01*
X237257921Y-183715061D02*
X236853860Y-183311000D01*
X237055891Y-183513030D02*
X237762998Y-182805923D01*
X237762998Y-182805923D02*
X237594639Y-182839595D01*
X237594639Y-182839595D02*
X237459952Y-182839595D01*
X237459952Y-182839595D02*
X237358937Y-182805923D01*
X238402761Y-183445687D02*
X238470104Y-183513030D01*
X238470104Y-183513030D02*
X238503776Y-183614045D01*
X238503776Y-183614045D02*
X238503776Y-183681389D01*
X238503776Y-183681389D02*
X238470104Y-183782404D01*
X238470104Y-183782404D02*
X238369089Y-183950763D01*
X238369089Y-183950763D02*
X238200730Y-184119122D01*
X238200730Y-184119122D02*
X238032372Y-184220137D01*
X238032372Y-184220137D02*
X237931356Y-184253809D01*
X237931356Y-184253809D02*
X237864013Y-184253809D01*
X237864013Y-184253809D02*
X237762998Y-184220137D01*
X237762998Y-184220137D02*
X237695654Y-184152793D01*
X237695654Y-184152793D02*
X237661982Y-184051778D01*
X237661982Y-184051778D02*
X237661982Y-183984435D01*
X237661982Y-183984435D02*
X237695654Y-183883419D01*
X237695654Y-183883419D02*
X237796669Y-183715061D01*
X237796669Y-183715061D02*
X237965028Y-183546702D01*
X237965028Y-183546702D02*
X238133387Y-183445687D01*
X238133387Y-183445687D02*
X238234402Y-183412015D01*
X238234402Y-183412015D02*
X238301746Y-183412015D01*
X238301746Y-183412015D02*
X238402761Y-183445687D01*
X202414819Y-201233094D02*
X202414819Y-200661666D01*
X203414819Y-200947380D02*
X202414819Y-200947380D01*
X203414819Y-199804523D02*
X203414819Y-200375951D01*
X203414819Y-200090237D02*
X202414819Y-200090237D01*
X202414819Y-200090237D02*
X202557676Y-200185475D01*
X202557676Y-200185475D02*
X202652914Y-200280713D01*
X202652914Y-200280713D02*
X202700533Y-200375951D01*
X202414819Y-199471189D02*
X202414819Y-198852142D01*
X202414819Y-198852142D02*
X202795771Y-199185475D01*
X202795771Y-199185475D02*
X202795771Y-199042618D01*
X202795771Y-199042618D02*
X202843390Y-198947380D01*
X202843390Y-198947380D02*
X202891009Y-198899761D01*
X202891009Y-198899761D02*
X202986247Y-198852142D01*
X202986247Y-198852142D02*
X203224342Y-198852142D01*
X203224342Y-198852142D02*
X203319580Y-198899761D01*
X203319580Y-198899761D02*
X203367200Y-198947380D01*
X203367200Y-198947380D02*
X203414819Y-199042618D01*
X203414819Y-199042618D02*
X203414819Y-199328332D01*
X203414819Y-199328332D02*
X203367200Y-199423570D01*
X203367200Y-199423570D02*
X203319580Y-199471189D01*
X148734783Y-178855678D02*
X148980509Y-178328908D01*
X148449069Y-178360807D02*
X149315094Y-177860807D01*
X149315094Y-177860807D02*
X149505570Y-178190721D01*
X149505570Y-178190721D02*
X149511950Y-178297009D01*
X149511950Y-178297009D02*
X149494520Y-178362058D01*
X149494520Y-178362058D02*
X149435851Y-178450916D01*
X149435851Y-178450916D02*
X149312133Y-178522345D01*
X149312133Y-178522345D02*
X149205845Y-178528725D01*
X149205845Y-178528725D02*
X149140796Y-178511295D01*
X149140796Y-178511295D02*
X149051938Y-178452626D01*
X149051938Y-178452626D02*
X148861462Y-178122711D01*
X149210974Y-179680464D02*
X148925259Y-179185593D01*
X149068116Y-179433029D02*
X149934142Y-178933029D01*
X149934142Y-178933029D02*
X149762805Y-178921979D01*
X149762805Y-178921979D02*
X149632707Y-178887119D01*
X149632707Y-178887119D02*
X149543849Y-178828450D01*
X149991560Y-179889622D02*
X149985180Y-179783334D01*
X149985180Y-179783334D02*
X150002610Y-179718285D01*
X150002610Y-179718285D02*
X150061279Y-179629427D01*
X150061279Y-179629427D02*
X150102518Y-179605617D01*
X150102518Y-179605617D02*
X150208806Y-179599237D01*
X150208806Y-179599237D02*
X150273855Y-179616667D01*
X150273855Y-179616667D02*
X150362713Y-179675336D01*
X150362713Y-179675336D02*
X150457951Y-179840293D01*
X150457951Y-179840293D02*
X150464331Y-179946582D01*
X150464331Y-179946582D02*
X150446901Y-180011630D01*
X150446901Y-180011630D02*
X150388232Y-180100489D01*
X150388232Y-180100489D02*
X150346993Y-180124298D01*
X150346993Y-180124298D02*
X150240705Y-180130678D01*
X150240705Y-180130678D02*
X150175656Y-180113248D01*
X150175656Y-180113248D02*
X150086798Y-180054579D01*
X150086798Y-180054579D02*
X149991560Y-179889622D01*
X149991560Y-179889622D02*
X149902701Y-179830953D01*
X149902701Y-179830953D02*
X149837652Y-179813523D01*
X149837652Y-179813523D02*
X149731364Y-179819903D01*
X149731364Y-179819903D02*
X149566407Y-179915141D01*
X149566407Y-179915141D02*
X149507738Y-180003999D01*
X149507738Y-180003999D02*
X149490308Y-180069048D01*
X149490308Y-180069048D02*
X149496688Y-180175336D01*
X149496688Y-180175336D02*
X149591926Y-180340293D01*
X149591926Y-180340293D02*
X149680784Y-180398962D01*
X149680784Y-180398962D02*
X149745833Y-180416392D01*
X149745833Y-180416392D02*
X149852121Y-180410013D01*
X149852121Y-180410013D02*
X150017078Y-180314774D01*
X150017078Y-180314774D02*
X150075748Y-180225916D01*
X150075748Y-180225916D02*
X150093177Y-180160867D01*
X150093177Y-180160867D02*
X150086798Y-180054579D01*
X189930241Y-99674541D02*
X190921686Y-99544015D01*
X190921686Y-99544015D02*
X190952764Y-99780073D01*
X190952764Y-99780073D02*
X190924199Y-99927924D01*
X190924199Y-99927924D02*
X190842207Y-100034778D01*
X190842207Y-100034778D02*
X190753999Y-100094421D01*
X190753999Y-100094421D02*
X190571368Y-100166494D01*
X190571368Y-100166494D02*
X190429733Y-100185141D01*
X190429733Y-100185141D02*
X190234671Y-100162792D01*
X190234671Y-100162792D02*
X190134032Y-100128011D01*
X190134032Y-100128011D02*
X190027177Y-100046019D01*
X190027177Y-100046019D02*
X189961319Y-99910599D01*
X189961319Y-99910599D02*
X189930241Y-99674541D01*
X190951574Y-100500679D02*
X191005001Y-100541675D01*
X191005001Y-100541675D02*
X191064644Y-100629883D01*
X191064644Y-100629883D02*
X191095721Y-100865941D01*
X191095721Y-100865941D02*
X191060941Y-100966580D01*
X191060941Y-100966580D02*
X191019944Y-101020007D01*
X191019944Y-101020007D02*
X190931737Y-101079650D01*
X190931737Y-101079650D02*
X190837313Y-101092081D01*
X190837313Y-101092081D02*
X190689463Y-101063516D01*
X190689463Y-101063516D02*
X190048337Y-100571562D01*
X190048337Y-100571562D02*
X190129138Y-101185314D01*
X190901981Y-101948107D02*
X190241018Y-102035124D01*
X191248597Y-101662324D02*
X190509344Y-101519499D01*
X190509344Y-101519499D02*
X190590146Y-102133250D01*
X177248173Y-103995583D02*
X178172053Y-103612900D01*
X178172053Y-103612900D02*
X178263168Y-103832871D01*
X178263168Y-103832871D02*
X178273843Y-103983077D01*
X178273843Y-103983077D02*
X178222300Y-104107512D01*
X178222300Y-104107512D02*
X178152535Y-104187952D01*
X178152535Y-104187952D02*
X177994781Y-104304838D01*
X177994781Y-104304838D02*
X177862798Y-104359507D01*
X177862798Y-104359507D02*
X177668598Y-104388405D01*
X177668598Y-104388405D02*
X177562386Y-104380857D01*
X177562386Y-104380857D02*
X177437952Y-104329315D01*
X177437952Y-104329315D02*
X177339289Y-104215555D01*
X177339289Y-104215555D02*
X177248173Y-103995583D01*
X178448525Y-104529231D02*
X178510742Y-104555003D01*
X178510742Y-104555003D02*
X178591182Y-104624768D01*
X178591182Y-104624768D02*
X178682298Y-104844739D01*
X178682298Y-104844739D02*
X178674749Y-104950951D01*
X178674749Y-104950951D02*
X178648978Y-105013168D01*
X178648978Y-105013168D02*
X178579213Y-105093609D01*
X178579213Y-105093609D02*
X178491224Y-105130055D01*
X178491224Y-105130055D02*
X178341018Y-105140729D01*
X178341018Y-105140729D02*
X177594411Y-104831474D01*
X177594411Y-104831474D02*
X177831310Y-105403400D01*
X178882751Y-105328676D02*
X179119650Y-105900602D01*
X179119650Y-105900602D02*
X178640135Y-105738426D01*
X178640135Y-105738426D02*
X178694804Y-105870409D01*
X178694804Y-105870409D02*
X178687256Y-105976620D01*
X178687256Y-105976620D02*
X178661484Y-106038838D01*
X178661484Y-106038838D02*
X178591719Y-106119278D01*
X178591719Y-106119278D02*
X178371748Y-106210393D01*
X178371748Y-106210393D02*
X178265536Y-106202845D01*
X178265536Y-106202845D02*
X178203319Y-106177074D01*
X178203319Y-106177074D02*
X178122878Y-106107308D01*
X178122878Y-106107308D02*
X178013540Y-105843343D01*
X178013540Y-105843343D02*
X178021089Y-105737131D01*
X178021089Y-105737131D02*
X178046860Y-105674914D01*
X248462725Y-159356718D02*
X249014683Y-159504614D01*
X248479885Y-160396592D02*
X248738704Y-159430666D01*
X249363725Y-160041830D02*
X249284057Y-159971184D01*
X249284057Y-159971184D02*
X249250385Y-159912863D01*
X249250385Y-159912863D02*
X249229038Y-159808545D01*
X249229038Y-159808545D02*
X249241363Y-159762548D01*
X249241363Y-159762548D02*
X249312009Y-159682880D01*
X249312009Y-159682880D02*
X249370330Y-159649208D01*
X249370330Y-159649208D02*
X249474648Y-159627861D01*
X249474648Y-159627861D02*
X249658633Y-159677160D01*
X249658633Y-159677160D02*
X249738302Y-159747806D01*
X249738302Y-159747806D02*
X249771973Y-159806127D01*
X249771973Y-159806127D02*
X249793320Y-159910445D01*
X249793320Y-159910445D02*
X249780996Y-159956442D01*
X249780996Y-159956442D02*
X249710350Y-160036110D01*
X249710350Y-160036110D02*
X249652029Y-160069782D01*
X249652029Y-160069782D02*
X249547711Y-160091129D01*
X249547711Y-160091129D02*
X249363725Y-160041830D01*
X249363725Y-160041830D02*
X249259408Y-160063177D01*
X249259408Y-160063177D02*
X249201086Y-160096848D01*
X249201086Y-160096848D02*
X249130440Y-160176517D01*
X249130440Y-160176517D02*
X249081142Y-160360503D01*
X249081142Y-160360503D02*
X249102489Y-160464820D01*
X249102489Y-160464820D02*
X249136160Y-160523141D01*
X249136160Y-160523141D02*
X249215829Y-160593787D01*
X249215829Y-160593787D02*
X249399814Y-160643086D01*
X249399814Y-160643086D02*
X249504132Y-160621739D01*
X249504132Y-160621739D02*
X249562453Y-160588067D01*
X249562453Y-160588067D02*
X249633099Y-160508399D01*
X249633099Y-160508399D02*
X249682398Y-160324413D01*
X249682398Y-160324413D02*
X249661051Y-160220096D01*
X249661051Y-160220096D02*
X249627379Y-160161774D01*
X249627379Y-160161774D02*
X249547711Y-160091129D01*
X151381994Y-133557935D02*
X151764677Y-132634056D01*
X151764677Y-132634056D02*
X151984649Y-132725171D01*
X151984649Y-132725171D02*
X152098409Y-132823834D01*
X152098409Y-132823834D02*
X152149951Y-132948269D01*
X152149951Y-132948269D02*
X152157499Y-133054480D01*
X152157499Y-133054480D02*
X152128601Y-133248681D01*
X152128601Y-133248681D02*
X152073932Y-133380663D01*
X152073932Y-133380663D02*
X151957046Y-133538417D01*
X151957046Y-133538417D02*
X151876606Y-133608183D01*
X151876606Y-133608183D02*
X151752171Y-133659725D01*
X151752171Y-133659725D02*
X151601965Y-133649051D01*
X151601965Y-133649051D02*
X151381994Y-133557935D01*
X152608117Y-133086505D02*
X152670334Y-133060734D01*
X152670334Y-133060734D02*
X152776546Y-133053185D01*
X152776546Y-133053185D02*
X152996517Y-133144301D01*
X152996517Y-133144301D02*
X153066282Y-133224741D01*
X153066282Y-133224741D02*
X153092054Y-133286958D01*
X153092054Y-133286958D02*
X153099602Y-133393170D01*
X153099602Y-133393170D02*
X153063156Y-133481158D01*
X153063156Y-133481158D02*
X152964492Y-133594918D01*
X152964492Y-133594918D02*
X152217885Y-133904173D01*
X152217885Y-133904173D02*
X152789810Y-134141072D01*
X153744419Y-133454092D02*
X153832408Y-133490538D01*
X153832408Y-133490538D02*
X153902173Y-133570978D01*
X153902173Y-133570978D02*
X153927945Y-133633196D01*
X153927945Y-133633196D02*
X153935493Y-133739407D01*
X153935493Y-133739407D02*
X153906595Y-133933607D01*
X153906595Y-133933607D02*
X153815480Y-134153578D01*
X153815480Y-134153578D02*
X153698594Y-134311332D01*
X153698594Y-134311332D02*
X153618153Y-134381098D01*
X153618153Y-134381098D02*
X153555936Y-134406869D01*
X153555936Y-134406869D02*
X153449724Y-134414417D01*
X153449724Y-134414417D02*
X153361736Y-134377971D01*
X153361736Y-134377971D02*
X153291970Y-134297531D01*
X153291970Y-134297531D02*
X153266199Y-134235314D01*
X153266199Y-134235314D02*
X153258651Y-134129102D01*
X153258651Y-134129102D02*
X153287549Y-133934902D01*
X153287549Y-133934902D02*
X153378664Y-133714931D01*
X153378664Y-133714931D02*
X153495550Y-133557177D01*
X153495550Y-133557177D02*
X153575991Y-133487411D01*
X153575991Y-133487411D02*
X153638208Y-133461640D01*
X153638208Y-133461640D02*
X153744419Y-133454092D01*
X221580971Y-105610299D02*
X221866686Y-105115427D01*
X222589854Y-105862863D02*
X221723829Y-105362863D01*
X221985734Y-104909231D02*
X222295257Y-104373120D01*
X222295257Y-104373120D02*
X222458505Y-104852271D01*
X222458505Y-104852271D02*
X222529934Y-104728553D01*
X222529934Y-104728553D02*
X222618792Y-104669884D01*
X222618792Y-104669884D02*
X222683841Y-104652454D01*
X222683841Y-104652454D02*
X222790129Y-104658834D01*
X222790129Y-104658834D02*
X222996326Y-104777882D01*
X222996326Y-104777882D02*
X223054995Y-104866740D01*
X223054995Y-104866740D02*
X223072424Y-104931789D01*
X223072424Y-104931789D02*
X223066045Y-105038077D01*
X223066045Y-105038077D02*
X222923187Y-105285513D01*
X222923187Y-105285513D02*
X222834329Y-105344182D01*
X222834329Y-105344182D02*
X222769280Y-105361612D01*
X161451752Y-183883395D02*
X160842991Y-183090042D01*
X160842991Y-183090042D02*
X161031884Y-182945099D01*
X161031884Y-182945099D02*
X161174209Y-182895911D01*
X161174209Y-182895911D02*
X161307744Y-182913492D01*
X161307744Y-182913492D02*
X161403500Y-182960060D01*
X161403500Y-182960060D02*
X161557233Y-183082187D01*
X161557233Y-183082187D02*
X161644199Y-183195523D01*
X161644199Y-183195523D02*
X161722375Y-183375626D01*
X161722375Y-183375626D02*
X161742574Y-183480172D01*
X161742574Y-183480172D02*
X161724993Y-183613707D01*
X161724993Y-183613707D02*
X161640646Y-183738452D01*
X161640646Y-183738452D02*
X161451752Y-183883395D01*
X162660672Y-182955759D02*
X162207327Y-183303622D01*
X162433999Y-183129690D02*
X161825238Y-182336337D01*
X161825238Y-182336337D02*
X161836646Y-182507651D01*
X161836646Y-182507651D02*
X161819066Y-182641185D01*
X161819066Y-182641185D02*
X161772497Y-182736941D01*
X162731927Y-181640610D02*
X162580812Y-181756564D01*
X162580812Y-181756564D02*
X162534244Y-181852320D01*
X162534244Y-181852320D02*
X162525453Y-181919088D01*
X162525453Y-181919088D02*
X162536862Y-182090401D01*
X162536862Y-182090401D02*
X162615038Y-182270505D01*
X162615038Y-182270505D02*
X162846947Y-182572735D01*
X162846947Y-182572735D02*
X162942703Y-182619303D01*
X162942703Y-182619303D02*
X163009470Y-182628093D01*
X163009470Y-182628093D02*
X163114016Y-182607895D01*
X163114016Y-182607895D02*
X163265131Y-182491940D01*
X163265131Y-182491940D02*
X163311700Y-182396184D01*
X163311700Y-182396184D02*
X163320490Y-182329417D01*
X163320490Y-182329417D02*
X163300292Y-182224871D01*
X163300292Y-182224871D02*
X163155348Y-182035977D01*
X163155348Y-182035977D02*
X163059592Y-181989408D01*
X163059592Y-181989408D02*
X162992825Y-181980618D01*
X162992825Y-181980618D02*
X162888279Y-182000817D01*
X162888279Y-182000817D02*
X162737164Y-182116771D01*
X162737164Y-182116771D02*
X162690595Y-182212527D01*
X162690595Y-182212527D02*
X162681805Y-182279295D01*
X162681805Y-182279295D02*
X162702004Y-182383841D01*
X240834367Y-108929931D02*
X240935382Y-108357512D01*
X240430306Y-108525870D02*
X241137413Y-107818764D01*
X241137413Y-107818764D02*
X241406787Y-108088138D01*
X241406787Y-108088138D02*
X241440459Y-108189153D01*
X241440459Y-108189153D02*
X241440459Y-108256496D01*
X241440459Y-108256496D02*
X241406787Y-108357512D01*
X241406787Y-108357512D02*
X241305772Y-108458527D01*
X241305772Y-108458527D02*
X241204756Y-108492199D01*
X241204756Y-108492199D02*
X241137413Y-108492199D01*
X241137413Y-108492199D02*
X241036398Y-108458527D01*
X241036398Y-108458527D02*
X240767024Y-108189153D01*
X242181237Y-108862588D02*
X241844520Y-108525870D01*
X241844520Y-108525870D02*
X241474130Y-108828916D01*
X241474130Y-108828916D02*
X241541474Y-108828916D01*
X241541474Y-108828916D02*
X241642489Y-108862588D01*
X241642489Y-108862588D02*
X241810848Y-109030947D01*
X241810848Y-109030947D02*
X241844520Y-109131962D01*
X241844520Y-109131962D02*
X241844520Y-109199305D01*
X241844520Y-109199305D02*
X241810848Y-109300321D01*
X241810848Y-109300321D02*
X241642489Y-109468679D01*
X241642489Y-109468679D02*
X241541474Y-109502351D01*
X241541474Y-109502351D02*
X241474130Y-109502351D01*
X241474130Y-109502351D02*
X241373115Y-109468679D01*
X241373115Y-109468679D02*
X241204756Y-109300321D01*
X241204756Y-109300321D02*
X241171085Y-109199305D01*
X241171085Y-109199305D02*
X241171085Y-109131962D01*
X220982056Y-194108812D02*
X221905936Y-193726129D01*
X221905936Y-193726129D02*
X221997051Y-193946100D01*
X221997051Y-193946100D02*
X222007726Y-194096306D01*
X222007726Y-194096306D02*
X221956183Y-194220741D01*
X221956183Y-194220741D02*
X221886418Y-194301181D01*
X221886418Y-194301181D02*
X221728664Y-194418067D01*
X221728664Y-194418067D02*
X221596681Y-194472736D01*
X221596681Y-194472736D02*
X221402481Y-194501634D01*
X221402481Y-194501634D02*
X221296269Y-194494086D01*
X221296269Y-194494086D02*
X221171835Y-194442544D01*
X221171835Y-194442544D02*
X221073172Y-194328784D01*
X221073172Y-194328784D02*
X220982056Y-194108812D01*
X221565193Y-195516629D02*
X221346517Y-194988698D01*
X221455855Y-195252663D02*
X222379735Y-194869980D01*
X222379735Y-194869980D02*
X222211306Y-194836660D01*
X222211306Y-194836660D02*
X222086871Y-194785118D01*
X222086871Y-194785118D02*
X222006431Y-194715352D01*
X221929654Y-196396514D02*
X221710977Y-195868583D01*
X221820315Y-196132549D02*
X222744195Y-195749865D01*
X222744195Y-195749865D02*
X222575766Y-195716546D01*
X222575766Y-195716546D02*
X222451332Y-195665003D01*
X222451332Y-195665003D02*
X222370891Y-195595238D01*
X158593212Y-109502350D02*
X158020793Y-109401335D01*
X158189151Y-109906411D02*
X157482045Y-109199304D01*
X157482045Y-109199304D02*
X157751419Y-108929930D01*
X157751419Y-108929930D02*
X157852434Y-108896258D01*
X157852434Y-108896258D02*
X157919777Y-108896258D01*
X157919777Y-108896258D02*
X158020793Y-108929930D01*
X158020793Y-108929930D02*
X158121808Y-109030945D01*
X158121808Y-109030945D02*
X158155480Y-109131961D01*
X158155480Y-109131961D02*
X158155480Y-109199304D01*
X158155480Y-109199304D02*
X158121808Y-109300319D01*
X158121808Y-109300319D02*
X157852434Y-109569693D01*
X158222823Y-108593213D02*
X158222823Y-108525869D01*
X158222823Y-108525869D02*
X158256495Y-108424854D01*
X158256495Y-108424854D02*
X158424854Y-108256495D01*
X158424854Y-108256495D02*
X158525869Y-108222823D01*
X158525869Y-108222823D02*
X158593212Y-108222823D01*
X158593212Y-108222823D02*
X158694228Y-108256495D01*
X158694228Y-108256495D02*
X158761571Y-108323839D01*
X158761571Y-108323839D02*
X158828915Y-108458526D01*
X158828915Y-108458526D02*
X158828915Y-109266648D01*
X158828915Y-109266648D02*
X159266647Y-108828915D01*
X158795243Y-107886106D02*
X159232976Y-107448373D01*
X159232976Y-107448373D02*
X159266648Y-107953449D01*
X159266648Y-107953449D02*
X159367663Y-107852434D01*
X159367663Y-107852434D02*
X159468678Y-107818762D01*
X159468678Y-107818762D02*
X159536022Y-107818762D01*
X159536022Y-107818762D02*
X159637037Y-107852434D01*
X159637037Y-107852434D02*
X159805396Y-108020793D01*
X159805396Y-108020793D02*
X159839067Y-108121808D01*
X159839067Y-108121808D02*
X159839067Y-108189151D01*
X159839067Y-108189151D02*
X159805396Y-108290167D01*
X159805396Y-108290167D02*
X159603365Y-108492197D01*
X159603365Y-108492197D02*
X159502350Y-108525869D01*
X159502350Y-108525869D02*
X159435006Y-108525869D01*
X184407362Y-101137632D02*
X184555259Y-101689590D01*
X183515385Y-101672430D02*
X184481311Y-101413611D01*
X184537214Y-101990219D02*
X184595536Y-102023890D01*
X184595536Y-102023890D02*
X184666181Y-102103558D01*
X184666181Y-102103558D02*
X184727805Y-102333541D01*
X184727805Y-102333541D02*
X184706458Y-102437858D01*
X184706458Y-102437858D02*
X184672786Y-102496180D01*
X184672786Y-102496180D02*
X184593118Y-102566826D01*
X184593118Y-102566826D02*
X184501125Y-102591475D01*
X184501125Y-102591475D02*
X184350811Y-102582453D01*
X184350811Y-102582453D02*
X183650957Y-102178392D01*
X183650957Y-102178392D02*
X183811178Y-102776346D01*
X184676974Y-103431736D02*
X184033023Y-103604282D01*
X184983322Y-103103156D02*
X184231751Y-103058045D01*
X184231751Y-103058045D02*
X184391972Y-103655999D01*
X237553073Y-118026802D02*
X236944311Y-117233449D01*
X236944311Y-117233449D02*
X237133205Y-117088506D01*
X237133205Y-117088506D02*
X237275530Y-117039319D01*
X237275530Y-117039319D02*
X237409065Y-117056899D01*
X237409065Y-117056899D02*
X237504821Y-117103468D01*
X237504821Y-117103468D02*
X237658554Y-117225594D01*
X237658554Y-117225594D02*
X237745520Y-117338930D01*
X237745520Y-117338930D02*
X237823696Y-117519034D01*
X237823696Y-117519034D02*
X237843894Y-117623580D01*
X237843894Y-117623580D02*
X237826314Y-117757114D01*
X237826314Y-117757114D02*
X237741967Y-117881859D01*
X237741967Y-117881859D02*
X237553073Y-118026802D01*
X238280594Y-116628241D02*
X238686435Y-117157143D01*
X237859791Y-116470954D02*
X238105727Y-117182578D01*
X238105727Y-117182578D02*
X238596850Y-116805726D01*
X148783093Y-146701453D02*
X148913620Y-145710009D01*
X148913620Y-145710009D02*
X149149678Y-145741086D01*
X149149678Y-145741086D02*
X149285097Y-145806944D01*
X149285097Y-145806944D02*
X149367090Y-145913799D01*
X149367090Y-145913799D02*
X149401870Y-146014438D01*
X149401870Y-146014438D02*
X149424220Y-146209500D01*
X149424220Y-146209500D02*
X149405573Y-146351135D01*
X149405573Y-146351135D02*
X149333499Y-146533766D01*
X149333499Y-146533766D02*
X149273857Y-146621974D01*
X149273857Y-146621974D02*
X149167002Y-146703966D01*
X149167002Y-146703966D02*
X149019152Y-146732531D01*
X149019152Y-146732531D02*
X148783093Y-146701453D01*
X150293866Y-146900350D02*
X149727327Y-146825764D01*
X150010596Y-146863057D02*
X150141123Y-145871612D01*
X150141123Y-145871612D02*
X150028053Y-146000816D01*
X150028053Y-146000816D02*
X149921198Y-146082809D01*
X149921198Y-146082809D02*
X149820560Y-146117589D01*
X150765983Y-146962506D02*
X150954830Y-146987368D01*
X150954830Y-146987368D02*
X151055469Y-146952587D01*
X151055469Y-146952587D02*
X151108896Y-146911591D01*
X151108896Y-146911591D02*
X151221966Y-146782387D01*
X151221966Y-146782387D02*
X151294039Y-146599756D01*
X151294039Y-146599756D02*
X151343764Y-146222063D01*
X151343764Y-146222063D02*
X151308983Y-146121424D01*
X151308983Y-146121424D02*
X151267987Y-146067997D01*
X151267987Y-146067997D02*
X151179779Y-146008354D01*
X151179779Y-146008354D02*
X150990933Y-145983492D01*
X150990933Y-145983492D02*
X150890294Y-146018273D01*
X150890294Y-146018273D02*
X150836867Y-146059269D01*
X150836867Y-146059269D02*
X150777224Y-146147477D01*
X150777224Y-146147477D02*
X150746146Y-146383535D01*
X150746146Y-146383535D02*
X150780927Y-146484174D01*
X150780927Y-146484174D02*
X150821923Y-146537601D01*
X150821923Y-146537601D02*
X150910131Y-146597244D01*
X150910131Y-146597244D02*
X151098977Y-146622106D01*
X151098977Y-146622106D02*
X151199616Y-146587325D01*
X151199616Y-146587325D02*
X151253043Y-146546329D01*
X151253043Y-146546329D02*
X151312686Y-146458121D01*
X249162497Y-153945565D02*
X249293024Y-152954120D01*
X249293024Y-152954120D02*
X249529082Y-152985198D01*
X249529082Y-152985198D02*
X249664501Y-153051056D01*
X249664501Y-153051056D02*
X249746494Y-153157910D01*
X249746494Y-153157910D02*
X249781274Y-153258549D01*
X249781274Y-153258549D02*
X249803624Y-153453611D01*
X249803624Y-153453611D02*
X249784977Y-153595246D01*
X249784977Y-153595246D02*
X249712903Y-153777877D01*
X249712903Y-153777877D02*
X249653261Y-153866085D01*
X249653261Y-153866085D02*
X249546406Y-153948077D01*
X249546406Y-153948077D02*
X249398556Y-153976642D01*
X249398556Y-153976642D02*
X249162497Y-153945565D01*
X250190045Y-153072215D02*
X250851008Y-153159233D01*
X250851008Y-153159233D02*
X250295577Y-154094738D01*
X149887630Y-139072435D02*
X150439587Y-139220331D01*
X149904790Y-140112309D02*
X150163609Y-139146383D01*
X150690917Y-139386272D02*
X150749238Y-139352601D01*
X150749238Y-139352601D02*
X150853556Y-139331254D01*
X150853556Y-139331254D02*
X151083538Y-139392877D01*
X151083538Y-139392877D02*
X151163206Y-139463523D01*
X151163206Y-139463523D02*
X151196878Y-139521844D01*
X151196878Y-139521844D02*
X151218225Y-139626162D01*
X151218225Y-139626162D02*
X151193576Y-139718155D01*
X151193576Y-139718155D02*
X151110605Y-139843820D01*
X151110605Y-139843820D02*
X150410751Y-140247881D01*
X150410751Y-140247881D02*
X151008705Y-140408102D01*
X151865478Y-139602397D02*
X151957471Y-139627047D01*
X151957471Y-139627047D02*
X152037139Y-139697693D01*
X152037139Y-139697693D02*
X152070811Y-139756014D01*
X152070811Y-139756014D02*
X152092158Y-139860332D01*
X152092158Y-139860332D02*
X152088856Y-140056642D01*
X152088856Y-140056642D02*
X152027232Y-140286625D01*
X152027232Y-140286625D02*
X151931937Y-140458286D01*
X151931937Y-140458286D02*
X151861291Y-140537954D01*
X151861291Y-140537954D02*
X151802970Y-140571626D01*
X151802970Y-140571626D02*
X151698652Y-140592973D01*
X151698652Y-140592973D02*
X151606659Y-140568323D01*
X151606659Y-140568323D02*
X151526991Y-140497677D01*
X151526991Y-140497677D02*
X151493319Y-140439356D01*
X151493319Y-140439356D02*
X151471972Y-140335039D01*
X151471972Y-140335039D02*
X151475275Y-140138728D01*
X151475275Y-140138728D02*
X151536898Y-139908746D01*
X151536898Y-139908746D02*
X151632194Y-139737084D01*
X151632194Y-139737084D02*
X151702839Y-139657416D01*
X151702839Y-139657416D02*
X151761161Y-139623745D01*
X151761161Y-139623745D02*
X151865478Y-139602397D01*
X244389701Y-171580971D02*
X244884573Y-171866686D01*
X244137137Y-172589854D02*
X244637137Y-171723829D01*
X244714487Y-172923187D02*
X244879444Y-173018426D01*
X244879444Y-173018426D02*
X244985733Y-173024805D01*
X244985733Y-173024805D02*
X245050781Y-173007376D01*
X245050781Y-173007376D02*
X245204689Y-172931277D01*
X245204689Y-172931277D02*
X245341166Y-172790129D01*
X245341166Y-172790129D02*
X245531642Y-172460215D01*
X245531642Y-172460215D02*
X245538022Y-172353926D01*
X245538022Y-172353926D02*
X245520592Y-172288878D01*
X245520592Y-172288878D02*
X245461923Y-172200019D01*
X245461923Y-172200019D02*
X245296966Y-172104781D01*
X245296966Y-172104781D02*
X245190678Y-172098401D01*
X245190678Y-172098401D02*
X245125629Y-172115831D01*
X245125629Y-172115831D02*
X245036771Y-172174500D01*
X245036771Y-172174500D02*
X244917723Y-172380697D01*
X244917723Y-172380697D02*
X244911343Y-172486985D01*
X244911343Y-172486985D02*
X244928773Y-172552034D01*
X244928773Y-172552034D02*
X244987442Y-172640892D01*
X244987442Y-172640892D02*
X245152399Y-172736130D01*
X245152399Y-172736130D02*
X245258687Y-172742510D01*
X245258687Y-172742510D02*
X245323736Y-172725080D01*
X245323736Y-172725080D02*
X245412595Y-172666411D01*
X214828564Y-94015097D02*
X214629836Y-93468859D01*
X214276607Y-93867200D02*
X214535426Y-92901274D01*
X214535426Y-92901274D02*
X214903398Y-92999872D01*
X214903398Y-92999872D02*
X214983066Y-93070518D01*
X214983066Y-93070518D02*
X215016738Y-93128839D01*
X215016738Y-93128839D02*
X215038085Y-93233157D01*
X215038085Y-93233157D02*
X215001111Y-93371146D01*
X215001111Y-93371146D02*
X214930465Y-93450814D01*
X214930465Y-93450814D02*
X214872143Y-93484486D01*
X214872143Y-93484486D02*
X214767826Y-93505833D01*
X214767826Y-93505833D02*
X214399854Y-93407235D01*
X215409359Y-93135444D02*
X216007313Y-93295665D01*
X216007313Y-93295665D02*
X215586740Y-93577364D01*
X215586740Y-93577364D02*
X215724729Y-93614338D01*
X215724729Y-93614338D02*
X215804398Y-93684984D01*
X215804398Y-93684984D02*
X215838069Y-93743305D01*
X215838069Y-93743305D02*
X215859416Y-93847623D01*
X215859416Y-93847623D02*
X215797793Y-94077605D01*
X215797793Y-94077605D02*
X215727147Y-94157273D01*
X215727147Y-94157273D02*
X215668826Y-94190945D01*
X215668826Y-94190945D02*
X215564508Y-94212292D01*
X215564508Y-94212292D02*
X215288529Y-94138344D01*
X215288529Y-94138344D02*
X215208861Y-94067698D01*
X215208861Y-94067698D02*
X215175189Y-94009377D01*
X149674541Y-160069758D02*
X149544015Y-159078313D01*
X149544015Y-159078313D02*
X149780073Y-159047235D01*
X149780073Y-159047235D02*
X149927924Y-159075800D01*
X149927924Y-159075800D02*
X150034778Y-159157792D01*
X150034778Y-159157792D02*
X150094421Y-159246000D01*
X150094421Y-159246000D02*
X150166494Y-159428631D01*
X150166494Y-159428631D02*
X150185141Y-159570266D01*
X150185141Y-159570266D02*
X150162792Y-159765328D01*
X150162792Y-159765328D02*
X150128011Y-159865967D01*
X150128011Y-159865967D02*
X150046019Y-159972822D01*
X150046019Y-159972822D02*
X149910599Y-160038680D01*
X149910599Y-160038680D02*
X149674541Y-160069758D01*
X151185314Y-159870861D02*
X150618774Y-159945447D01*
X150902044Y-159908154D02*
X150771518Y-158916709D01*
X150771518Y-158916709D02*
X150695741Y-159070775D01*
X150695741Y-159070775D02*
X150613749Y-159177629D01*
X150613749Y-159177629D02*
X150525541Y-159237272D01*
X151677268Y-159229734D02*
X151576629Y-159194954D01*
X151576629Y-159194954D02*
X151523202Y-159153958D01*
X151523202Y-159153958D02*
X151463559Y-159065750D01*
X151463559Y-159065750D02*
X151457343Y-159018538D01*
X151457343Y-159018538D02*
X151492124Y-158917899D01*
X151492124Y-158917899D02*
X151533120Y-158864472D01*
X151533120Y-158864472D02*
X151621328Y-158804829D01*
X151621328Y-158804829D02*
X151810174Y-158779967D01*
X151810174Y-158779967D02*
X151910813Y-158814748D01*
X151910813Y-158814748D02*
X151964241Y-158855744D01*
X151964241Y-158855744D02*
X152023883Y-158943952D01*
X152023883Y-158943952D02*
X152030099Y-158991163D01*
X152030099Y-158991163D02*
X151995318Y-159091802D01*
X151995318Y-159091802D02*
X151954322Y-159145229D01*
X151954322Y-159145229D02*
X151866114Y-159204872D01*
X151866114Y-159204872D02*
X151677268Y-159229734D01*
X151677268Y-159229734D02*
X151589060Y-159289377D01*
X151589060Y-159289377D02*
X151548064Y-159342804D01*
X151548064Y-159342804D02*
X151513283Y-159443443D01*
X151513283Y-159443443D02*
X151538145Y-159632290D01*
X151538145Y-159632290D02*
X151597788Y-159720497D01*
X151597788Y-159720497D02*
X151651215Y-159761494D01*
X151651215Y-159761494D02*
X151751854Y-159796274D01*
X151751854Y-159796274D02*
X151940701Y-159771412D01*
X151940701Y-159771412D02*
X152028908Y-159711769D01*
X152028908Y-159711769D02*
X152069905Y-159658342D01*
X152069905Y-159658342D02*
X152104685Y-159557703D01*
X152104685Y-159557703D02*
X152079823Y-159368857D01*
X152079823Y-159368857D02*
X152020180Y-159280649D01*
X152020180Y-159280649D02*
X151966753Y-159239653D01*
X151966753Y-159239653D02*
X151866114Y-159204872D01*
X249233095Y-146494819D02*
X249804523Y-146494819D01*
X249518809Y-147494819D02*
X249518809Y-146494819D01*
X250042619Y-146494819D02*
X250709285Y-146494819D01*
X250709285Y-146494819D02*
X250280714Y-147494819D01*
X196494819Y-100766904D02*
X196494819Y-100195476D01*
X197494819Y-100481190D02*
X196494819Y-100481190D01*
X197494819Y-99338333D02*
X197494819Y-99909761D01*
X197494819Y-99624047D02*
X196494819Y-99624047D01*
X196494819Y-99624047D02*
X196637676Y-99719285D01*
X196637676Y-99719285D02*
X196732914Y-99814523D01*
X196732914Y-99814523D02*
X196780533Y-99909761D01*
X157294132Y-121534920D02*
X157902893Y-120741567D01*
X157902893Y-120741567D02*
X158091787Y-120886510D01*
X158091787Y-120886510D02*
X158176134Y-121011255D01*
X158176134Y-121011255D02*
X158193714Y-121144790D01*
X158193714Y-121144790D02*
X158173516Y-121249336D01*
X158173516Y-121249336D02*
X158095340Y-121429439D01*
X158095340Y-121429439D02*
X158008374Y-121542775D01*
X158008374Y-121542775D02*
X157854641Y-121664902D01*
X157854641Y-121664902D02*
X157758885Y-121711471D01*
X157758885Y-121711471D02*
X157625350Y-121729051D01*
X157625350Y-121729051D02*
X157483025Y-121679864D01*
X157483025Y-121679864D02*
X157294132Y-121534920D01*
X158600490Y-121396897D02*
X158667258Y-121388107D01*
X158667258Y-121388107D02*
X158771804Y-121408306D01*
X158771804Y-121408306D02*
X158960697Y-121553249D01*
X158960697Y-121553249D02*
X159007266Y-121649005D01*
X159007266Y-121649005D02*
X159016056Y-121715772D01*
X159016056Y-121715772D02*
X158995858Y-121820318D01*
X158995858Y-121820318D02*
X158937881Y-121895876D01*
X158937881Y-121895876D02*
X158813136Y-121980223D01*
X158813136Y-121980223D02*
X158011927Y-122085705D01*
X158011927Y-122085705D02*
X158503051Y-122462557D01*
X159258626Y-123042330D02*
X158805281Y-122694466D01*
X159031953Y-122868398D02*
X159640715Y-122075044D01*
X159640715Y-122075044D02*
X159478191Y-122130403D01*
X159478191Y-122130403D02*
X159344656Y-122147984D01*
X159344656Y-122147984D02*
X159240110Y-122127785D01*
X172292158Y-106838248D02*
X172577872Y-107333120D01*
X171568989Y-107585684D02*
X172435015Y-107085684D01*
X172638251Y-107628175D02*
X172703299Y-107645605D01*
X172703299Y-107645605D02*
X172792158Y-107704274D01*
X172792158Y-107704274D02*
X172911205Y-107910471D01*
X172911205Y-107910471D02*
X172917585Y-108016759D01*
X172917585Y-108016759D02*
X172900155Y-108081807D01*
X172900155Y-108081807D02*
X172841486Y-108170666D01*
X172841486Y-108170666D02*
X172759008Y-108218285D01*
X172759008Y-108218285D02*
X172611480Y-108248474D01*
X172611480Y-108248474D02*
X171830894Y-108039317D01*
X171830894Y-108039317D02*
X172140418Y-108575428D01*
X173173110Y-108364103D02*
X173482634Y-108900214D01*
X173482634Y-108900214D02*
X172986053Y-108802015D01*
X172986053Y-108802015D02*
X173057481Y-108925733D01*
X173057481Y-108925733D02*
X173063861Y-109032021D01*
X173063861Y-109032021D02*
X173046431Y-109097070D01*
X173046431Y-109097070D02*
X172987762Y-109185928D01*
X172987762Y-109185928D02*
X172781566Y-109304976D01*
X172781566Y-109304976D02*
X172675278Y-109311356D01*
X172675278Y-109311356D02*
X172610229Y-109293926D01*
X172610229Y-109293926D02*
X172521370Y-109235257D01*
X172521370Y-109235257D02*
X172378513Y-108987821D01*
X172378513Y-108987821D02*
X172372134Y-108881533D01*
X172372134Y-108881533D02*
X172389563Y-108816484D01*
X199357142Y-208824819D02*
X199023809Y-208348628D01*
X198785714Y-208824819D02*
X198785714Y-207824819D01*
X198785714Y-207824819D02*
X199166666Y-207824819D01*
X199166666Y-207824819D02*
X199261904Y-207872438D01*
X199261904Y-207872438D02*
X199309523Y-207920057D01*
X199309523Y-207920057D02*
X199357142Y-208015295D01*
X199357142Y-208015295D02*
X199357142Y-208158152D01*
X199357142Y-208158152D02*
X199309523Y-208253390D01*
X199309523Y-208253390D02*
X199261904Y-208301009D01*
X199261904Y-208301009D02*
X199166666Y-208348628D01*
X199166666Y-208348628D02*
X198785714Y-208348628D01*
X200309523Y-208824819D02*
X199738095Y-208824819D01*
X200023809Y-208824819D02*
X200023809Y-207824819D01*
X200023809Y-207824819D02*
X199928571Y-207967676D01*
X199928571Y-207967676D02*
X199833333Y-208062914D01*
X199833333Y-208062914D02*
X199738095Y-208110533D01*
X201166666Y-208158152D02*
X201166666Y-208824819D01*
X200928571Y-207777200D02*
X200690476Y-208491485D01*
X200690476Y-208491485D02*
X201309523Y-208491485D01*
X148766905Y-152414819D02*
X149338333Y-152414819D01*
X149052619Y-153414819D02*
X149052619Y-152414819D01*
X150195476Y-153414819D02*
X149624048Y-153414819D01*
X149909762Y-153414819D02*
X149909762Y-152414819D01*
X149909762Y-152414819D02*
X149814524Y-152557676D01*
X149814524Y-152557676D02*
X149719286Y-152652914D01*
X149719286Y-152652914D02*
X149624048Y-152700533D01*
X150671667Y-153414819D02*
X150862143Y-153414819D01*
X150862143Y-153414819D02*
X150957381Y-153367200D01*
X150957381Y-153367200D02*
X151005000Y-153319580D01*
X151005000Y-153319580D02*
X151100238Y-153176723D01*
X151100238Y-153176723D02*
X151147857Y-152986247D01*
X151147857Y-152986247D02*
X151147857Y-152605295D01*
X151147857Y-152605295D02*
X151100238Y-152510057D01*
X151100238Y-152510057D02*
X151052619Y-152462438D01*
X151052619Y-152462438D02*
X150957381Y-152414819D01*
X150957381Y-152414819D02*
X150766905Y-152414819D01*
X150766905Y-152414819D02*
X150671667Y-152462438D01*
X150671667Y-152462438D02*
X150624048Y-152510057D01*
X150624048Y-152510057D02*
X150576429Y-152605295D01*
X150576429Y-152605295D02*
X150576429Y-152843390D01*
X150576429Y-152843390D02*
X150624048Y-152938628D01*
X150624048Y-152938628D02*
X150671667Y-152986247D01*
X150671667Y-152986247D02*
X150766905Y-153033866D01*
X150766905Y-153033866D02*
X150957381Y-153033866D01*
X150957381Y-153033866D02*
X151052619Y-152986247D01*
X151052619Y-152986247D02*
X151100238Y-152938628D01*
X151100238Y-152938628D02*
X151147857Y-152843390D01*
X153995583Y-172751827D02*
X153612900Y-171827947D01*
X153612900Y-171827947D02*
X153832871Y-171736832D01*
X153832871Y-171736832D02*
X153983077Y-171726157D01*
X153983077Y-171726157D02*
X154107512Y-171777700D01*
X154107512Y-171777700D02*
X154187952Y-171847465D01*
X154187952Y-171847465D02*
X154304838Y-172005219D01*
X154304838Y-172005219D02*
X154359507Y-172137202D01*
X154359507Y-172137202D02*
X154388405Y-172331402D01*
X154388405Y-172331402D02*
X154380857Y-172437614D01*
X154380857Y-172437614D02*
X154329315Y-172562048D01*
X154329315Y-172562048D02*
X154215555Y-172660711D01*
X154215555Y-172660711D02*
X153995583Y-172751827D01*
X155403400Y-172168690D02*
X154875469Y-172387366D01*
X155139434Y-172278028D02*
X154756751Y-171354148D01*
X154756751Y-171354148D02*
X154723431Y-171522577D01*
X154723431Y-171522577D02*
X154671889Y-171647012D01*
X154671889Y-171647012D02*
X154602123Y-171727452D01*
X155328676Y-171117249D02*
X155944596Y-170862127D01*
X155944596Y-170862127D02*
X155931331Y-171950014D01*
X157950002Y-191140860D02*
X158051017Y-190568441D01*
X157545941Y-190736799D02*
X158253048Y-190029693D01*
X158253048Y-190029693D02*
X158522422Y-190299067D01*
X158522422Y-190299067D02*
X158556094Y-190400082D01*
X158556094Y-190400082D02*
X158556094Y-190467425D01*
X158556094Y-190467425D02*
X158522422Y-190568441D01*
X158522422Y-190568441D02*
X158421407Y-190669456D01*
X158421407Y-190669456D02*
X158320391Y-190703128D01*
X158320391Y-190703128D02*
X158253048Y-190703128D01*
X158253048Y-190703128D02*
X158152033Y-190669456D01*
X158152033Y-190669456D02*
X157882659Y-190400082D01*
X158623437Y-191814295D02*
X158219376Y-191410234D01*
X158421407Y-191612265D02*
X159128513Y-190905158D01*
X159128513Y-190905158D02*
X158960155Y-190938830D01*
X158960155Y-190938830D02*
X158825468Y-190938830D01*
X158825468Y-190938830D02*
X158724452Y-190905158D01*
X159566246Y-191342891D02*
X160037651Y-191814296D01*
X160037651Y-191814296D02*
X159027498Y-192218357D01*
X256777274Y-165385971D02*
X256231036Y-165584699D01*
X256629377Y-165937928D02*
X255663451Y-165679109D01*
X255663451Y-165679109D02*
X255762049Y-165311137D01*
X255762049Y-165311137D02*
X255832695Y-165231469D01*
X255832695Y-165231469D02*
X255891016Y-165197797D01*
X255891016Y-165197797D02*
X255995334Y-165176450D01*
X255995334Y-165176450D02*
X256133323Y-165213424D01*
X256133323Y-165213424D02*
X256212991Y-165284070D01*
X256212991Y-165284070D02*
X256246663Y-165342392D01*
X256246663Y-165342392D02*
X256268010Y-165446709D01*
X256268010Y-165446709D02*
X256169412Y-165814681D01*
X256900521Y-164926006D02*
X256949820Y-164742020D01*
X256949820Y-164742020D02*
X256928473Y-164637702D01*
X256928473Y-164637702D02*
X256894801Y-164579381D01*
X256894801Y-164579381D02*
X256781461Y-164450414D01*
X256781461Y-164450414D02*
X256609800Y-164355119D01*
X256609800Y-164355119D02*
X256241828Y-164256521D01*
X256241828Y-164256521D02*
X256137510Y-164277868D01*
X256137510Y-164277868D02*
X256079189Y-164311540D01*
X256079189Y-164311540D02*
X256008543Y-164391208D01*
X256008543Y-164391208D02*
X255959244Y-164575194D01*
X255959244Y-164575194D02*
X255980591Y-164679512D01*
X255980591Y-164679512D02*
X256014263Y-164737833D01*
X256014263Y-164737833D02*
X256093931Y-164808479D01*
X256093931Y-164808479D02*
X256323914Y-164870102D01*
X256323914Y-164870102D02*
X256428231Y-164848755D01*
X256428231Y-164848755D02*
X256486553Y-164815083D01*
X256486553Y-164815083D02*
X256557198Y-164735415D01*
X256557198Y-164735415D02*
X256606497Y-164551429D01*
X256606497Y-164551429D02*
X256585150Y-164447112D01*
X256585150Y-164447112D02*
X256551479Y-164388790D01*
X256551479Y-164388790D02*
X256471810Y-164318145D01*
X240884520Y-122347876D02*
X241379392Y-122062162D01*
X241631956Y-123071045D02*
X241131956Y-122205019D01*
X242080460Y-121657400D02*
X241668067Y-121895495D01*
X241668067Y-121895495D02*
X241864923Y-122331698D01*
X241864923Y-122331698D02*
X241882353Y-122266649D01*
X241882353Y-122266649D02*
X241941022Y-122177791D01*
X241941022Y-122177791D02*
X242147218Y-122058743D01*
X242147218Y-122058743D02*
X242253506Y-122052363D01*
X242253506Y-122052363D02*
X242318555Y-122069793D01*
X242318555Y-122069793D02*
X242407414Y-122128462D01*
X242407414Y-122128462D02*
X242526461Y-122334659D01*
X242526461Y-122334659D02*
X242532841Y-122440947D01*
X242532841Y-122440947D02*
X242515411Y-122505996D01*
X242515411Y-122505996D02*
X242456742Y-122594854D01*
X242456742Y-122594854D02*
X242250546Y-122713902D01*
X242250546Y-122713902D02*
X242144257Y-122720281D01*
X242144257Y-122720281D02*
X242079209Y-122702852D01*
X255898633Y-134849460D02*
X256272324Y-134404238D01*
X255750736Y-134297503D02*
X256716662Y-134038683D01*
X256716662Y-134038683D02*
X256815260Y-134406655D01*
X256815260Y-134406655D02*
X256793913Y-134510973D01*
X256793913Y-134510973D02*
X256760241Y-134569294D01*
X256760241Y-134569294D02*
X256680573Y-134639940D01*
X256680573Y-134639940D02*
X256542583Y-134676914D01*
X256542583Y-134676914D02*
X256438266Y-134655567D01*
X256438266Y-134655567D02*
X256379944Y-134621895D01*
X256379944Y-134621895D02*
X256309298Y-134542227D01*
X256309298Y-134542227D02*
X256210701Y-134174255D01*
X256950831Y-134912616D02*
X257123378Y-135556567D01*
X257123378Y-135556567D02*
X256046529Y-135401418D01*
X170030859Y-200622359D02*
X169980279Y-200043299D01*
X169535988Y-200336644D02*
X170035988Y-199470619D01*
X170035988Y-199470619D02*
X170365902Y-199661095D01*
X170365902Y-199661095D02*
X170424571Y-199749954D01*
X170424571Y-199749954D02*
X170442001Y-199815002D01*
X170442001Y-199815002D02*
X170435621Y-199921291D01*
X170435621Y-199921291D02*
X170364193Y-200045008D01*
X170364193Y-200045008D02*
X170275334Y-200103678D01*
X170275334Y-200103678D02*
X170210285Y-200121107D01*
X170210285Y-200121107D02*
X170103997Y-200114728D01*
X170103997Y-200114728D02*
X169774083Y-199924251D01*
X170855645Y-201098549D02*
X170360774Y-200812835D01*
X170608210Y-200955692D02*
X171108210Y-200089667D01*
X171108210Y-200089667D02*
X170954302Y-200165766D01*
X170954302Y-200165766D02*
X170824205Y-200200625D01*
X170824205Y-200200625D02*
X170717917Y-200194245D01*
X172097953Y-200661095D02*
X171932996Y-200565857D01*
X171932996Y-200565857D02*
X171826708Y-200559477D01*
X171826708Y-200559477D02*
X171761659Y-200576907D01*
X171761659Y-200576907D02*
X171607752Y-200653006D01*
X171607752Y-200653006D02*
X171471274Y-200794154D01*
X171471274Y-200794154D02*
X171280798Y-201124068D01*
X171280798Y-201124068D02*
X171274418Y-201230356D01*
X171274418Y-201230356D02*
X171291848Y-201295405D01*
X171291848Y-201295405D02*
X171350517Y-201384264D01*
X171350517Y-201384264D02*
X171515474Y-201479502D01*
X171515474Y-201479502D02*
X171621762Y-201485881D01*
X171621762Y-201485881D02*
X171686811Y-201468452D01*
X171686811Y-201468452D02*
X171775670Y-201409783D01*
X171775670Y-201409783D02*
X171894717Y-201203586D01*
X171894717Y-201203586D02*
X171901097Y-201097298D01*
X171901097Y-201097298D02*
X171883667Y-201032249D01*
X171883667Y-201032249D02*
X171824998Y-200943391D01*
X171824998Y-200943391D02*
X171660041Y-200848153D01*
X171660041Y-200848153D02*
X171553753Y-200841773D01*
X171553753Y-200841773D02*
X171488704Y-200859203D01*
X171488704Y-200859203D02*
X171399846Y-200917872D01*
X250072685Y-120898072D02*
X250318411Y-120371301D01*
X249786970Y-120403200D02*
X250652996Y-119903200D01*
X250652996Y-119903200D02*
X250843472Y-120233115D01*
X250843472Y-120233115D02*
X250849852Y-120339403D01*
X250849852Y-120339403D02*
X250832422Y-120404452D01*
X250832422Y-120404452D02*
X250773753Y-120493310D01*
X250773753Y-120493310D02*
X250650035Y-120564739D01*
X250650035Y-120564739D02*
X250543747Y-120571118D01*
X250543747Y-120571118D02*
X250478698Y-120553688D01*
X250478698Y-120553688D02*
X250389840Y-120495019D01*
X250389840Y-120495019D02*
X250199363Y-120165105D01*
X251367281Y-121140379D02*
X251272043Y-120975422D01*
X251272043Y-120975422D02*
X251183185Y-120916753D01*
X251183185Y-120916753D02*
X251118136Y-120899323D01*
X251118136Y-120899323D02*
X250946799Y-120888273D01*
X250946799Y-120888273D02*
X250758032Y-120942272D01*
X250758032Y-120942272D02*
X250428118Y-121132748D01*
X250428118Y-121132748D02*
X250369449Y-121221607D01*
X250369449Y-121221607D02*
X250352019Y-121286655D01*
X250352019Y-121286655D02*
X250358399Y-121392944D01*
X250358399Y-121392944D02*
X250453637Y-121557901D01*
X250453637Y-121557901D02*
X250542495Y-121616570D01*
X250542495Y-121616570D02*
X250607544Y-121634000D01*
X250607544Y-121634000D02*
X250713832Y-121627620D01*
X250713832Y-121627620D02*
X250920029Y-121508572D01*
X250920029Y-121508572D02*
X250978698Y-121419714D01*
X250978698Y-121419714D02*
X250996128Y-121354665D01*
X250996128Y-121354665D02*
X250989748Y-121248377D01*
X250989748Y-121248377D02*
X250894510Y-121083420D01*
X250894510Y-121083420D02*
X250805651Y-121024751D01*
X250805651Y-121024751D02*
X250740603Y-121007321D01*
X250740603Y-121007321D02*
X250634314Y-121013701D01*
X151137632Y-165592637D02*
X151689590Y-165444740D01*
X151672430Y-166484614D02*
X151413611Y-165518688D01*
X152776346Y-166188821D02*
X152224388Y-166336718D01*
X152500367Y-166262769D02*
X152241548Y-165296843D01*
X152241548Y-165296843D02*
X152186529Y-165459482D01*
X152186529Y-165459482D02*
X152119186Y-165576125D01*
X152119186Y-165576125D02*
X152039517Y-165646771D01*
X153180407Y-165488967D02*
X153076089Y-165467620D01*
X153076089Y-165467620D02*
X153017768Y-165433948D01*
X153017768Y-165433948D02*
X152947122Y-165354280D01*
X152947122Y-165354280D02*
X152934797Y-165308283D01*
X152934797Y-165308283D02*
X152956144Y-165203966D01*
X152956144Y-165203966D02*
X152989816Y-165145644D01*
X152989816Y-165145644D02*
X153069484Y-165074999D01*
X153069484Y-165074999D02*
X153253470Y-165025700D01*
X153253470Y-165025700D02*
X153357788Y-165047047D01*
X153357788Y-165047047D02*
X153416109Y-165080718D01*
X153416109Y-165080718D02*
X153486755Y-165160387D01*
X153486755Y-165160387D02*
X153499080Y-165206383D01*
X153499080Y-165206383D02*
X153477733Y-165310701D01*
X153477733Y-165310701D02*
X153444061Y-165369022D01*
X153444061Y-165369022D02*
X153364393Y-165439668D01*
X153364393Y-165439668D02*
X153180407Y-165488967D01*
X153180407Y-165488967D02*
X153100739Y-165559613D01*
X153100739Y-165559613D02*
X153067067Y-165617934D01*
X153067067Y-165617934D02*
X153045720Y-165722251D01*
X153045720Y-165722251D02*
X153095019Y-165906237D01*
X153095019Y-165906237D02*
X153165665Y-165985906D01*
X153165665Y-165985906D02*
X153223986Y-166019577D01*
X153223986Y-166019577D02*
X153328303Y-166040924D01*
X153328303Y-166040924D02*
X153512289Y-165991625D01*
X153512289Y-165991625D02*
X153591958Y-165920980D01*
X153591958Y-165920980D02*
X153625629Y-165862658D01*
X153625629Y-165862658D02*
X153646976Y-165758341D01*
X153646976Y-165758341D02*
X153597677Y-165574355D01*
X153597677Y-165574355D02*
X153527032Y-165494687D01*
X153527032Y-165494687D02*
X153468710Y-165461015D01*
X153468710Y-165461015D02*
X153364393Y-165439668D01*
X216535317Y-103533862D02*
X215611437Y-103151178D01*
X215611437Y-103151178D02*
X215702552Y-102931207D01*
X215702552Y-102931207D02*
X215801216Y-102817447D01*
X215801216Y-102817447D02*
X215925650Y-102765905D01*
X215925650Y-102765905D02*
X216031862Y-102758357D01*
X216031862Y-102758357D02*
X216226062Y-102787254D01*
X216226062Y-102787254D02*
X216358045Y-102841924D01*
X216358045Y-102841924D02*
X216515799Y-102958810D01*
X216515799Y-102958810D02*
X216585564Y-103039250D01*
X216585564Y-103039250D02*
X216637107Y-103163685D01*
X216637107Y-103163685D02*
X216626432Y-103313891D01*
X216626432Y-103313891D02*
X216535317Y-103533862D01*
X216063886Y-102307739D02*
X216038115Y-102245522D01*
X216038115Y-102245522D02*
X216030567Y-102139310D01*
X216030567Y-102139310D02*
X216121682Y-101919339D01*
X216121682Y-101919339D02*
X216202122Y-101849574D01*
X216202122Y-101849574D02*
X216264340Y-101823802D01*
X216264340Y-101823802D02*
X216370551Y-101816254D01*
X216370551Y-101816254D02*
X216458540Y-101852700D01*
X216458540Y-101852700D02*
X216572299Y-101951363D01*
X216572299Y-101951363D02*
X216881554Y-102697971D01*
X216881554Y-102697971D02*
X217118454Y-102126045D01*
X149522553Y-121599140D02*
X148943493Y-121649720D01*
X149236838Y-122094011D02*
X148370813Y-121594011D01*
X148370813Y-121594011D02*
X148561289Y-121264097D01*
X148561289Y-121264097D02*
X148650148Y-121205428D01*
X148650148Y-121205428D02*
X148715196Y-121187998D01*
X148715196Y-121187998D02*
X148821485Y-121194378D01*
X148821485Y-121194378D02*
X148945202Y-121265806D01*
X148945202Y-121265806D02*
X149003872Y-121354665D01*
X149003872Y-121354665D02*
X149021301Y-121419714D01*
X149021301Y-121419714D02*
X149014922Y-121526002D01*
X149014922Y-121526002D02*
X148824445Y-121855916D01*
X148929482Y-120816844D02*
X148912052Y-120751795D01*
X148912052Y-120751795D02*
X148918432Y-120645507D01*
X148918432Y-120645507D02*
X149037480Y-120439311D01*
X149037480Y-120439311D02*
X149126338Y-120380642D01*
X149126338Y-120380642D02*
X149191387Y-120363212D01*
X149191387Y-120363212D02*
X149297675Y-120369592D01*
X149297675Y-120369592D02*
X149380154Y-120417211D01*
X149380154Y-120417211D02*
X149480062Y-120529879D01*
X149480062Y-120529879D02*
X149689219Y-121310465D01*
X149689219Y-121310465D02*
X149998743Y-120774354D01*
X149405673Y-119992058D02*
X149388243Y-119927009D01*
X149388243Y-119927009D02*
X149394623Y-119820721D01*
X149394623Y-119820721D02*
X149513670Y-119614525D01*
X149513670Y-119614525D02*
X149602529Y-119555856D01*
X149602529Y-119555856D02*
X149667577Y-119538426D01*
X149667577Y-119538426D02*
X149773866Y-119544806D01*
X149773866Y-119544806D02*
X149856344Y-119592425D01*
X149856344Y-119592425D02*
X149956253Y-119705092D01*
X149956253Y-119705092D02*
X150165410Y-120485678D01*
X150165410Y-120485678D02*
X150474934Y-119949567D01*
X227998209Y-109396812D02*
X227204856Y-108788050D01*
X227204856Y-108788050D02*
X227349799Y-108599157D01*
X227349799Y-108599157D02*
X227474544Y-108514809D01*
X227474544Y-108514809D02*
X227608078Y-108497229D01*
X227608078Y-108497229D02*
X227712624Y-108517427D01*
X227712624Y-108517427D02*
X227892728Y-108595603D01*
X227892728Y-108595603D02*
X228006064Y-108682569D01*
X228006064Y-108682569D02*
X228128190Y-108836303D01*
X228128190Y-108836303D02*
X228174759Y-108932059D01*
X228174759Y-108932059D02*
X228192339Y-109065593D01*
X228192339Y-109065593D02*
X228143152Y-109207918D01*
X228143152Y-109207918D02*
X227998209Y-109396812D01*
X227755640Y-108070254D02*
X228132492Y-107579131D01*
X228132492Y-107579131D02*
X228231802Y-108075491D01*
X228231802Y-108075491D02*
X228318767Y-107962155D01*
X228318767Y-107962155D02*
X228414524Y-107915586D01*
X228414524Y-107915586D02*
X228481291Y-107906796D01*
X228481291Y-107906796D02*
X228585837Y-107926995D01*
X228585837Y-107926995D02*
X228774731Y-108071938D01*
X228774731Y-108071938D02*
X228821299Y-108167694D01*
X228821299Y-108167694D02*
X228830090Y-108234461D01*
X228830090Y-108234461D02*
X228809891Y-108339007D01*
X228809891Y-108339007D02*
X228635959Y-108565680D01*
X228635959Y-108565680D02*
X228540203Y-108612248D01*
X228540203Y-108612248D02*
X228473436Y-108621039D01*
X241140860Y-192049998D02*
X240568441Y-191948983D01*
X240736799Y-192454059D02*
X240029693Y-191746952D01*
X240029693Y-191746952D02*
X240299067Y-191477578D01*
X240299067Y-191477578D02*
X240400082Y-191443906D01*
X240400082Y-191443906D02*
X240467425Y-191443906D01*
X240467425Y-191443906D02*
X240568441Y-191477578D01*
X240568441Y-191477578D02*
X240669456Y-191578593D01*
X240669456Y-191578593D02*
X240703128Y-191679609D01*
X240703128Y-191679609D02*
X240703128Y-191746952D01*
X240703128Y-191746952D02*
X240669456Y-191847967D01*
X240669456Y-191847967D02*
X240400082Y-192117341D01*
X241814295Y-191376563D02*
X241410234Y-191780624D01*
X241612265Y-191578593D02*
X240905158Y-190871487D01*
X240905158Y-190871487D02*
X240938830Y-191039845D01*
X240938830Y-191039845D02*
X240938830Y-191174532D01*
X240938830Y-191174532D02*
X240905158Y-191275548D01*
X242487731Y-190703128D02*
X242083670Y-191107189D01*
X242285700Y-190905158D02*
X241578593Y-190198051D01*
X241578593Y-190198051D02*
X241612265Y-190366410D01*
X241612265Y-190366410D02*
X241612265Y-190501097D01*
X241612265Y-190501097D02*
X241578593Y-190602112D01*
X250622359Y-179969140D02*
X250043299Y-180019720D01*
X250336644Y-180464011D02*
X249470619Y-179964011D01*
X249470619Y-179964011D02*
X249661095Y-179634097D01*
X249661095Y-179634097D02*
X249749954Y-179575428D01*
X249749954Y-179575428D02*
X249815002Y-179557998D01*
X249815002Y-179557998D02*
X249921291Y-179564378D01*
X249921291Y-179564378D02*
X250045008Y-179635806D01*
X250045008Y-179635806D02*
X250103678Y-179724665D01*
X250103678Y-179724665D02*
X250121107Y-179789714D01*
X250121107Y-179789714D02*
X250114728Y-179896002D01*
X250114728Y-179896002D02*
X249924251Y-180225916D01*
X251098549Y-179144354D02*
X250812835Y-179639225D01*
X250955692Y-179391789D02*
X250089667Y-178891789D01*
X250089667Y-178891789D02*
X250165766Y-179045697D01*
X250165766Y-179045697D02*
X250200625Y-179175794D01*
X250200625Y-179175794D02*
X250194245Y-179282082D01*
X250542048Y-178108243D02*
X250589667Y-178025764D01*
X250589667Y-178025764D02*
X250678525Y-177967095D01*
X250678525Y-177967095D02*
X250743574Y-177949665D01*
X250743574Y-177949665D02*
X250849862Y-177956045D01*
X250849862Y-177956045D02*
X251038629Y-178010044D01*
X251038629Y-178010044D02*
X251244825Y-178129091D01*
X251244825Y-178129091D02*
X251385973Y-178265569D01*
X251385973Y-178265569D02*
X251444642Y-178354427D01*
X251444642Y-178354427D02*
X251462072Y-178419476D01*
X251462072Y-178419476D02*
X251455692Y-178525764D01*
X251455692Y-178525764D02*
X251408073Y-178608243D01*
X251408073Y-178608243D02*
X251319215Y-178666912D01*
X251319215Y-178666912D02*
X251254166Y-178684341D01*
X251254166Y-178684341D02*
X251147878Y-178677962D01*
X251147878Y-178677962D02*
X250959111Y-178623963D01*
X250959111Y-178623963D02*
X250752914Y-178504915D01*
X250752914Y-178504915D02*
X250611767Y-178368438D01*
X250611767Y-178368438D02*
X250553098Y-178279580D01*
X250553098Y-178279580D02*
X250535668Y-178214531D01*
X250535668Y-178214531D02*
X250542048Y-178108243D01*
X261254819Y-150761904D02*
X260254819Y-150761904D01*
X260731009Y-150761904D02*
X260731009Y-150190476D01*
X261254819Y-150190476D02*
X260254819Y-150190476D01*
X260350057Y-149761904D02*
X260302438Y-149714285D01*
X260302438Y-149714285D02*
X260254819Y-149619047D01*
X260254819Y-149619047D02*
X260254819Y-149380952D01*
X260254819Y-149380952D02*
X260302438Y-149285714D01*
X260302438Y-149285714D02*
X260350057Y-149238095D01*
X260350057Y-149238095D02*
X260445295Y-149190476D01*
X260445295Y-149190476D02*
X260540533Y-149190476D01*
X260540533Y-149190476D02*
X260683390Y-149238095D01*
X260683390Y-149238095D02*
X261254819Y-149809523D01*
X261254819Y-149809523D02*
X261254819Y-149190476D01*
X139654819Y-150761904D02*
X138654819Y-150761904D01*
X139131009Y-150761904D02*
X139131009Y-150190476D01*
X139654819Y-150190476D02*
X138654819Y-150190476D01*
X138988152Y-149285714D02*
X139654819Y-149285714D01*
X138607200Y-149523809D02*
X139321485Y-149761904D01*
X139321485Y-149761904D02*
X139321485Y-149142857D01*
X240603188Y-177998209D02*
X241211950Y-177204856D01*
X241211950Y-177204856D02*
X241400843Y-177349799D01*
X241400843Y-177349799D02*
X241485191Y-177474544D01*
X241485191Y-177474544D02*
X241502771Y-177608078D01*
X241502771Y-177608078D02*
X241482573Y-177712624D01*
X241482573Y-177712624D02*
X241404397Y-177892728D01*
X241404397Y-177892728D02*
X241317431Y-178006064D01*
X241317431Y-178006064D02*
X241163697Y-178128190D01*
X241163697Y-178128190D02*
X241067941Y-178174759D01*
X241067941Y-178174759D02*
X240934407Y-178192339D01*
X240934407Y-178192339D02*
X240792082Y-178143152D01*
X240792082Y-178143152D02*
X240603188Y-177998209D01*
X241434320Y-178635959D02*
X241585435Y-178751914D01*
X241585435Y-178751914D02*
X241689981Y-178772112D01*
X241689981Y-178772112D02*
X241756749Y-178763322D01*
X241756749Y-178763322D02*
X241919272Y-178707963D01*
X241919272Y-178707963D02*
X242073005Y-178585837D01*
X242073005Y-178585837D02*
X242304915Y-178283607D01*
X242304915Y-178283607D02*
X242325113Y-178179061D01*
X242325113Y-178179061D02*
X242316323Y-178112294D01*
X242316323Y-178112294D02*
X242269754Y-178016538D01*
X242269754Y-178016538D02*
X242118639Y-177900583D01*
X242118639Y-177900583D02*
X242014093Y-177880385D01*
X242014093Y-177880385D02*
X241947326Y-177889175D01*
X241947326Y-177889175D02*
X241851570Y-177935743D01*
X241851570Y-177935743D02*
X241706627Y-178124637D01*
X241706627Y-178124637D02*
X241686428Y-178229183D01*
X241686428Y-178229183D02*
X241695218Y-178295951D01*
X241695218Y-178295951D02*
X241741787Y-178391707D01*
X241741787Y-178391707D02*
X241892902Y-178507661D01*
X241892902Y-178507661D02*
X241997448Y-178527860D01*
X241997448Y-178527860D02*
X242064215Y-178519070D01*
X242064215Y-178519070D02*
X242159971Y-178472501D01*
X199238095Y-89654819D02*
X199238095Y-88654819D01*
X199238095Y-89131009D02*
X199809523Y-89131009D01*
X199809523Y-89654819D02*
X199809523Y-88654819D01*
X200809523Y-89654819D02*
X200238095Y-89654819D01*
X200523809Y-89654819D02*
X200523809Y-88654819D01*
X200523809Y-88654819D02*
X200428571Y-88797676D01*
X200428571Y-88797676D02*
X200333333Y-88892914D01*
X200333333Y-88892914D02*
X200238095Y-88940533D01*
X196701453Y-201216907D02*
X195710009Y-201086380D01*
X195710009Y-201086380D02*
X195741086Y-200850322D01*
X195741086Y-200850322D02*
X195806944Y-200714903D01*
X195806944Y-200714903D02*
X195913799Y-200632910D01*
X195913799Y-200632910D02*
X196014438Y-200598130D01*
X196014438Y-200598130D02*
X196209500Y-200575780D01*
X196209500Y-200575780D02*
X196351135Y-200594427D01*
X196351135Y-200594427D02*
X196533766Y-200666501D01*
X196533766Y-200666501D02*
X196621974Y-200726143D01*
X196621974Y-200726143D02*
X196703966Y-200832998D01*
X196703966Y-200832998D02*
X196732531Y-200980848D01*
X196732531Y-200980848D02*
X196701453Y-201216907D01*
X196900350Y-199706134D02*
X196825764Y-200272673D01*
X196863057Y-199989404D02*
X195871612Y-199858877D01*
X195871612Y-199858877D02*
X196000816Y-199971947D01*
X196000816Y-199971947D02*
X196082809Y-200078802D01*
X196082809Y-200078802D02*
X196117589Y-200179440D01*
X195952414Y-199245126D02*
X196033216Y-198631374D01*
X196033216Y-198631374D02*
X196367401Y-199011580D01*
X196367401Y-199011580D02*
X196386047Y-198869945D01*
X196386047Y-198869945D02*
X196445690Y-198781737D01*
X196445690Y-198781737D02*
X196499117Y-198740741D01*
X196499117Y-198740741D02*
X196599756Y-198705961D01*
X196599756Y-198705961D02*
X196835814Y-198737038D01*
X196835814Y-198737038D02*
X196924022Y-198796681D01*
X196924022Y-198796681D02*
X196965018Y-198850108D01*
X196965018Y-198850108D02*
X196999799Y-198950747D01*
X196999799Y-198950747D02*
X196962506Y-199234017D01*
X196962506Y-199234017D02*
X196902863Y-199322225D01*
X196902863Y-199322225D02*
X196849436Y-199363221D01*
X162065195Y-115480265D02*
X162469256Y-115884326D01*
X161560119Y-116389402D02*
X162267226Y-115682296D01*
X162603944Y-116153700D02*
X162671287Y-116153700D01*
X162671287Y-116153700D02*
X162772302Y-116187372D01*
X162772302Y-116187372D02*
X162940661Y-116355731D01*
X162940661Y-116355731D02*
X162974333Y-116456746D01*
X162974333Y-116456746D02*
X162974333Y-116524090D01*
X162974333Y-116524090D02*
X162940661Y-116625105D01*
X162940661Y-116625105D02*
X162873318Y-116692448D01*
X162873318Y-116692448D02*
X162738631Y-116759792D01*
X162738631Y-116759792D02*
X161930509Y-116759792D01*
X161930509Y-116759792D02*
X162368241Y-117197525D01*
X163277379Y-116827135D02*
X163344722Y-116827135D01*
X163344722Y-116827135D02*
X163445737Y-116860807D01*
X163445737Y-116860807D02*
X163614096Y-117029166D01*
X163614096Y-117029166D02*
X163647768Y-117130181D01*
X163647768Y-117130181D02*
X163647768Y-117197525D01*
X163647768Y-117197525D02*
X163614096Y-117298540D01*
X163614096Y-117298540D02*
X163546753Y-117365883D01*
X163546753Y-117365883D02*
X163412066Y-117433227D01*
X163412066Y-117433227D02*
X162603944Y-117433227D01*
X162603944Y-117433227D02*
X163041676Y-117870960D01*
X171534920Y-192705868D02*
X170741567Y-192097107D01*
X170741567Y-192097107D02*
X170886510Y-191908213D01*
X170886510Y-191908213D02*
X171011255Y-191823866D01*
X171011255Y-191823866D02*
X171144790Y-191806286D01*
X171144790Y-191806286D02*
X171249336Y-191826484D01*
X171249336Y-191826484D02*
X171429439Y-191904660D01*
X171429439Y-191904660D02*
X171542775Y-191991626D01*
X171542775Y-191991626D02*
X171664902Y-192145359D01*
X171664902Y-192145359D02*
X171711471Y-192241115D01*
X171711471Y-192241115D02*
X171729051Y-192374650D01*
X171729051Y-192374650D02*
X171679864Y-192516975D01*
X171679864Y-192516975D02*
X171534920Y-192705868D01*
X172462557Y-191496949D02*
X172114693Y-191950294D01*
X172288625Y-191723621D02*
X171495272Y-191114860D01*
X171495272Y-191114860D02*
X171550631Y-191277383D01*
X171550631Y-191277383D02*
X171568211Y-191410918D01*
X171568211Y-191410918D02*
X171548012Y-191515464D01*
X172219988Y-190170392D02*
X171930101Y-190548179D01*
X171930101Y-190548179D02*
X172278900Y-190875844D01*
X172278900Y-190875844D02*
X172270110Y-190809077D01*
X172270110Y-190809077D02*
X172290308Y-190704531D01*
X172290308Y-190704531D02*
X172435252Y-190515637D01*
X172435252Y-190515637D02*
X172531008Y-190469068D01*
X172531008Y-190469068D02*
X172597775Y-190460278D01*
X172597775Y-190460278D02*
X172702321Y-190480477D01*
X172702321Y-190480477D02*
X172891215Y-190625420D01*
X172891215Y-190625420D02*
X172937784Y-190721176D01*
X172937784Y-190721176D02*
X172946574Y-190787943D01*
X172946574Y-190787943D02*
X172926375Y-190892489D01*
X172926375Y-190892489D02*
X172781432Y-191081383D01*
X172781432Y-191081383D02*
X172685676Y-191127952D01*
X172685676Y-191127952D02*
X172618909Y-191136742D01*
X154423429Y-126474746D02*
X154918301Y-126760461D01*
X154170865Y-127483629D02*
X154670865Y-126617604D01*
X155118118Y-126985797D02*
X155183167Y-126968367D01*
X155183167Y-126968367D02*
X155289455Y-126974747D01*
X155289455Y-126974747D02*
X155495651Y-127093794D01*
X155495651Y-127093794D02*
X155554321Y-127182653D01*
X155554321Y-127182653D02*
X155571750Y-127247701D01*
X155571750Y-127247701D02*
X155565371Y-127353990D01*
X155565371Y-127353990D02*
X155517752Y-127436468D01*
X155517752Y-127436468D02*
X155405084Y-127536377D01*
X155405084Y-127536377D02*
X154624498Y-127745534D01*
X154624498Y-127745534D02*
X155160609Y-128055058D01*
X155985395Y-128531248D02*
X155490523Y-128245534D01*
X155737959Y-128388391D02*
X156237959Y-127522366D01*
X156237959Y-127522366D02*
X156084052Y-127598465D01*
X156084052Y-127598465D02*
X155953954Y-127633324D01*
X155953954Y-127633324D02*
X155847666Y-127626944D01*
X228813253Y-99760648D02*
X228762673Y-99181589D01*
X228318381Y-99474934D02*
X228818381Y-98608909D01*
X228818381Y-98608909D02*
X229148296Y-98799385D01*
X229148296Y-98799385D02*
X229206965Y-98888243D01*
X229206965Y-98888243D02*
X229224394Y-98953292D01*
X229224394Y-98953292D02*
X229218015Y-99059580D01*
X229218015Y-99059580D02*
X229146586Y-99183298D01*
X229146586Y-99183298D02*
X229057728Y-99241967D01*
X229057728Y-99241967D02*
X228992679Y-99259397D01*
X228992679Y-99259397D02*
X228886391Y-99253017D01*
X228886391Y-99253017D02*
X228556476Y-99062541D01*
X229888894Y-99611869D02*
X229555560Y-100189220D01*
X229873173Y-99162907D02*
X229309834Y-99662449D01*
X229309834Y-99662449D02*
X229845945Y-99971973D01*
X170485678Y-100165410D02*
X169958908Y-99919684D01*
X169990807Y-100451124D02*
X169490807Y-99585099D01*
X169490807Y-99585099D02*
X169820721Y-99394623D01*
X169820721Y-99394623D02*
X169927009Y-99388243D01*
X169927009Y-99388243D02*
X169992058Y-99405673D01*
X169992058Y-99405673D02*
X170080916Y-99464342D01*
X170080916Y-99464342D02*
X170152345Y-99588060D01*
X170152345Y-99588060D02*
X170158725Y-99694348D01*
X170158725Y-99694348D02*
X170141295Y-99759397D01*
X170141295Y-99759397D02*
X170082626Y-99848255D01*
X170082626Y-99848255D02*
X169752711Y-100038731D01*
X170363212Y-99191387D02*
X170380642Y-99126338D01*
X170380642Y-99126338D02*
X170439311Y-99037480D01*
X170439311Y-99037480D02*
X170645507Y-98918432D01*
X170645507Y-98918432D02*
X170751795Y-98912052D01*
X170751795Y-98912052D02*
X170816844Y-98929482D01*
X170816844Y-98929482D02*
X170905703Y-98988151D01*
X170905703Y-98988151D02*
X170953322Y-99070630D01*
X170953322Y-99070630D02*
X170983511Y-99218157D01*
X170983511Y-99218157D02*
X170774354Y-99998743D01*
X170774354Y-99998743D02*
X171310464Y-99689219D01*
X171719439Y-98683298D02*
X172052772Y-99260648D01*
X171322766Y-98472431D02*
X171473712Y-99210068D01*
X171473712Y-99210068D02*
X172009823Y-98900544D01*
X234505515Y-455288926D02*
X234879207Y-454843704D01*
X234357619Y-454736968D02*
X235323545Y-454478149D01*
X235323545Y-454478149D02*
X235422142Y-454846121D01*
X235422142Y-454846121D02*
X235400795Y-454950439D01*
X235400795Y-454950439D02*
X235367124Y-455008760D01*
X235367124Y-455008760D02*
X235287455Y-455079406D01*
X235287455Y-455079406D02*
X235149466Y-455116380D01*
X235149466Y-455116380D02*
X235045148Y-455095033D01*
X235045148Y-455095033D02*
X234986827Y-455061361D01*
X234986827Y-455061361D02*
X234916181Y-454981693D01*
X234916181Y-454981693D02*
X234817583Y-454613721D01*
X234752010Y-456208855D02*
X234604113Y-455656898D01*
X234678061Y-455932877D02*
X235643987Y-455674057D01*
X235643987Y-455674057D02*
X235481348Y-455619039D01*
X235481348Y-455619039D02*
X235364706Y-455551695D01*
X235364706Y-455551695D02*
X235294060Y-455472027D01*
X234875257Y-456668820D02*
X234924556Y-456852806D01*
X234924556Y-456852806D02*
X234995202Y-456932474D01*
X234995202Y-456932474D02*
X235053523Y-456966146D01*
X235053523Y-456966146D02*
X235216162Y-457021165D01*
X235216162Y-457021165D02*
X235412472Y-457017862D01*
X235412472Y-457017862D02*
X235780444Y-456919265D01*
X235780444Y-456919265D02*
X235860112Y-456848619D01*
X235860112Y-456848619D02*
X235893784Y-456790297D01*
X235893784Y-456790297D02*
X235915131Y-456685980D01*
X235915131Y-456685980D02*
X235865832Y-456501994D01*
X235865832Y-456501994D02*
X235795186Y-456422326D01*
X235795186Y-456422326D02*
X235736865Y-456388654D01*
X235736865Y-456388654D02*
X235632547Y-456367307D01*
X235632547Y-456367307D02*
X235402565Y-456428931D01*
X235402565Y-456428931D02*
X235322897Y-456499576D01*
X235322897Y-456499576D02*
X235289225Y-456557898D01*
X235289225Y-456557898D02*
X235267878Y-456662215D01*
X235267878Y-456662215D02*
X235317177Y-456846201D01*
X235317177Y-456846201D02*
X235387823Y-456925869D01*
X235387823Y-456925869D02*
X235446144Y-456959541D01*
X235446144Y-456959541D02*
X235550462Y-456980888D01*
D12*
%TO.C,R15*%
X181603791Y-203046217D02*
X182347555Y-203245508D01*
X181992973Y-204568826D02*
X188310128Y-206261503D01*
X182702137Y-201922191D02*
X181992973Y-204568826D01*
X188310128Y-206261503D02*
X189019292Y-203614866D01*
X189019292Y-203614866D02*
X182702137Y-201922191D01*
X189408473Y-205137475D02*
X188664710Y-204938185D01*
%TO.C,T16*%
X164987608Y-183485042D02*
X164877299Y-183374733D01*
X166625267Y-185122701D02*
X166514958Y-185012392D01*
X162702622Y-185769941D02*
G75*
G02*
X164877641Y-183375076I1945578J418134D01*
G01*
X163148452Y-185324128D02*
G75*
G02*
X164620592Y-183852059I1499744J-27676D01*
G01*
X166147942Y-185379408D02*
G75*
G02*
X164675872Y-186851549I-1499746J27604D01*
G01*
X166624925Y-185122359D02*
G75*
G02*
X164230059Y-187297379I-1976729J-229445D01*
G01*
%TO.C,D14*%
X180466938Y-194334808D02*
X180322813Y-194275109D01*
X182606643Y-195221103D02*
X182462518Y-195161404D01*
X179230280Y-197320206D02*
G75*
G02*
X180323260Y-194275295I1637462J1130848D01*
G01*
X179471568Y-196737717D02*
G75*
G02*
X180268311Y-194814337I1396174J548359D01*
G01*
X182263890Y-195640934D02*
G75*
G02*
X181467238Y-197564350I-1396148J-548424D01*
G01*
X182606196Y-195220917D02*
G75*
G02*
X181225972Y-198146849I-1738454J-968441D01*
G01*
%TO.C,T15*%
X174847193Y-191405941D02*
X174712093Y-191327941D01*
X176852907Y-192563941D02*
X176717807Y-192485941D01*
X173231441Y-194204382D02*
G75*
G02*
X174712512Y-191328182I1771059J907442D01*
G01*
X173546695Y-193658370D02*
G75*
G02*
X174587673Y-191855441I1455805J361430D01*
G01*
X176458288Y-192935442D02*
G75*
G02*
X175417395Y-194738419I-1455788J-361498D01*
G01*
X176852488Y-192563699D02*
G75*
G02*
X175102162Y-195284444I-1849991J-733240D01*
G01*
%TO.C,R20*%
X142630000Y-146730000D02*
X142630000Y-153270000D01*
X142630000Y-153270000D02*
X145370000Y-153270000D01*
X144000000Y-145960000D02*
X144000000Y-146730000D01*
X144000000Y-154040000D02*
X144000000Y-153270000D01*
X145370000Y-146730000D02*
X142630000Y-146730000D01*
X145370000Y-153270000D02*
X145370000Y-146730000D01*
%TO.C,R8*%
X254630000Y-146730000D02*
X254630000Y-153270000D01*
X254630000Y-153270000D02*
X257370000Y-153270000D01*
X256000000Y-145960000D02*
X256000000Y-146730000D01*
X256000000Y-154040000D02*
X256000000Y-153270000D01*
X257370000Y-146730000D02*
X254630000Y-146730000D01*
X257370000Y-153270000D02*
X257370000Y-146730000D01*
%TO.C,D10*%
X228628538Y-189083532D02*
X228504774Y-189178499D01*
X230465944Y-187673640D02*
X230342181Y-187768607D01*
X230211832Y-191147002D02*
G75*
G02*
X228944509Y-189495313I223195J1483301D01*
G01*
X230465560Y-187673935D02*
G75*
G02*
X232309379Y-190332210I-30533J-1989766D01*
G01*
X230595639Y-191647209D02*
G75*
G02*
X228505158Y-189178204I-160612J1983508D01*
G01*
X230658152Y-188180389D02*
G75*
G02*
X231925553Y-189832018I-223125J-1483312D01*
G01*
%TO.C,T12*%
X211492701Y-197064142D02*
X211342016Y-197104518D01*
X213729785Y-196464717D02*
X213579100Y-196505093D01*
X212165818Y-199576441D02*
G75*
G02*
X211627038Y-197565495I773840J1284979D01*
G01*
X212328989Y-200185448D02*
G75*
G02*
X211342484Y-197104393I610669J1893986D01*
G01*
X213713438Y-197006446D02*
G75*
G02*
X214252314Y-199017366I-773780J-1285016D01*
G01*
X213729317Y-196464842D02*
G75*
G02*
X214415507Y-199626368I-789659J-1826620D01*
G01*
%TO.C,R13*%
X210591525Y-205137476D02*
X211335289Y-204938185D01*
X210980707Y-203614867D02*
X211689871Y-206261502D01*
X211689871Y-206261502D02*
X218007026Y-204568827D01*
X217297862Y-201922190D02*
X210980707Y-203614867D01*
X218007026Y-204568827D02*
X217297862Y-201922190D01*
X218396207Y-203046218D02*
X217652444Y-203245508D01*
%TO.C,T11*%
X223282193Y-192485941D02*
X223147093Y-192563941D01*
X225287907Y-191327941D02*
X225152807Y-191405941D01*
X224582605Y-194738419D02*
G75*
G02*
X223541712Y-192935442I414895J1441479D01*
G01*
X224897838Y-195284443D02*
G75*
G02*
X223147511Y-192563699I99662J1987503D01*
G01*
X225287488Y-191328183D02*
G75*
G02*
X226768558Y-194204382I-289988J-1968757D01*
G01*
X225412327Y-191855442D02*
G75*
G02*
X226453304Y-193658370I-414827J-1441498D01*
G01*
%TO.C,D22*%
X169534056Y-112326361D02*
X169657819Y-112231394D01*
X171371462Y-110916469D02*
X171495226Y-110821502D01*
X169341848Y-111819612D02*
G75*
G02*
X168074447Y-110167983I223125J1483312D01*
G01*
X169404361Y-108352792D02*
G75*
G02*
X171494842Y-110821797I160612J-1983508D01*
G01*
X169534440Y-112326066D02*
G75*
G02*
X167690621Y-109667791I30533J1989766D01*
G01*
X169788168Y-108852999D02*
G75*
G02*
X171055491Y-110504688I-223195J-1483301D01*
G01*
%TO.C,D6*%
X247859302Y-142452538D02*
X247879664Y-142607203D01*
X248161600Y-144748724D02*
X248181962Y-144903389D01*
X247859365Y-142453018D02*
G75*
G02*
X251083408Y-142185361I1707922J-1021330D01*
G01*
X248394262Y-142539455D02*
G75*
G02*
X250458316Y-142267668I1173024J-934888D01*
G01*
X250740266Y-144409286D02*
G75*
G02*
X248676199Y-144680976I-1172980J934943D01*
G01*
X251365360Y-144327003D02*
G75*
G02*
X248181899Y-144902910I-1798074J852660D01*
G01*
%TO.C,R12*%
X224483097Y-198945968D02*
X225853097Y-201318878D01*
X224501257Y-200517423D02*
X225168097Y-200132423D01*
X225853097Y-201318878D02*
X231516903Y-198048878D01*
X230146903Y-195675968D02*
X224483097Y-198945968D01*
X231498743Y-196477423D02*
X230831903Y-196862423D01*
X231516903Y-198048878D02*
X230146903Y-195675968D01*
%TO.C,D8*%
X244334808Y-169533063D02*
X244275109Y-169677188D01*
X245221103Y-167393358D02*
X245161404Y-167537483D01*
X245220917Y-167393805D02*
G75*
G02*
X248146849Y-168774029I968441J-1738454D01*
G01*
X245640934Y-167736111D02*
G75*
G02*
X247564350Y-168532763I548424J-1396148D01*
G01*
X246737717Y-170528433D02*
G75*
G02*
X244814337Y-169731690I-548359J1396174D01*
G01*
X247320206Y-170769721D02*
G75*
G02*
X244275295Y-169676741I-1130848J1637462D01*
G01*
%TO.C,D12*%
X205251276Y-198161600D02*
X205096611Y-198181962D01*
X207547462Y-197859302D02*
X207392797Y-197879664D01*
X205590714Y-200740266D02*
G75*
G02*
X205319024Y-198676199I934943J1172980D01*
G01*
X205672997Y-201365360D02*
G75*
G02*
X205097090Y-198181899I852660J1798074D01*
G01*
X207460545Y-198394262D02*
G75*
G02*
X207732332Y-200458316I-934888J-1173024D01*
G01*
X207546982Y-197859365D02*
G75*
G02*
X207814639Y-201083408I-1021330J-1707922D01*
G01*
%TO.C,R2*%
X195960000Y-94000000D02*
X196730000Y-94000000D01*
X196730000Y-92630000D02*
X196730000Y-95370000D01*
X196730000Y-95370000D02*
X203270000Y-95370000D01*
X203270000Y-92630000D02*
X196730000Y-92630000D01*
X203270000Y-95370000D02*
X203270000Y-92630000D01*
X204040000Y-94000000D02*
X203270000Y-94000000D01*
%TO.C,R25*%
X181603793Y-96953782D02*
X182347556Y-96754492D01*
X181992974Y-95431173D02*
X182702138Y-98077810D01*
X182702138Y-98077810D02*
X189019293Y-96385133D01*
X188310129Y-93738498D02*
X181992974Y-95431173D01*
X189019293Y-96385133D02*
X188310129Y-93738498D01*
X189408475Y-94862524D02*
X188664711Y-95061815D01*
%TO.C,T6*%
X246464717Y-136270215D02*
X246505093Y-136420900D01*
X247064142Y-138507299D02*
X247104518Y-138657984D01*
X246464842Y-136270683D02*
G75*
G02*
X249626368Y-135584493I1826620J-789659D01*
G01*
X247006446Y-136286562D02*
G75*
G02*
X249017366Y-135747686I1285016J-773780D01*
G01*
X249576441Y-137834182D02*
G75*
G02*
X247565495Y-138372962I-1284979J773840D01*
G01*
X250185448Y-137671011D02*
G75*
G02*
X247104393Y-138657516I-1893986J610669D01*
G01*
%TO.C,D5*%
X244275109Y-130322813D02*
X244334808Y-130466938D01*
X245161404Y-132462518D02*
X245221103Y-132606643D01*
X244275294Y-130323260D02*
G75*
G02*
X247320206Y-129230279I1914064J-544482D01*
G01*
X244814337Y-130268311D02*
G75*
G02*
X246737717Y-129471568I1375021J-599431D01*
G01*
X247564350Y-131467238D02*
G75*
G02*
X245640934Y-132263890I-1374992J599496D01*
G01*
X248146849Y-131225972D02*
G75*
G02*
X245220917Y-132606196I-1957491J358230D01*
G01*
%TO.C,R1*%
X209247731Y-109104570D02*
X210017731Y-109104570D01*
X210017731Y-107734570D02*
X210017731Y-110474570D01*
X210017731Y-110474570D02*
X216557731Y-110474570D01*
X216557731Y-107734570D02*
X210017731Y-107734570D01*
X216557731Y-110474570D02*
X216557731Y-107734570D01*
X217327731Y-109104570D02*
X216557731Y-109104570D01*
%TO.C,T14*%
X186420900Y-196505093D02*
X186270215Y-196464717D01*
X188657984Y-197104518D02*
X188507299Y-197064142D01*
X185584494Y-199626367D02*
G75*
G02*
X186270683Y-196464843I1475848J1334905D01*
G01*
X185747687Y-199017366D02*
G75*
G02*
X186286562Y-197006447I1312655J725904D01*
G01*
X188372962Y-197565495D02*
G75*
G02*
X187834182Y-199576441I-1312620J-725967D01*
G01*
X188657516Y-197104393D02*
G75*
G02*
X187671011Y-200185448I-1597174J-1187069D01*
G01*
%TO.C,T4*%
X233374733Y-114877299D02*
X233485042Y-114987608D01*
X235012392Y-116514958D02*
X235122701Y-116625267D01*
X233375075Y-114877641D02*
G75*
G02*
X235769941Y-112702621I1976729J229445D01*
G01*
X233852058Y-114620592D02*
G75*
G02*
X235324128Y-113148451I1499746J-27604D01*
G01*
X236851548Y-114675872D02*
G75*
G02*
X235379408Y-116147941I-1499744J27676D01*
G01*
X237297378Y-114230059D02*
G75*
G02*
X235122359Y-116624924I-1945578J-418134D01*
G01*
%TO.C,T2*%
X211342016Y-102895483D02*
X211492701Y-102935859D01*
X213579100Y-103494908D02*
X213729785Y-103535284D01*
X211342484Y-102895608D02*
G75*
G02*
X212328989Y-99814553I1597174J1187069D01*
G01*
X211627038Y-102434506D02*
G75*
G02*
X212165818Y-100423560I1312620J725967D01*
G01*
X214252313Y-100982635D02*
G75*
G02*
X213713438Y-102993554I-1312655J-725904D01*
G01*
X214415506Y-100373634D02*
G75*
G02*
X213729317Y-103535158I-1475848J-1334905D01*
G01*
%TO.C,D1*%
X205096611Y-101818039D02*
X205251276Y-101838401D01*
X207392797Y-102120337D02*
X207547462Y-102140699D01*
X205097090Y-101818102D02*
G75*
G02*
X205672997Y-98634641I1428567J1385387D01*
G01*
X205319024Y-101323802D02*
G75*
G02*
X205590714Y-99259735I1206633J891087D01*
G01*
X207732332Y-99541685D02*
G75*
G02*
X207460545Y-101605739I-1206675J-891030D01*
G01*
X207814639Y-98916593D02*
G75*
G02*
X207546982Y-102140636I-1288982J-1516122D01*
G01*
%TO.C,R21*%
X143738498Y-138310128D02*
X146385135Y-139019292D01*
X144862526Y-139408473D02*
X145061816Y-138664710D01*
X145431175Y-131992973D02*
X143738498Y-138310128D01*
X146385135Y-139019292D02*
X148077810Y-132702137D01*
X146953784Y-131603791D02*
X146754493Y-132347555D01*
X148077810Y-132702137D02*
X145431175Y-131992973D01*
%TO.C,T17*%
X157514060Y-173282193D02*
X157436060Y-173147093D01*
X158672060Y-175287907D02*
X158594060Y-175152807D01*
X154715558Y-174897838D02*
G75*
G02*
X157436302Y-173147511I1987503J-99662D01*
G01*
X155261582Y-174582605D02*
G75*
G02*
X157064559Y-173541712I1441479J-414895D01*
G01*
X158144559Y-175412327D02*
G75*
G02*
X156341631Y-176453304I-1441498J414827D01*
G01*
X158671818Y-175287488D02*
G75*
G02*
X155795619Y-176768558I-1968757J289988D01*
G01*
%TO.C,T10*%
X233485042Y-185012392D02*
X233374733Y-185122701D01*
X235122701Y-183374733D02*
X235012392Y-183485042D01*
X235122359Y-183375075D02*
G75*
G02*
X237297379Y-185769941I229445J-1976729D01*
G01*
X235324128Y-186851548D02*
G75*
G02*
X233852059Y-185379408I27676J1499744D01*
G01*
X235379408Y-183852058D02*
G75*
G02*
X236851549Y-185324128I-27604J-1499746D01*
G01*
X235769941Y-187297378D02*
G75*
G02*
X233375076Y-185122359I-418134J1945578D01*
G01*
%TO.C,T13*%
X198920000Y-198435000D02*
X198764000Y-198435000D01*
X201236000Y-198435000D02*
X201080000Y-198435000D01*
X198919939Y-201666397D02*
G75*
G02*
X198764484Y-198435000I1080061J1671397D01*
G01*
X198919951Y-201035910D02*
G75*
G02*
X198920000Y-198954039I1080049J1040910D01*
G01*
X201080000Y-198954039D02*
G75*
G02*
X201080049Y-201035910I-1080000J-1040961D01*
G01*
X201235516Y-198435000D02*
G75*
G02*
X201080061Y-201666397I-1235516J-1560000D01*
G01*
%TO.C,R18*%
X148681122Y-175853097D02*
X151951122Y-181516903D01*
X149482577Y-174501257D02*
X149867577Y-175168097D01*
X151054032Y-174483097D02*
X148681122Y-175853097D01*
X151951122Y-181516903D02*
X154324032Y-180146903D01*
X153522577Y-181498743D02*
X153137577Y-180831903D01*
X154324032Y-180146903D02*
X151054032Y-174483097D01*
%TO.C,D24*%
X192452538Y-102140699D02*
X192607203Y-102120337D01*
X194748724Y-101838401D02*
X194903389Y-101818039D01*
X192453018Y-102140636D02*
G75*
G02*
X192185361Y-98916593I1021330J1707922D01*
G01*
X192539455Y-101605739D02*
G75*
G02*
X192267668Y-99541685I934888J1173024D01*
G01*
X194327003Y-98634641D02*
G75*
G02*
X194902910Y-101818102I-852660J-1798074D01*
G01*
X194409286Y-99259735D02*
G75*
G02*
X194680976Y-101323802I-934943J-1172980D01*
G01*
%TO.C,D23*%
X180322813Y-105724892D02*
X180466938Y-105665193D01*
X182462518Y-104838597D02*
X182606643Y-104778898D01*
X180268311Y-105185664D02*
G75*
G02*
X179471568Y-103262284I599431J1375021D01*
G01*
X180323260Y-105724707D02*
G75*
G02*
X179230279Y-102679795I544482J1914064D01*
G01*
X181225972Y-101853152D02*
G75*
G02*
X182606196Y-104779084I-358230J-1957491D01*
G01*
X181467238Y-102435651D02*
G75*
G02*
X182263890Y-104359067I-599496J-1374992D01*
G01*
%TO.C,T8*%
X246505093Y-163579100D02*
X246464717Y-163729785D01*
X247104518Y-161342016D02*
X247064142Y-161492701D01*
X247104393Y-161342484D02*
G75*
G02*
X250185448Y-162328989I1187069J-1597174D01*
G01*
X247565495Y-161627038D02*
G75*
G02*
X249576441Y-162165818I725967J-1312620D01*
G01*
X249017366Y-164252313D02*
G75*
G02*
X247006447Y-163713438I-725904J1312655D01*
G01*
X249626367Y-164415506D02*
G75*
G02*
X246464843Y-163729317I-1334905J1475848D01*
G01*
%TO.C,D20*%
X154778898Y-132606643D02*
X154838597Y-132462518D01*
X155665193Y-130466938D02*
X155724892Y-130322813D01*
X152679795Y-129230280D02*
G75*
G02*
X155724706Y-130323260I1130848J-1637462D01*
G01*
X153262284Y-129471568D02*
G75*
G02*
X155185664Y-130268311I548359J-1396174D01*
G01*
X154359067Y-132263890D02*
G75*
G02*
X152435651Y-131467238I-548424J1396148D01*
G01*
X154779084Y-132606196D02*
G75*
G02*
X151853152Y-131225972I-968441J1738454D01*
G01*
%TO.C,T3*%
X223147093Y-107436060D02*
X223282193Y-107514060D01*
X225152807Y-108594060D02*
X225287907Y-108672060D01*
X223147512Y-107436302D02*
G75*
G02*
X224897838Y-104715557I1849991J733240D01*
G01*
X223541712Y-107064559D02*
G75*
G02*
X224582605Y-105261582I1455788J361498D01*
G01*
X226453305Y-106341631D02*
G75*
G02*
X225412327Y-108144560I-1455805J-361430D01*
G01*
X226768559Y-105795619D02*
G75*
G02*
X225287488Y-108671819I-1771059J-907442D01*
G01*
%TO.C,D16*%
X160916469Y-178628538D02*
X160821502Y-178504774D01*
X162326361Y-180465944D02*
X162231394Y-180342181D01*
X158352792Y-180595639D02*
G75*
G02*
X160821797Y-178505158I1983508J160612D01*
G01*
X158852999Y-180211832D02*
G75*
G02*
X160504688Y-178944509I1483301J-223195D01*
G01*
X161819612Y-180658152D02*
G75*
G02*
X160167983Y-181925553I-1483312J223125D01*
G01*
X162326066Y-180465560D02*
G75*
G02*
X159667791Y-182309379I-1989766J30533D01*
G01*
%TO.C,R5*%
X236317005Y-109058518D02*
X240941483Y-113682996D01*
X236741269Y-107545309D02*
X237285741Y-108089781D01*
X238254478Y-107121045D02*
X236317005Y-109058518D01*
X240941483Y-113682996D02*
X242878956Y-111745523D01*
X242454692Y-113258732D02*
X241910220Y-112714260D01*
X242878956Y-111745523D02*
X238254478Y-107121045D01*
%TO.C,D11*%
X217537483Y-195161404D02*
X217393358Y-195221103D01*
X219677188Y-194275109D02*
X219533063Y-194334808D01*
X218532763Y-197564350D02*
G75*
G02*
X217736111Y-195640934I599496J1374992D01*
G01*
X218774029Y-198146849D02*
G75*
G02*
X217393805Y-195220917I358230J1957491D01*
G01*
X219676741Y-194275294D02*
G75*
G02*
X220769722Y-197320206I-544482J-1914064D01*
G01*
X219731690Y-194814337D02*
G75*
G02*
X220528433Y-196737717I-599431J-1375021D01*
G01*
%TO.C,R23*%
X157121044Y-111745522D02*
X159058517Y-113682995D01*
X157545308Y-113258731D02*
X158089780Y-112714259D01*
X159058517Y-113682995D02*
X163682995Y-109058517D01*
X161745522Y-107121044D02*
X157121044Y-111745522D01*
X163258731Y-107545308D02*
X162714259Y-108089780D01*
X163682995Y-109058517D02*
X161745522Y-107121044D01*
%TO.C,T24*%
X186270215Y-103535284D02*
X186420900Y-103494908D01*
X188507299Y-102935859D02*
X188657984Y-102895483D01*
X186270683Y-103535159D02*
G75*
G02*
X185584493Y-100373633I789659J1826620D01*
G01*
X186286562Y-102993555D02*
G75*
G02*
X185747686Y-100982635I773780J1285016D01*
G01*
X187671011Y-99814553D02*
G75*
G02*
X188657516Y-102895608I-610669J-1893986D01*
G01*
X187834182Y-100423560D02*
G75*
G02*
X188372962Y-102434506I-773840J-1284979D01*
G01*
%TO.C,D4*%
X237673640Y-119534056D02*
X237768607Y-119657819D01*
X239083532Y-121371462D02*
X239178499Y-121495226D01*
X237673935Y-119534440D02*
G75*
G02*
X240332210Y-117690621I1989766J-30533D01*
G01*
X238180389Y-119341848D02*
G75*
G02*
X239832018Y-118074447I1483312J-223125D01*
G01*
X241147002Y-119788168D02*
G75*
G02*
X239495313Y-121055491I-1483301J223195D01*
G01*
X241647209Y-119404361D02*
G75*
G02*
X239178204Y-121494842I-1983508J-160612D01*
G01*
%TO.C,D19*%
X151818039Y-144903389D02*
X151838401Y-144748724D01*
X152120337Y-142607203D02*
X152140699Y-142452538D01*
X148916593Y-142185361D02*
G75*
G02*
X152140636Y-142453018I1516122J-1288982D01*
G01*
X149541685Y-142267668D02*
G75*
G02*
X151605739Y-142539455I891030J-1206675D01*
G01*
X151323802Y-144680976D02*
G75*
G02*
X149259735Y-144409286I-891087J1206633D01*
G01*
X151818102Y-144902910D02*
G75*
G02*
X148634641Y-144327003I-1385387J1428567D01*
G01*
%TO.C,D7*%
X247879664Y-157392797D02*
X247859302Y-157547462D01*
X248181962Y-155096611D02*
X248161600Y-155251276D01*
X248181899Y-155097090D02*
G75*
G02*
X251365360Y-155672997I1385387J-1428567D01*
G01*
X248676199Y-155319024D02*
G75*
G02*
X250740266Y-155590714I891087J-1206633D01*
G01*
X250458316Y-157732332D02*
G75*
G02*
X248394262Y-157460545I-891030J1206675D01*
G01*
X251083408Y-157814639D02*
G75*
G02*
X247859365Y-157546982I-1516122J1288982D01*
G01*
%TO.C,T20*%
X152895483Y-138657984D02*
X152935859Y-138507299D01*
X153494908Y-136420900D02*
X153535284Y-136270215D01*
X150373634Y-135584494D02*
G75*
G02*
X153535158Y-136270683I1334905J-1475848D01*
G01*
X150982635Y-135747687D02*
G75*
G02*
X152993554Y-136286562I725904J-1312655D01*
G01*
X152434506Y-138372962D02*
G75*
G02*
X150423560Y-137834182I-725967J1312620D01*
G01*
X152895608Y-138657516D02*
G75*
G02*
X149814553Y-137671011I-1187069J1597174D01*
G01*
%TO.C,T9*%
X241405941Y-175152807D02*
X241327941Y-175287907D01*
X242563941Y-173147093D02*
X242485941Y-173282193D01*
X242563699Y-173147512D02*
G75*
G02*
X245284444Y-174897838I733240J-1849991D01*
G01*
X242935442Y-173541712D02*
G75*
G02*
X244738419Y-174582605I361498J-1455788D01*
G01*
X243658370Y-176453305D02*
G75*
G02*
X241855441Y-175412327I-361430J1455805D01*
G01*
X244204382Y-176768559D02*
G75*
G02*
X241328182Y-175287488I-907442J1771059D01*
G01*
%TO.C,R3*%
X210591527Y-94862526D02*
X211335290Y-95061816D01*
X210980708Y-96385135D02*
X217297863Y-98077810D01*
X211689872Y-93738498D02*
X210980708Y-96385135D01*
X217297863Y-98077810D02*
X218007027Y-95431175D01*
X218007027Y-95431175D02*
X211689872Y-93738498D01*
X218396209Y-96953784D02*
X217652445Y-96754493D01*
%TO.C,D18*%
X151838401Y-155251276D02*
X151818039Y-155096611D01*
X152140699Y-157547462D02*
X152120337Y-157392797D01*
X148634641Y-155672997D02*
G75*
G02*
X151818102Y-155097090I1798074J-852660D01*
G01*
X149259735Y-155590714D02*
G75*
G02*
X151323802Y-155319024I1172980J-934943D01*
G01*
X151605739Y-157460545D02*
G75*
G02*
X149541685Y-157732332I-1173024J934888D01*
G01*
X152140636Y-157546982D02*
G75*
G02*
X148916593Y-157814639I-1707922J1021330D01*
G01*
%TO.C,T7*%
X248435000Y-148764000D02*
X248435000Y-148920000D01*
X248435000Y-151080000D02*
X248435000Y-151236000D01*
X248435000Y-148764484D02*
G75*
G02*
X251666397Y-148919939I1560000J-1235516D01*
G01*
X248954039Y-148920000D02*
G75*
G02*
X251035910Y-148919951I1040961J-1080000D01*
G01*
X251035910Y-151080049D02*
G75*
G02*
X248954039Y-151080000I-1040910J1080049D01*
G01*
X251666397Y-151080061D02*
G75*
G02*
X248435000Y-151235516I-1671397J1080061D01*
G01*
%TO.C,T1*%
X198764000Y-101565000D02*
X198920000Y-101565000D01*
X201080000Y-101565000D02*
X201236000Y-101565000D01*
X198764484Y-101565000D02*
G75*
G02*
X198919939Y-98333603I1235516J1560000D01*
G01*
X198920000Y-101045961D02*
G75*
G02*
X198919951Y-98964090I1080000J1040961D01*
G01*
X201080049Y-98964090D02*
G75*
G02*
X201080000Y-101045961I-1080049J-1040910D01*
G01*
X201080061Y-98333603D02*
G75*
G02*
X201235516Y-101565000I-1080061J-1671397D01*
G01*
%TO.C,D21*%
X160821502Y-121495226D02*
X160916469Y-121371462D01*
X162231394Y-119657819D02*
X162326361Y-119534056D01*
X159667791Y-117690621D02*
G75*
G02*
X162326065Y-119534440I668506J-1874356D01*
G01*
X160167983Y-118074447D02*
G75*
G02*
X161819612Y-119341848I168317J-1490526D01*
G01*
X160504688Y-121055491D02*
G75*
G02*
X158852999Y-119788168I-168388J1490518D01*
G01*
X160821797Y-121494842D02*
G75*
G02*
X158352792Y-119404361I-485497J1929869D01*
G01*
%TO.C,T23*%
X174712093Y-108672060D02*
X174847193Y-108594060D01*
X176717807Y-107514060D02*
X176852907Y-107436060D01*
X174587673Y-108144559D02*
G75*
G02*
X173546696Y-106341631I414827J1441498D01*
G01*
X174712512Y-108671818D02*
G75*
G02*
X173231442Y-105795619I289988J1968757D01*
G01*
X175102162Y-104715558D02*
G75*
G02*
X176852489Y-107436302I-99662J-1987503D01*
G01*
X175417395Y-105261582D02*
G75*
G02*
X176458288Y-107064559I-414895J-1441479D01*
G01*
%TO.C,R14*%
X195960000Y-206000000D02*
X196730000Y-206000000D01*
X196730000Y-204630000D02*
X196730000Y-207370000D01*
X196730000Y-207370000D02*
X203270000Y-207370000D01*
X203270000Y-204630000D02*
X196730000Y-204630000D01*
X203270000Y-207370000D02*
X203270000Y-204630000D01*
X204040000Y-206000000D02*
X203270000Y-206000000D01*
%TO.C,T19*%
X151565000Y-148920000D02*
X151565000Y-148764000D01*
X151565000Y-151236000D02*
X151565000Y-151080000D01*
X148333603Y-148919939D02*
G75*
G02*
X151565000Y-148764484I1671397J-1080061D01*
G01*
X148964090Y-148919951D02*
G75*
G02*
X151045961Y-148920000I1040910J-1080049D01*
G01*
X151045961Y-151080000D02*
G75*
G02*
X148964090Y-151080049I-1040961J1080000D01*
G01*
X151565000Y-151235516D02*
G75*
G02*
X148333603Y-151080061I-1560000J1235516D01*
G01*
%TO.C,D17*%
X154838597Y-167537483D02*
X154778898Y-167393358D01*
X155724892Y-169677188D02*
X155665193Y-169533063D01*
X151853152Y-168774029D02*
G75*
G02*
X154779084Y-167393805I1957491J-358230D01*
G01*
X152435651Y-168532763D02*
G75*
G02*
X154359067Y-167736111I1374992J-599496D01*
G01*
X155185664Y-169731690D02*
G75*
G02*
X153262284Y-170528433I-1375021J599431D01*
G01*
X155724707Y-169676741D02*
G75*
G02*
X152679795Y-170769722I-1914064J544482D01*
G01*
%TO.C,R17*%
X157121045Y-188254478D02*
X161745523Y-192878956D01*
X157545309Y-186741269D02*
X158089781Y-187285741D01*
X159058518Y-186317005D02*
X157121045Y-188254478D01*
X161745523Y-192878956D02*
X163682996Y-190941483D01*
X163258732Y-192454692D02*
X162714260Y-191910220D01*
X163682996Y-190941483D02*
X159058518Y-186317005D01*
%TO.C,R9*%
X251922191Y-167297863D02*
X254568826Y-168007027D01*
X253046217Y-168396209D02*
X253245508Y-167652445D01*
X253614866Y-160980708D02*
X251922191Y-167297863D01*
X254568826Y-168007027D02*
X256261503Y-161689872D01*
X255137475Y-160591527D02*
X254938185Y-161335290D01*
X256261503Y-161689872D02*
X253614866Y-160980708D01*
%TO.C,T5*%
X241327941Y-124712093D02*
X241405941Y-124847193D01*
X242485941Y-126717807D02*
X242563941Y-126852907D01*
X241328183Y-124712512D02*
G75*
G02*
X244204382Y-123231442I1968757J-289988D01*
G01*
X241855442Y-124587673D02*
G75*
G02*
X243658370Y-123546696I1441498J-414827D01*
G01*
X244738419Y-125417395D02*
G75*
G02*
X242935442Y-126458288I-1441479J414895D01*
G01*
X245284443Y-125102162D02*
G75*
G02*
X242563699Y-126852489I-1987503J99662D01*
G01*
%TO.C,R7*%
X251922190Y-132702138D02*
X253614867Y-139019293D01*
X253046218Y-131603793D02*
X253245508Y-132347556D01*
X253614867Y-139019293D02*
X256261502Y-138310129D01*
X254568827Y-131992974D02*
X251922190Y-132702138D01*
X255137476Y-139408475D02*
X254938185Y-138664711D01*
X256261502Y-138310129D02*
X254568827Y-131992974D01*
%TO.C,R16*%
X168483097Y-198048878D02*
X174146903Y-201318878D01*
X168501257Y-196477423D02*
X169168097Y-196862423D01*
X169853097Y-195675968D02*
X168483097Y-198048878D01*
X174146903Y-201318878D02*
X175516903Y-198945968D01*
X175498743Y-200517423D02*
X174831903Y-200132423D01*
X175516903Y-198945968D02*
X169853097Y-195675968D01*
%TO.C,R6*%
X245675968Y-119853097D02*
X248945968Y-125516903D01*
X246477423Y-118501257D02*
X246862423Y-119168097D01*
X248048878Y-118483097D02*
X245675968Y-119853097D01*
X248945968Y-125516903D02*
X251318878Y-124146903D01*
X250517423Y-125498743D02*
X250132423Y-124831903D01*
X251318878Y-124146903D02*
X248048878Y-118483097D01*
%TO.C,T18*%
X152935859Y-161492701D02*
X152895483Y-161342016D01*
X153535284Y-163729785D02*
X153494908Y-163579100D01*
X149814553Y-162328989D02*
G75*
G02*
X152895608Y-161342484I1893986J-610669D01*
G01*
X150423560Y-162165818D02*
G75*
G02*
X152434506Y-161627038I1284979J-773840D01*
G01*
X152993555Y-163713438D02*
G75*
G02*
X150982635Y-164252314I-1285016J773780D01*
G01*
X153535159Y-163729317D02*
G75*
G02*
X150373633Y-164415507I-1826620J789659D01*
G01*
%TO.C,D2*%
X217393358Y-104778898D02*
X217537483Y-104838597D01*
X219533063Y-105665193D02*
X219677188Y-105724892D01*
X217393805Y-104779084D02*
G75*
G02*
X218774029Y-101853152I1738454J968441D01*
G01*
X217736111Y-104359067D02*
G75*
G02*
X218532763Y-102435651I1396148J548424D01*
G01*
X220528433Y-103262284D02*
G75*
G02*
X219731690Y-105185664I-1396174J-548359D01*
G01*
X220769721Y-102679795D02*
G75*
G02*
X219676741Y-105724706I-1637462J-1130848D01*
G01*
%TO.C,R22*%
X148681122Y-124146903D02*
X151054032Y-125516903D01*
X149482577Y-125498743D02*
X149867577Y-124831903D01*
X151054032Y-125516903D02*
X154324032Y-119853097D01*
X151951122Y-118483097D02*
X148681122Y-124146903D01*
X153522577Y-118501257D02*
X153137577Y-119168097D01*
X154324032Y-119853097D02*
X151951122Y-118483097D01*
%TO.C,D3*%
X228504774Y-110821502D02*
X228628538Y-110916469D01*
X230342181Y-112231394D02*
X230465944Y-112326361D01*
X228505158Y-110821797D02*
G75*
G02*
X230595639Y-108352792I1929869J485497D01*
G01*
X228944509Y-110504688D02*
G75*
G02*
X230211832Y-108852999I1490518J168388D01*
G01*
X231925553Y-110167983D02*
G75*
G02*
X230658152Y-111819612I-1490526J-168317D01*
G01*
X232309379Y-109667791D02*
G75*
G02*
X230465560Y-112326065I-1874356J-668506D01*
G01*
%TO.C,R11*%
X236317005Y-190941483D02*
X238254478Y-192878956D01*
X236741269Y-192454692D02*
X237285741Y-191910220D01*
X238254478Y-192878956D02*
X242878956Y-188254478D01*
X240941483Y-186317005D02*
X236317005Y-190941483D01*
X242454692Y-186741269D02*
X241910220Y-187285741D01*
X242878956Y-188254478D02*
X240941483Y-186317005D01*
%TO.C,R10*%
X245675968Y-180146903D02*
X248048878Y-181516903D01*
X246477423Y-181498743D02*
X246862423Y-180831903D01*
X248048878Y-181516903D02*
X251318878Y-175853097D01*
X248945968Y-174483097D02*
X245675968Y-180146903D01*
X250517423Y-174501257D02*
X250132423Y-175168097D01*
X251318878Y-175853097D02*
X248945968Y-174483097D01*
%TO.C,D9*%
X237768607Y-180342181D02*
X237673640Y-180465944D01*
X239178499Y-178504774D02*
X239083532Y-178628538D01*
X239178204Y-178505158D02*
G75*
G02*
X241647209Y-180595639I485497J-1929869D01*
G01*
X239495313Y-178944509D02*
G75*
G02*
X241147002Y-180211832I168388J-1490518D01*
G01*
X239832018Y-181925553D02*
G75*
G02*
X238180389Y-180658152I-168317J1490526D01*
G01*
X240332210Y-182309379D02*
G75*
G02*
X237673936Y-180465560I-668506J1874356D01*
G01*
%TO.C,D13*%
X192607203Y-197879664D02*
X192452538Y-197859302D01*
X194903389Y-198181962D02*
X194748724Y-198161600D01*
X192185361Y-201083408D02*
G75*
G02*
X192453018Y-197859365I1288982J1516122D01*
G01*
X192267668Y-200458316D02*
G75*
G02*
X192539455Y-198394262I1206675J891030D01*
G01*
X194680976Y-198676199D02*
G75*
G02*
X194409286Y-200740266I-1206633J-891087D01*
G01*
X194902910Y-198181899D02*
G75*
G02*
X194327003Y-201365360I-1428567J-1385387D01*
G01*
%TO.C,T22*%
X164877299Y-116625267D02*
X164987608Y-116514958D01*
X166514958Y-114987608D02*
X166625267Y-114877299D01*
X164230059Y-112702622D02*
G75*
G02*
X166624924Y-114877641I418134J-1945578D01*
G01*
X164620592Y-116147942D02*
G75*
G02*
X163148451Y-114675872I27604J1499746D01*
G01*
X164675872Y-113148452D02*
G75*
G02*
X166147941Y-114620592I-27676J-1499744D01*
G01*
X164877641Y-116624925D02*
G75*
G02*
X162702621Y-114230059I-229445J1976729D01*
G01*
%TO.C,D15*%
X169657819Y-187768607D02*
X169534056Y-187673640D01*
X171495226Y-189178499D02*
X171371462Y-189083532D01*
X167690621Y-190332210D02*
G75*
G02*
X169534440Y-187673936I1874356J668506D01*
G01*
X168074447Y-189832018D02*
G75*
G02*
X169341848Y-188180389I1490526J168317D01*
G01*
X171055491Y-189495313D02*
G75*
G02*
X169788168Y-191147002I-1490518J-168388D01*
G01*
X171494842Y-189178204D02*
G75*
G02*
X169404361Y-191647209I-1929869J-485497D01*
G01*
%TO.C,T21*%
X157436060Y-126852907D02*
X157514060Y-126717807D01*
X158594060Y-124847193D02*
X158672060Y-124712093D01*
X155795619Y-123231441D02*
G75*
G02*
X158671819Y-124712512I907442J-1771059D01*
G01*
X156341631Y-123546695D02*
G75*
G02*
X158144560Y-124587673I361430J-1455805D01*
G01*
X157064559Y-126458288D02*
G75*
G02*
X155261582Y-125417395I-361498J1455788D01*
G01*
X157436302Y-126852488D02*
G75*
G02*
X154715557Y-125102162I-733240J1849991D01*
G01*
%TO.C,R4*%
X224483097Y-101054032D02*
X230146903Y-104324032D01*
X224501257Y-99482577D02*
X225168097Y-99867577D01*
X225853097Y-98681122D02*
X224483097Y-101054032D01*
X230146903Y-104324032D02*
X231516903Y-101951122D01*
X231498743Y-103522577D02*
X230831903Y-103137577D01*
X231516903Y-101951122D02*
X225853097Y-98681122D01*
%TO.C,R24*%
X168483097Y-101951122D02*
X169853097Y-104324032D01*
X168501257Y-103522577D02*
X169168097Y-103137577D01*
X169853097Y-104324032D02*
X175516903Y-101054032D01*
X174146903Y-98681122D02*
X168483097Y-101951122D01*
X175498743Y-99482577D02*
X174831903Y-99867577D01*
X175516903Y-101054032D02*
X174146903Y-98681122D01*
%TO.C,R19*%
X143738498Y-161689871D02*
X145431173Y-168007026D01*
X144862524Y-160591525D02*
X145061815Y-161335289D01*
X145431173Y-168007026D02*
X148077810Y-167297862D01*
X146385133Y-160980707D02*
X143738498Y-161689871D01*
X146953782Y-168396207D02*
X146754492Y-167652444D01*
X148077810Y-167297862D02*
X146385133Y-160980707D01*
%TD*%
M02*
