%TF.GenerationSoftware,KiCad,Pcbnew,8.0.7*%
%TF.CreationDate,2025-02-18T21:39:36+09:00*%
%TF.ProjectId,LINESensorV3.1,4c494e45-5365-46e7-936f-7256332e312e,rev?*%
%TF.SameCoordinates,Original*%
%TF.FileFunction,Profile,NP*%
%FSLAX46Y46*%
G04 Gerber Fmt 4.6, Leading zero omitted, Abs format (unit mm)*
G04 Created by KiCad (PCBNEW 8.0.7) date 2025-02-18 21:39:36*
%MOMM*%
%LPD*%
G01*
G04 APERTURE LIST*
%TA.AperFunction,Profile*%
%ADD10C,0.050000*%
%TD*%
G04 APERTURE END LIST*
D10*
X195000000Y-90200000D02*
X195000000Y-85000000D01*
X228000000Y-139000000D02*
X228000000Y-171000000D01*
X223000000Y-134000000D02*
G75*
G02*
X228000000Y-139000000I0J-5000000D01*
G01*
X140200000Y-145000000D02*
G75*
G02*
X195000000Y-90200000I59800000J-5000000D01*
G01*
X205000000Y-90200000D02*
G75*
G02*
X259800000Y-145000000I-5000000J-59800000D01*
G01*
X195000000Y-85000000D02*
G75*
G02*
X205000000Y-85000000I5000000J0D01*
G01*
X195000000Y-209800000D02*
X195000000Y-215000000D01*
X259800000Y-155000000D02*
X265000000Y-155000000D01*
X223000000Y-176000000D02*
X173000000Y-176000000D01*
X195000000Y-209800000D02*
G75*
G02*
X140200000Y-155000000I5000000J59800000D01*
G01*
X168000000Y-171000000D02*
X168000000Y-139000000D01*
X259800000Y-155000000D02*
G75*
G02*
X205000000Y-209800000I-59800000J5000000D01*
G01*
X265000000Y-145000000D02*
G75*
G02*
X265000000Y-155000000I0J-5000000D01*
G01*
X223000000Y-134000000D02*
X173000000Y-134000000D01*
X140200000Y-145000000D02*
X135000000Y-145000000D01*
X205000000Y-215000000D02*
G75*
G02*
X195000000Y-215000000I-5000000J0D01*
G01*
X228000000Y-171000000D02*
G75*
G02*
X223000000Y-176000000I-5000000J0D01*
G01*
X168000000Y-139000000D02*
G75*
G02*
X173000000Y-134000000I5000000J0D01*
G01*
X140200000Y-155000000D02*
X135000000Y-155000000D01*
X173000000Y-176000000D02*
G75*
G02*
X168000000Y-171000000I0J5000000D01*
G01*
X259800000Y-145000000D02*
X265000000Y-145000000D01*
X135000000Y-155000000D02*
G75*
G02*
X135000000Y-145000000I0J5000000D01*
G01*
X205000000Y-90200000D02*
X205000000Y-85000000D01*
X205000000Y-209800000D02*
X205000000Y-215000000D01*
M02*
